<svg width="24" height="24" viewBox="0 0 24 24" fill="none" xmlns="http://www.w3.org/2000/svg">
<g clip-path="url(#clip0_104_838)">
<path d="M23.625 6.75C23.625 3.23475 20.7652 0.375 17.25 0.375C13.7347 0.375 10.875 3.23475 10.875 6.75C10.875 7.32263 10.9552 7.887 11.1045 8.43338C9.36225 9.29362 7.43325 9.75 5.45475 9.75H3C2.51175 9.75 2.09925 10.0646 1.944 10.5H1.5C0.87975 10.5 0.375 11.0048 0.375 11.625V13.875C0.375 14.4952 0.87975 15 1.5 15H1.944C2.09925 15.4354 2.51175 15.75 3 15.75H4.50262L3.39675 21.9697C3.3825 22.0511 3.375 22.1332 3.375 22.2161C3.375 22.9928 4.00725 23.625 4.78387 23.625H5.86575C6.564 23.625 7.14938 23.1244 7.25738 22.4347L7.6005 20.25H8.625C9.03862 20.25 9.375 19.9136 9.375 19.5V18.75C9.375 18.3364 9.03862 18 8.625 18H7.95337L8.2575 16.0624C10.3789 16.5386 12.3566 17.5508 13.9995 19.0286L14.106 19.125H16.125V15.345C17.3066 15.1747 18.2374 14.2174 18.3608 13.0211C21.3821 12.4897 23.625 9.852 23.625 6.75ZM22.7625 7.15387C22.2341 7.21875 21.7324 7.13587 21.3116 6.91687C21.0056 6.75787 20.6614 6.71138 20.3156 6.78113C19.7254 6.90037 19.2566 7.38075 19.1497 7.9755C19.1021 8.238 19.1239 8.50688 19.2124 8.7525C19.3841 9.2295 19.4089 9.68625 19.2863 10.1096C19.1066 10.7295 19.0796 11.3726 19.1993 12.0221C18.9188 12.1256 18.6285 12.2085 18.3281 12.267C18.123 11.1713 17.2358 10.3151 16.1246 10.155V8.625H16.7134C17.8361 8.625 18.7496 7.7115 18.7496 6.58875C18.7496 5.86013 18.3566 5.18288 17.7236 4.821L17.3704 4.61925C16.6024 4.17975 16.125 3.35737 16.125 2.47275C16.125 2.06962 16.0455 1.67062 15.8978 1.29638C16.2476 1.20938 16.6099 1.1565 16.9823 1.13888C16.9117 1.35375 16.875 1.57875 16.875 1.80788C16.875 2.682 17.3944 3.4695 18.198 3.81412L19.0425 4.17637C19.3204 4.29525 19.5 4.56788 19.5 4.87013C19.5 5.69963 20.175 6.375 21.0049 6.375C21.6431 6.375 22.2555 6.21487 22.8053 5.91037C22.8465 6.18488 22.875 6.46387 22.875 6.75C22.875 6.88425 22.866 7.01625 22.8566 7.14825C22.8255 7.15088 22.7933 7.15013 22.7625 7.15387ZM22.6343 5.12775C22.1471 5.448 21.5914 5.625 21.0049 5.625C20.5886 5.625 20.25 5.28638 20.25 4.86975C20.25 4.26713 19.8919 3.72413 19.338 3.48675L18.4935 3.1245C17.9659 2.89838 17.625 2.382 17.625 1.80788C17.625 1.57875 17.682 1.35563 17.7885 1.152C20.0876 1.37175 21.9862 2.9805 22.6343 5.12775ZM15.1834 1.52363C15.309 1.824 15.375 2.14687 15.375 2.47275C15.375 3.62587 15.9971 4.69838 16.9988 5.27063L17.352 5.47237C17.7517 5.70075 18 6.12862 18 6.58875C18 7.29825 17.4229 7.875 16.7137 7.875H16.125V6.375H14.106L13.9991 6.47137C13.959 6.50737 13.917 6.54112 13.8765 6.57675C13.8765 6.57188 13.875 6.56738 13.875 6.5625C13.875 5.51888 13.095 4.656 12.0881 4.52063C12.6795 3.156 13.7974 2.07338 15.1834 1.52363ZM11.625 6.75C11.625 6.23063 11.7015 5.73 11.8339 5.25225C12.5475 5.26388 13.125 5.84625 13.125 6.5625C13.125 6.75413 13.1602 6.93975 13.2116 7.12162C12.7545 7.4715 12.2768 7.788 11.781 8.07075C11.6775 7.64062 11.625 7.19812 11.625 6.75ZM1.125 13.875V11.625C1.125 11.418 1.29338 11.25 1.5 11.25H1.875V14.25H1.5C1.29338 14.25 1.125 14.082 1.125 13.875ZM2.625 14.625V10.875C2.625 10.668 2.79338 10.5 3 10.5H5.45475C8.52712 10.5 11.4855 9.45975 13.875 7.55737V17.943C11.4859 16.0402 8.52712 15 5.45475 15H3C2.79338 15 2.625 14.832 2.625 14.625ZM6.51675 22.3185C6.46613 22.641 6.19238 22.875 5.86575 22.875H4.78387C4.46663 22.875 4.20075 22.6493 4.13888 22.35L4.64663 22.0961C5.2335 21.8029 5.67075 21.2981 5.88112 20.6666C6.05025 20.1593 6.45188 19.7681 6.9435 19.5964L6.51675 22.3185ZM8.625 18.75V19.5H7.71787L7.83563 18.75H8.625ZM7.06988 18.7924C6.19725 18.9499 5.454 19.5765 5.16675 20.4386C5.02275 20.871 4.719 21.2212 4.311 21.4252L4.2495 21.456L5.26425 15.75H5.45512C6.15188 15.75 6.84188 15.81 7.52063 15.921L7.06988 18.7924ZM15.375 18.375H14.625V7.125H15.375V18.375ZM16.125 14.5871V10.9129C16.9796 11.0872 17.625 11.8444 17.625 12.75C17.625 13.6556 16.9796 14.4127 16.125 14.5871ZM19.9114 11.7067C19.8484 11.2346 19.8765 10.7681 20.0066 10.3181C20.1716 9.74775 20.1409 9.1185 19.9181 8.49788C19.8735 8.3745 19.8634 8.24325 19.8881 8.10825C19.9403 7.81763 20.1772 7.57387 20.4649 7.51612C20.6408 7.4805 20.8144 7.503 20.9662 7.5825C21.4935 7.85625 22.1093 7.96238 22.7516 7.9035C22.4085 9.53813 21.3566 10.9286 19.9114 11.7067Z" fill="#00095F"/>
<path d="M5.625 12C5.625 11.5864 5.28863 11.25 4.875 11.25H4.125C3.71137 11.25 3.375 11.5864 3.375 12V13.5C3.375 13.9136 3.71137 14.25 4.125 14.25H4.875C5.28863 14.25 5.625 13.9136 5.625 13.5V12ZM4.125 13.5V12H4.875L4.87538 13.5H4.125Z" fill="#00095F"/>
</g>
<defs>
<clipPath id="clip0_104_838">
<rect width="24" height="24" fill="white"/>
</clipPath>
</defs>
</svg>
