<svg width="20" height="20" viewBox="0 0 20 20" fill="none" xmlns="http://www.w3.org/2000/svg">
<path d="M4.80002 3.19922C2.37466 3.19922 0.400024 5.17386 0.400024 7.59922V16.3992C0.400035 16.5053 0.442181 16.607 0.517193 16.682C0.592206 16.7571 0.693941 16.7992 0.800024 16.7992H15.2C17.6254 16.7992 19.6 14.8246 19.6 12.3992V3.59922C19.6 3.49314 19.5579 3.3914 19.4829 3.31639C19.4078 3.24138 19.3061 3.19923 19.2 3.19922H4.80002ZM4.80002 3.99922H18.8V12.3992C18.8 14.3923 17.1931 15.9992 15.2 15.9992H1.20002V7.59922C1.20002 5.60618 2.80699 3.99922 4.80002 3.99922ZM6.41721 7.19922L4.35315 12.7992H5.23206L5.79377 11.1992H7.82034L8.38206 12.7992H9.26174L7.19768 7.19922H6.41721ZM10 7.19922V12.7992H10.8V8.82969L12.4727 12.7992H13.15L14.8 8.86797V12.7992H15.6V7.19922H14.6813L12.811 11.6891L10.9352 7.19922H10ZM6.80706 8.30547L6.84612 8.41406L7.54221 10.3992H6.07268L6.80706 8.30547Z" fill="#747474"/>
</svg>
