<svg width="24" height="24" viewBox="0 0 24 24" fill="none" xmlns="http://www.w3.org/2000/svg">
<path d="M13.357 21.5883H5.34375V3.25781H7.62188C7.8211 3.67266 8.24297 3.95859 8.73047 3.95859H15.2719C15.7594 3.95859 16.1836 3.67031 16.3805 3.25781H18.6469V13.9945C18.6469 14.2523 18.8578 14.4633 19.1156 14.4633C19.3734 14.4633 19.5844 14.2523 19.5844 13.9945V3.05391C19.5844 2.64844 19.2492 2.32031 18.8391 2.32031H16.432C16.2633 1.84453 15.8063 1.5 15.2719 1.5H8.73047C8.19844 1.5 7.74141 1.84453 7.57031 2.32031H5.14922C4.73906 2.32031 4.40391 2.64844 4.40391 3.05391V21.7945C4.40391 22.2 4.73906 22.5281 5.14922 22.5281H13.357C13.6148 22.5281 13.8258 22.3172 13.8258 22.0594C13.8258 21.8016 13.6172 21.5883 13.357 21.5883Z" fill="#00095F"/>
<path d="M16.5563 9.48281C16.5563 9.225 16.3453 9.01406 16.0875 9.01406H7.47891C7.35234 8.88984 7.17891 8.8125 6.98438 8.8125C6.59531 8.8125 6.28125 9.12656 6.28125 9.51562C6.28125 9.90469 6.59531 10.2188 6.98438 10.2188C7.20703 10.2188 7.40625 10.1156 7.53516 9.95156H16.0875C16.3453 9.95156 16.5563 9.74063 16.5563 9.48281ZM16.5563 12.7055C16.5563 12.4477 16.3453 12.2367 16.0875 12.2367H7.54922C7.42031 12.0633 7.21641 11.9531 6.98438 11.9531C6.59531 11.9531 6.28125 12.2672 6.28125 12.6562C6.28125 13.0453 6.59531 13.3594 6.98438 13.3594C7.16719 13.3594 7.33359 13.2891 7.46016 13.1742H16.0875C16.3453 13.1742 16.5563 12.9633 16.5563 12.7055ZM7.50234 15.4828H7.48125C7.35469 15.3562 7.17891 15.2766 6.98438 15.2766C6.59531 15.2766 6.28125 15.5906 6.28125 15.9797C6.28125 16.3687 6.59531 16.6828 6.98438 16.6828C7.20703 16.6828 7.40391 16.5797 7.53281 16.4203H14.4984C14.7562 16.4203 14.9672 16.2094 14.9672 15.9516C14.9672 15.6937 14.7562 15.4828 14.4984 15.4828H7.50234ZM22.2703 12.4078C22.0406 12.2883 21.757 12.3773 21.6375 12.607L17.0883 21.3516L13.7227 19.5094C13.4977 19.3852 13.2094 19.4695 13.0875 19.6945C12.9633 19.9195 13.0477 20.2078 13.2727 20.3297L17.0719 22.4109C17.2969 22.5352 17.5852 22.4508 17.707 22.2258C17.7281 22.1859 17.7445 22.1438 17.7539 22.1016L22.4695 13.043C22.5891 12.8133 22.5 12.5273 22.2703 12.4078Z" fill="#00095F"/>
<path d="M16.9641 7.85352H6.90937C6.5625 7.85352 6.28125 7.57227 6.28125 7.22539V5.31758C6.28125 4.9707 6.5625 4.68945 6.90937 4.68945H16.9641C17.3109 4.68945 17.5922 4.9707 17.5922 5.31758V7.22539C17.5922 7.57227 17.3109 7.85352 16.9641 7.85352Z" fill="#00095F"/>
</svg>
