<svg width="24" height="24" viewBox="0 0 24 24" fill="none" xmlns="http://www.w3.org/2000/svg">
    <g clip-path="url(#clip0_697_32915)">
        <path d="M6.40001 5.9H5.90001V6.4V8V8.5H6.40001H11.2H11.7V8V6.4V5.9H11.2H6.40001ZM18.1 11.2V10.7H17.6H6.40001H5.90001V11.2V12.8V13.3H6.40001H17.6H18.1V12.8V11.2ZM18.1 16V15.5H17.6H12.8H12.3V16V17.6V18.1H12.8H17.6H18.1V17.6V16ZM2.10001 2.4C2.10001 1.35066 2.95066 0.5 4.00001 0.5H16.9243L21.9 5.47573V21.6C21.9 22.6493 21.0493 23.5 20 23.5H4.00001C2.95067 23.5 2.10001 22.6493 2.10001 21.6V2.4Z" stroke="#00095F"/>
    </g>
    <defs>
        <clipPath id="clip0_697_32915">
            <rect width="24" height="24" fill="white"/>
        </clipPath>
    </defs>
</svg>
