<svg width="24" height="24" viewBox="0 0 24 24" fill="none" xmlns="http://www.w3.org/2000/svg">
    <g clip-path="url(#clip0_717_13195)">
        <path d="M6.15808 13.2332C6.77026 12.6888 7.1219 11.9475 7.1219 11.1296C7.1219 10.1925 6.73867 9.39247 6.0659 8.89307C5.33295 8.29994 4.37599 8.03516 2.96268 8.03516C2.08875 8.03516 1.14896 8.11858 0.510086 8.25342C0.21333 8.31624 0 8.5791 0 8.88311V18.5536C0 18.8751 0.236592 19.1471 0.555063 19.1909C0.886109 19.237 1.5939 19.314 2.61258 19.314C4.41637 19.314 5.63542 18.9681 6.45981 18.213C7.14096 17.5517 7.48608 16.7334 7.48608 15.7822C7.48608 14.5822 6.89484 13.746 6.15808 13.2332ZM4.55049 11.2606C4.55049 12.0012 3.78325 12.2656 3.06516 12.2656H2.5558V10.3124C2.69905 10.3045 2.85942 10.2999 3.0358 10.2999C4.55049 10.2999 4.55049 10.9486 4.55049 11.2606ZM2.5558 14.5155H2.96268C3.66974 14.5155 4.85716 14.6781 4.85716 15.768C4.85716 16.6088 4.22515 17.0355 2.97752 17.0355C2.81981 17.0355 2.67922 17.0336 2.5558 17.0294V14.5155Z" fill="#00095F"/>
        <path d="M11.2776 8.10742H10.0087C9.65324 8.10742 9.36523 8.39581 9.36523 8.75084V18.5829C9.36523 18.9383 9.65362 19.2263 10.0087 19.2263H11.2776C11.633 19.2263 11.9206 18.9383 11.9206 18.5829V8.75084C11.921 8.39576 11.633 8.10742 11.2776 8.10742Z" fill="#00095F"/>
        <path d="M18.9365 7.94727C15.869 7.94727 13.7266 10.3354 13.7266 13.7545C13.7266 17.0707 15.8088 19.3869 18.7906 19.3869C21.3837 19.3873 23.9997 17.5872 23.9997 13.5648C23.9997 10.257 21.9178 7.94727 18.9365 7.94727Z" fill="#00095F"/>
        <path d="M18.9365 9.32227C16.0816 9.32227 14.0298 11.392 13.7598 14.4354C14.0257 17.3828 16.018 19.387 18.7906 19.387C21.223 19.387 23.676 17.8023 23.9701 14.2853C23.7133 11.3322 21.7167 9.32227 18.9365 9.32227Z" fill="#00095F"/>
        <path d="M0.555063 19.1906C0.879628 19.2363 1.56842 19.3102 2.55585 19.3128V17.0286V16.8587V14.6088V14.5151V12.6553C2.6991 12.6473 2.85947 12.6427 3.03585 12.6427C4.55092 12.6427 4.55092 13.2919 4.55092 13.6035C4.55092 14.1688 4.10332 14.4553 3.57263 14.5597C4.20005 14.6588 4.85759 14.9563 4.85759 15.767C4.85759 16.394 4.50483 16.7906 3.80845 16.951C4.35476 17.0858 4.85759 17.4013 4.85759 18.1106C4.85759 18.6542 4.58903 19.0222 4.06482 19.2161C5.10023 19.0679 5.88042 18.7434 6.46025 18.2123C6.83661 17.847 7.1071 17.4313 7.277 16.9738C7.04157 16.3681 6.63131 15.9044 6.15851 15.5757C6.59586 15.1872 6.89677 14.6969 7.03548 14.1509C6.80121 13.7749 6.4972 13.4675 6.15851 13.2317C6.46973 12.9551 6.71319 12.6271 6.87738 12.2644C6.69757 11.853 6.4248 11.501 6.06633 11.2355C5.52955 10.8008 4.86939 10.5437 4.00006 10.4366C4.54787 10.6446 4.55092 11.037 4.55092 11.2591C4.55092 11.9997 3.78369 12.264 3.06559 12.264H2.5558V10.3848C1.80685 10.4057 1.05103 10.4823 0.510473 10.5966C0.21333 10.6591 0 10.922 0 11.2264V18.5532C0 18.8744 0.236592 19.1468 0.555063 19.1906Z" fill="#00095F"/>
        <path d="M11.2776 10.4512H10.0087C9.65324 10.4512 9.36523 10.7396 9.36523 11.0946V18.583C9.36523 18.9384 9.65362 19.2264 10.0087 19.2264H11.2776C11.633 19.2264 11.9206 18.9384 11.9206 18.583V11.0946C11.921 10.7392 11.633 10.4512 11.2776 10.4512Z" fill="#00095F"/>
        <path d="M18.5092 10.373C17.3858 10.9243 16.5352 13.4031 16.5352 14.5864C16.5352 15.77 17.3854 16.7521 18.5092 16.9613V13.6672V10.373Z" fill="#EBF0F2"/>
        <path d="M19.2178 10.373C20.3404 10.9243 21.1904 13.4031 21.1904 14.5864C21.1904 15.77 20.3397 16.7521 19.2178 16.9613V10.373Z" fill="#EBF0F2"/>
        <path d="M5.97712 4.69531C5.57256 5.87929 6.72418 8.23361 7.56111 9.07019C8.39769 9.9075 9.69329 10.0005 10.6358 9.35399L5.97712 4.69531Z" fill="#00095F"/>
        <path d="M5.97656 4.69668C7.15981 4.29251 9.51331 5.44447 10.3495 6.28144C11.1868 7.11842 11.2798 8.41402 10.6345 9.35536L5.97656 4.69668Z" fill="#00095F"/>
        <path d="M15.31 4.69531C15.7146 5.87929 14.563 8.23361 13.7257 9.07019C12.8895 9.9075 11.5935 10.0005 10.6514 9.35399L15.31 4.69531Z" fill="#00095F"/>
        <path d="M15.3117 4.69668C14.1281 4.29251 11.7742 5.44447 10.9376 6.28144C10.1007 7.11842 10.0077 8.41402 10.6531 9.35536L15.3117 4.69668Z" fill="#00095F"/>
    </g>
    <defs>
        <clipPath id="clip0_717_13195">
            <rect width="24" height="24" fill="white"/>
        </clipPath>
    </defs>
</svg>
