<svg width="24" height="24" viewBox="0 0 24 24" fill="none" xmlns="http://www.w3.org/2000/svg">
<g clip-path="url(#clip0_71_1941)">
<path d="M8.08388 20.0399H11.3516C11.384 20.0399 11.4152 20.0347 11.4454 20.0267C15.6064 20.0267 19.5373 20.0267 23.6273 20.0398C23.6286 20.0398 23.63 20.0398 23.6313 20.0398C23.6427 20.0406 23.6516 20.0394 23.7197 20.0292C23.8164 20.0054 23.8998 19.9432 23.951 19.8551C23.9513 19.8547 23.9515 19.8543 23.9533 19.8511C23.9594 19.8402 23.9649 19.829 23.9776 19.798C23.9779 19.7971 23.9783 19.7963 23.9785 19.7956C23.9819 19.786 23.9849 19.7764 23.9875 19.7667C23.9877 19.7661 23.9878 19.7656 23.9939 19.7383C24.018 19.6079 23.9699 19.4727 23.8649 19.3869C22.0004 17.8576 20.6847 15.501 19.9543 12.3824C19.9079 12.1845 19.7098 12.0615 19.5116 12.1079C19.3135 12.1542 19.1904 12.3522 19.2368 12.5502C19.9087 15.4187 21.0637 17.6844 22.6759 19.3009C18.932 19.2906 15.2973 19.2906 11.4686 19.2906C11.1179 18.9984 10.7964 18.6814 10.5021 18.3467C10.489 18.3317 10.476 18.317 10.4629 18.3023C9.01965 16.639 8.23524 14.556 7.81678 12.9628C7.46166 11.6105 7.31372 10.4147 7.25264 9.70761C7.24486 9.60912 7.23787 9.51031 7.23155 9.41131C11.0804 9.4262 14.9877 9.42667 18.7798 9.42671C18.7961 9.91329 18.8448 10.3982 18.9252 10.8729C18.9556 11.0525 19.3376 13.7192 19.3889 12.5164C19.3889 13.6003 19.7341 12.2728 19.755 12.2693C19.9556 12.2354 19.9882 12.5828 19.9543 12.3824C19.8605 11.8285 19.5104 9.62711 19.5104 9.05862C19.5104 8.85537 19.3454 8.69057 19.142 8.69057C15.1095 8.69057 10.9397 8.69057 6.84379 8.67361C6.84333 8.67361 6.84276 8.67361 6.8422 8.67361H6.22823V6.6857V3.76064V3.36805C6.22823 3.1648 6.06328 3 5.85984 3C5.6564 3 5.49145 3.1648 5.49145 3.36805V3.5055L1.82389 4.87851C1.68007 4.93237 1.58478 5.06973 1.58478 5.22315C1.58478 5.37657 1.68007 5.51397 1.82389 5.56778L5.49145 6.94079V8.67357H4.87752C4.67676 8.67357 4.51297 8.8342 4.50918 9.03468C4.50843 9.07234 3.58681 14.2169 1.86715 17.5367C2.04199 17.7193 2.16176 17.4433 2.34247 17.5367C2.52326 17.6302 2.33333 18.1923 2.42679 18.0118C3.9274 15.1147 5.1659 10.4609 5.22974 9.40962H6.4904C6.4995 9.55592 6.51351 9.74334 6.53484 9.96486C6.84056 13.1339 7.7807 16.1067 9.78981 18.6058C9.91271 18.7587 10.0327 18.914 10.1412 19.0775C10.145 19.0832 10.1489 19.0887 10.1529 19.0942C10.2156 19.1777 10.286 19.2448 10.3549 19.3036H8.28516C7.3635 17.8456 6.66829 16.1 6.21923 14.1101C6.18135 13.9422 6.0321 13.8229 5.85989 13.8229C5.68762 13.8229 5.53841 13.9422 5.50054 14.1101C5.05148 16.0999 4.35631 17.8455 3.43466 19.3036H1.33029C1.72212 18.9138 2.08901 18.4817 2.42679 18.0118C2.54548 17.8467 2.5077 17.6167 2.34247 17.4982C2.17728 17.3796 1.94712 17.4173 1.82834 17.5824C1.32678 18.2802 0.757894 18.8866 0.137598 19.3848C0.0157707 19.4826 -0.0309645 19.6466 0.0209261 19.7939C0.0728636 19.9412 0.212131 20.0397 0.368412 20.0397H3.63721C3.63716 20.0399 8.08289 20.0399 8.08388 20.0399ZM5.49163 6.15477L3.00327 5.22319L5.49163 4.29166V6.15477ZM4.29829 19.3038C4.93527 18.2177 5.45798 16.994 5.86003 15.6481C6.26217 16.9941 6.78483 18.2178 7.42181 19.3038H4.29829Z" fill="#747474"/>
</g>
<defs>
<clipPath id="clip0_71_1941">
<rect width="24" height="24" fill="white"/>
</clipPath>
</defs>
</svg>
