<svg width="22" height="24" viewBox="0 0 22 24" fill="none" xmlns="http://www.w3.org/2000/svg">
    <path d="M20.5 19.75H20.25H20H4.75V19.125V0.5H20C20.553 0.5 21 0.947017 21 1.5V19.5C21 19.6379 20.8879 19.75 20.75 19.75H20.5ZM3 19.75H2.75C1.99702 19.75 1.34119 20.1662 1 20.781V1.5C1 0.947017 1.44702 0.5 2 0.5H3V19.125V19.75ZM12.125 4.75H7.625C7.14148 4.75 6.75 5.14148 6.75 5.625C6.75 6.10852 7.14148 6.5 7.625 6.5H12.125C12.6085 6.5 13 6.10852 13 5.625C13 5.14148 12.6085 4.75 12.125 4.75ZM7.625 11H14.75C15.2335 11 15.625 10.6085 15.625 10.125C15.625 9.64148 15.2335 9.25 14.75 9.25H7.625C7.14148 9.25 6.75 9.64148 6.75 10.125C6.75 10.6085 7.14148 11 7.625 11ZM7.625 8.75H17.375C17.8585 8.75 18.25 8.35852 18.25 7.875C18.25 7.39148 17.8585 7 17.375 7H7.625C7.14148 7 6.75 7.39148 6.75 7.875C6.75 8.35852 7.14148 8.75 7.625 8.75Z" stroke="#00095F"/>
</svg>
