<svg width="24" height="24" viewBox="0 0 24 24" fill="none" xmlns="http://www.w3.org/2000/svg">
<g clip-path="url(#clip0_68_1481)">
<path d="M24 14.8882L21.1121 9.11206L18.2242 14.8882H20.1693C18.9449 18.7107 15.3638 21.4892 11.1388 21.4892C5.90686 21.4892 1.64974 17.2322 1.64974 12.0001C1.64974 6.76814 5.90686 2.51103 11.1388 2.51103C15.1702 2.51103 18.6143 5.04241 19.9857 8.59651L20.9341 6.69952C19.0472 3.22494 15.3647 0.86084 11.1396 0.86084C4.99739 0.860693 0 5.85778 0 12.0001C0 18.142 4.99739 23.1395 11.1394 23.1395C16.2823 23.1395 20.6127 19.6334 21.8889 14.8883L24 14.8882Z" fill="#747474"/>
<path d="M5.22565 14.2227H6.26883L6.58544 13.0815H7.85849L8.2019 14.2227H9.28352L7.90488 9.77661H6.58544L5.22565 14.2227ZM6.99393 11.3862C7.06653 11.1286 7.13251 10.7921 7.19862 10.5287H7.21158C7.2777 10.7921 7.35708 11.123 7.43645 11.3862L7.71359 12.3305H6.73064L6.99393 11.3862Z" fill="#747474"/>
<path d="M12.0365 10.5618C12.5241 10.5618 12.8274 10.6477 13.0716 10.7524L13.283 9.94744C13.0652 9.84215 12.623 9.72949 12.0495 9.72949C10.5914 9.72949 9.5166 10.5734 9.50879 12.0516C9.50261 12.7046 9.72674 13.2845 10.1361 13.6682C10.5452 14.0641 11.132 14.2685 11.944 14.2685C12.5301 14.2685 13.1184 14.1234 13.4277 14.018V11.6761H11.7723V12.4611H12.4593V13.3908C12.3795 13.4311 12.1945 13.4569 11.9637 13.4569C11.1385 13.4569 10.5652 12.9154 10.5652 11.9985C10.5652 11.0363 11.1979 10.5618 12.0365 10.5618Z" fill="#747474"/>
<path d="M16.9606 10.6017V9.77734H14.2162V14.2227H17.0532V13.399H15.2257V12.3435H16.8622V11.5247H15.2257V10.6017H16.9606Z" fill="#747474"/>
</g>
<defs>
<clipPath id="clip0_68_1481">
<rect width="24" height="24" fill="white"/>
</clipPath>
</defs>
</svg>
