<svg width="24" height="24" viewBox="0 0 24 24" fill="none" xmlns="http://www.w3.org/2000/svg">
<g clip-path="url(#clip0_106_3554)">
<path d="M12 23.9999C18.6273 23.9999 23.9999 18.6273 23.9999 12C23.9999 5.37256 18.6273 0 12 0C5.37256 0 0 5.37256 0 12C0 18.6273 5.37256 23.9999 12 23.9999Z" fill="#2B8A9A"/>
<path d="M20.4852 3.5147C15.799 -1.17157 8.20097 -1.17157 3.51471 3.5147L12 12L20.4852 3.5147Z" fill="#1C7287"/>
<path d="M12.0001 0C8.92895 0 5.85784 1.17157 3.51471 3.5147L12 12L12.0001 0Z" fill="#165C6C"/>
<path d="M3.51471 20.4853C8.20097 25.1715 15.799 25.1715 20.4852 20.4853L12 12L3.51471 20.4853Z" fill="#F8B242"/>
<path d="M3.51483 20.4853C5.85796 22.8284 8.96051 24 12.0001 24V12L3.51483 20.4853Z" fill="#D09838"/>
<path d="M20.4852 3.51465L11.9999 11.9999L20.4852 20.4852C25.1716 15.7989 25.1716 8.20091 20.4852 3.51465Z" fill="#E45527"/>
</g>
<defs>
<clipPath id="clip0_106_3554">
<rect width="24" height="24" fill="white"/>
</clipPath>
</defs>
</svg>
