<svg width="24" height="24" viewBox="0 0 24 24" fill="none" xmlns="http://www.w3.org/2000/svg">
<path d="M20.4397 7.10659L20.4379 7.1034C20.4295 7.0938 20.4179 7.0896 20.4088 7.08105C20.1099 6.81259 19.7191 6.64436 19.2867 6.64436H17.4851V1.69627C17.4851 0.967725 16.8924 0.375 16.1638 0.375H4.34767C3.61908 0.375 3.02636 0.967725 3.02636 1.69627V22.3037C3.02636 23.0323 3.61908 23.625 4.34767 23.625H16.1638C16.8924 23.625 17.4851 23.0323 17.4851 22.3037V16.377H19.2867C19.7417 16.377 20.1536 16.1939 20.4574 15.8998C20.4596 15.8976 20.4626 15.8969 20.4648 15.8946L20.4661 15.8925C20.7785 15.5859 20.9737 15.1601 20.9737 14.6887V8.3313C20.9736 7.84793 20.7665 7.41442 20.4397 7.10659ZM19.2867 7.39436C19.3613 7.39436 19.4329 7.40535 19.5025 7.42189L14.2906 11.9691L9.07582 7.42237C9.14587 7.40561 9.21802 7.39436 9.29313 7.39436H19.2867ZM12.5533 11.4496L8.55585 15.2606C8.43273 15.1017 8.35638 14.9049 8.35638 14.6887V8.3313C8.35638 8.17121 8.40048 8.02264 8.47151 7.89067L12.5533 11.4496ZM7.25703 1.125H13.2532V1.61865C13.2532 1.89075 13.0318 2.11211 12.7597 2.11211H7.7505C7.4784 2.11211 7.25703 1.89075 7.25703 1.61865V1.125ZM4.34767 1.125H6.50703V1.61865C6.50703 2.30437 7.06477 2.86211 7.7505 2.86211H12.7597C13.4454 2.86211 14.0032 2.30437 14.0032 1.61865V1.125H16.1638C16.4787 1.125 16.7351 1.38135 16.7351 1.69627V6.64433H9.29313C8.85836 6.64433 8.46543 6.81413 8.16603 7.08525C8.15816 7.09279 8.14796 7.09631 8.14068 7.10468L8.13903 7.10756C7.81286 7.41536 7.60638 7.84849 7.60638 8.3313V8.39044H6.17156C5.96448 8.39044 5.79656 8.55836 5.79656 8.76544C5.79656 8.97251 5.96448 9.14044 6.17156 9.14044H7.60638V10.7331H6.17156C5.96448 10.7331 5.79656 10.901 5.79656 11.1081C5.79656 11.3152 5.96448 11.4831 6.17156 11.4831H7.60638V13.4231H6.17156C5.96448 13.4231 5.79656 13.591 5.79656 13.7981C5.79656 14.0052 5.96448 14.1731 6.17156 14.1731H7.60638V14.6887C7.60638 15.6196 8.36298 16.377 9.29313 16.377H16.7351V20.9059H3.77636V1.69627C3.77636 1.38135 4.03271 1.125 4.34767 1.125ZM16.1638 22.875H4.34767C4.03275 22.875 3.7764 22.6187 3.7764 22.3037V21.6559H16.7351V22.3037C16.7351 22.6187 16.4788 22.875 16.1638 22.875ZM19.2867 15.627H9.29313C9.2823 15.627 9.27228 15.6241 9.26156 15.6238L13.1209 11.9445L14.0442 12.7495C14.1148 12.811 14.2027 12.8418 14.2906 12.8418C14.3785 12.8418 14.4666 12.811 14.5371 12.7493L15.6173 11.8068L19.583 15.5743C19.4893 15.6059 19.3909 15.627 19.2867 15.627ZM20.2236 14.6887C20.2236 14.8246 20.1932 14.953 20.1411 15.0697L16.1851 11.3115L20.1076 7.88906C20.1792 8.0214 20.2236 8.17054 20.2236 8.3313V14.6887Z" fill="black"/>
</svg>
