<svg width="24" height="24" viewBox="0 0 24 24" fill="none" xmlns="http://www.w3.org/2000/svg">
    <g clip-path="url(#clip0_665_9429)">
        <path d="M13.8986 6.77344H13.8763C13.6692 6.77344 13.5125 6.94136 13.5125 7.14844C13.5125 7.35551 13.6915 7.52344 13.8986 7.52344C14.1057 7.52344 14.2736 7.35551 14.2736 7.14844C14.2736 6.94136 14.1057 6.77344 13.8986 6.77344Z" fill="black"/>
        <path d="M16.942 6.77344H16.9211C16.714 6.77344 16.5565 6.94136 16.5565 7.14844C16.5565 7.35551 16.7349 7.52344 16.942 7.52344C17.149 7.52344 17.317 7.35551 17.317 7.14844C17.317 6.94136 17.1491 6.77344 16.942 6.77344Z" fill="black"/>
        <path d="M19.9869 6.77344H19.9645C19.7574 6.77344 19.6007 6.94136 19.6007 7.14844C19.6007 7.35551 19.7798 7.52344 19.9869 7.52344C20.194 7.52344 20.3619 7.35551 20.3619 7.14844C20.3619 6.94136 20.194 6.77344 19.9869 6.77344Z" fill="black"/>
        <path d="M16.9482 17.2225C15.0174 16.1336 14.4391 16.2226 12.9668 17.055C12.2113 17.5571 11.3016 17.2509 9.72068 15.9633C9.41033 15.7105 9.09847 15.4285 8.79488 15.1264C8.49146 14.8217 8.20969 14.5099 7.95697 14.1993C6.76515 12.7368 6.44066 11.4022 6.82778 10.9999C7.96852 9.77328 7.70963 8.76604 6.70271 6.98092C6.09626 5.83376 5.4303 4.69192 4.54391 4.42991C3.9012 4.24113 2.94686 4.73568 2.66269 4.92431C1.93174 5.41117 1.23758 6.27232 0.851025 7.17195C0.140025 8.82705 0.328613 10.8218 0.742275 12.1368C1.42178 14.2927 3.05269 16.7892 5.10533 18.8151C7.13194 20.8686 9.62839 22.4991 11.7834 23.1768C12.4641 23.3916 13.3271 23.5459 14.2315 23.5459C15.0729 23.5459 15.9501 23.4123 16.7486 23.0693C17.6482 22.6821 18.5088 21.9879 18.9944 21.2578C19.1834 20.9746 19.6798 20.0204 19.4888 19.375C19.2283 18.4902 18.0864 17.824 16.9482 17.2225ZM16.5888 17.8808C17.2833 18.2479 18.5762 18.9315 18.7694 19.5875C18.809 19.7212 18.7608 19.9647 18.672 20.2179L13.5985 17.5595C14.5527 17.0312 14.9391 16.9503 16.5888 17.8808ZM4.33174 5.14927C4.98889 5.34356 5.67244 6.63663 6.04451 7.34032C7.0275 9.08295 7.02439 9.63285 6.39229 10.362L3.6555 5.26335C3.864 5.18625 4.06984 5.1354 4.21763 5.1354C4.26124 5.13536 4.29968 5.13978 4.33174 5.14927ZM16.4524 22.3803C14.9833 23.0116 13.1407 22.8188 12.0086 22.4614C9.9642 21.8185 7.58239 20.2577 5.63745 18.2866C5.63618 18.2853 5.63509 18.2842 5.63378 18.2829C3.66356 16.3387 2.10225 13.9567 1.4577 11.9116C1.10156 10.7793 0.909488 8.9361 1.54028 7.46778C1.85681 6.7311 2.40739 6.03187 2.99149 5.61228L5.96261 11.148C5.79904 12.0379 6.3072 13.3619 7.37546 14.673C7.6437 15.0026 7.94254 15.3333 8.26463 15.6566C8.5869 15.9776 8.91739 16.2764 9.24697 16.5449C10.4049 17.4881 11.6208 18.2797 12.7595 17.9667L18.336 20.8887C17.9208 21.4876 17.2059 22.056 16.4524 22.3803Z" fill="black"/>
        <path d="M22.8582 4.03904C21.1441 0.772076 17.0909 -0.491524 13.8227 1.22121C10.5557 2.93583 9.29153 6.98939 11.0048 10.2571C11.129 10.4938 11.2707 10.7277 11.4276 10.9551L10.4147 12.6913C10.344 12.8124 10.3467 12.9628 10.422 13.0812C10.4969 13.1996 10.6318 13.2654 10.7715 13.2538L13.6778 12.9969C14.6938 13.5619 15.8115 13.8454 16.9308 13.8454C17.9948 13.8454 19.0603 13.5891 20.0407 13.0747C23.3079 11.3603 24.5718 7.30694 22.8582 4.03904ZM19.6923 12.4106C17.8746 13.3642 15.7277 13.3186 13.949 12.2887C13.8919 12.2555 13.8269 12.2381 13.7611 12.2381C13.7501 12.2381 13.7391 12.2387 13.7282 12.2396L11.428 12.4428L12.1979 11.1232C12.2736 10.9934 12.2646 10.831 12.1749 10.7105C11.9824 10.4518 11.8123 10.182 11.6691 9.90884C10.1477 7.00735 11.27 3.40806 14.1711 1.88534C17.0728 0.36355 20.6717 1.48671 22.194 4.38749C23.7156 7.28916 22.5932 10.8883 19.6923 12.4106Z" fill="black"/>
    </g>
    <defs>
        <clipPath id="clip0_665_9429">
            <rect width="24" height="24" fill="white"/>
        </clipPath>
    </defs>
</svg>
