<svg width="24" height="24" viewBox="0 0 24 24" fill="none" xmlns="http://www.w3.org/2000/svg">
<g clip-path="url(#clip0_30_1296)">
<path fill-rule="evenodd" clip-rule="evenodd" d="M21.8776 0V18.3529H19.0541V22.5882H21.1717V24H5.64233C4.61174 24 3.6235 23.5482 2.95857 22.7577C2.40939 22.1082 2.11292 21.3035 2.11292 20.4706V3.52941C2.11292 1.58118 3.69409 0 5.64233 0H21.8776ZM17.6423 18.3529H5.79762C4.68233 18.3529 3.72092 19.1012 3.55292 20.1035C3.53739 20.2165 3.52468 20.3294 3.52468 20.4424V20.4706C3.52468 20.9788 3.69409 21.4447 4.03292 21.84C4.44233 22.32 5.02115 22.5882 5.64233 22.5882H17.6423V21.1765H5.11998V19.7647H17.6423V18.3529ZM20.4659 1.41176H5.64233C4.48327 1.41176 3.52468 2.35764 3.52468 3.52941V17.6894C4.15998 17.2235 4.94915 16.9412 5.79762 16.9412H20.4659L20.4659 1.41176ZM16.936 11.2941V12.7059H7.05367V11.2941H16.936V11.2941ZM17.6419 4.23531V9.88236H6.3478V4.2353H17.6419L17.6419 4.23531ZM16.2301 5.64706H7.75955V8.4706H16.2301V5.64706Z" fill="#00095F"/>
</g>
<defs>
<clipPath id="clip0_30_1296">
<rect width="24" height="24" fill="white"/>
</clipPath>
</defs>
</svg>
