<svg width="20" height="20" viewBox="0 0 20 20" fill="none" xmlns="http://www.w3.org/2000/svg">
<g clip-path="url(#clip0_494_32791)">
<path d="M14.9047 4.2218C15.6731 4.2218 16.2925 3.60515 16.2925 2.83743V1.38712C16.2925 0.618026 15.6731 0 14.9047 0C14.1398 0 13.519 0.618026 13.519 1.38712V2.83811C13.5197 3.60515 14.1398 4.2218 14.9047 4.2218Z" fill="#747474"/>
<path d="M19.8352 2.40163H17.041V3.10412C17.041 4.27081 16.0955 5.21777 14.9288 5.21777C13.7614 5.21777 12.8179 4.27081 12.8179 3.10412V2.40163H7.1849V3.10412C7.1849 4.27081 6.23932 5.21777 5.07331 5.21777C3.90661 5.21777 2.96309 4.27081 2.96309 3.10412V2.40163L0.144897 2.36523V19.9982L1.55262 19.9996H18.4481L19.8551 19.9941L19.8352 2.40163ZM18.4474 18.5953H1.55262V7.32935H18.4481L18.4474 18.5953Z" fill="#747474"/>
<path d="M5.05065 4.2218C5.817 4.2218 6.43572 3.60515 6.43572 2.83743V1.38712C6.43503 0.618026 5.817 0 5.05065 0C4.28499 0 3.66422 0.618026 3.66422 1.38712V2.83811C3.66422 3.60515 4.28499 4.2218 5.05065 4.2218Z" fill="#747474"/>
<path d="M6.91023 15.5492C7.43624 15.0987 7.82148 14.366 7.82148 13.3078C7.82148 12.3313 7.45821 11.6501 6.88551 11.225C6.35881 10.8322 5.67212 10.6338 4.61255 10.6338C3.9904 10.6338 3.38886 10.6832 2.93015 10.7574V16.1809C3.23504 16.2214 3.70062 16.2626 4.35092 16.2626C5.43315 16.2626 6.32654 16.0319 6.91023 15.5492ZM4.17718 11.6432C4.285 11.6178 4.47246 11.5938 4.74371 11.5938C5.82594 11.5938 6.50096 12.2015 6.50096 13.3497C6.50096 14.6695 5.75315 15.2944 4.61255 15.2848C4.46354 15.2848 4.285 15.2848 4.17718 15.2621V11.6432Z" fill="#747474"/>
<path d="M9.79846 14.7837H11.3813L11.8091 16.2052H13.1633L11.4397 10.6738H9.79846L8.11606 16.2058H9.40567L9.79846 14.7837ZM10.3059 12.6755C10.3973 12.3562 10.479 11.938 10.5621 11.6091H10.5772C10.6596 11.938 10.7571 12.348 10.8573 12.6755L11.2007 13.8505H9.97769L10.3059 12.6755Z" fill="#747474"/>
<path d="M14.3952 16.2054H15.6409V13.8975L17.462 10.6748H16.0591L15.5015 12.0042C15.3374 12.397 15.2062 12.7177 15.0833 13.0624H15.0668C14.9363 12.7019 14.8141 12.4067 14.6417 12.0042L14.0828 10.6748H12.6483L14.3952 13.9394V16.2054Z" fill="#747474"/>
</g>
<defs>
<clipPath id="clip0_494_32791">
<rect width="20" height="20" fill="white"/>
</clipPath>
</defs>
</svg>
