<svg width="23" height="24" viewBox="0 0 23 24" fill="none" xmlns="http://www.w3.org/2000/svg">
<path d="M16.75 7.5V20C16.75 20.1393 16.6968 20.2689 16.6083 20.3612C16.5206 20.4527 16.4062 20.5 16.2917 20.5H6.70833C6.59381 20.5 6.47944 20.4527 6.39168 20.3612C6.30324 20.2689 6.25 20.1393 6.25 20V7.5L16.75 7.5Z" fill="white" stroke="black"/>
<path d="M15.3334 7V4C15.3334 3.73478 15.2324 3.48043 15.0527 3.29289C14.873 3.10536 14.6292 3 14.3751 3H8.62508C8.37092 3 8.12716 3.10536 7.94744 3.29289C7.76772 3.48043 7.66675 3.73478 7.66675 4V7" stroke="black" stroke-linecap="round" stroke-linejoin="round"/>
<path d="M9.58325 11V17M13.4166 11V17M3.83325 7H19.1666M17.2499 20V7H5.74992V20C5.74992 20.2652 5.85089 20.5196 6.03061 20.7071C6.21033 20.8946 6.45409 21 6.70825 21H16.2916C16.5458 21 16.7895 20.8946 16.9692 20.7071C17.149 20.5196 17.2499 20.2652 17.2499 20Z" stroke="black" stroke-linecap="round" stroke-linejoin="round"/>
</svg>
