<svg width="24" height="24" viewBox="0 0 24 24" fill="none" xmlns="http://www.w3.org/2000/svg">
<g clip-path="url(#clip0_184_1957)">
<path d="M17.673 5.60588C15.7818 4.71633 13.8915 3.825 12.002 2.93188L0.138 8.52388L2.168 9.50388L2 9.53088V19.9999H3V10.3739L3.72 10.2499L4 10.3849V15.6729C4 16.5869 9.206 19.2059 10.249 19.7219C10.7913 19.988 11.388 20.1243 11.9921 20.1197C12.5961 20.1152 13.1908 19.9701 13.729 19.6959C20 16.4859 20 15.8949 20 15.6729V10.3849L23.854 8.52788C23.854 8.52788 20.054 6.72688 17.673 5.60588ZM19 15.5039C17.164 16.726 15.2514 17.8289 13.274 18.8059C12.8748 19.0096 12.4336 19.1175 11.9854 19.121C11.5372 19.1245 11.0943 19.0234 10.692 18.8259C8.70748 17.8817 6.80377 16.7763 5 15.5209V10.8659L12 14.2389L19 10.8659V15.5039ZM12 13.1309L5.416 9.95788L11.885 8.84289L11.715 7.85588L3.865 9.20988L2.462 8.53389L11.999 4.03888C12.824 4.43188 20.522 8.05288 21.541 8.53288L12 13.1309Z" fill="#747474"/>
</g>
<defs>
<clipPath id="clip0_184_1957">
<rect width="24" height="24" fill="white"/>
</clipPath>
</defs>
</svg>
