<svg width="24" height="24" viewBox="0 0 24 24" fill="none" xmlns="http://www.w3.org/2000/svg">
    <path fill-rule="evenodd" clip-rule="evenodd" d="M2.57129 2.57101C2.57129 2.54142 2.57278 2.51218 2.57569 2.48338C2.58733 2.36812 2.62165 2.25961 2.67412 2.16244C2.71978 2.07788 2.77917 2.00191 2.84929 1.93757C3.00073 1.7986 3.20216 1.71387 3.42327 1.71387H13.6471C14.1176 1.71387 14.4991 2.09763 14.4991 2.57101V3.42815H20.575C21.2555 3.42815 21.6614 4.19114 21.2839 4.76075L19.0741 8.09555C18.8833 8.38347 18.8833 8.75855 19.0741 9.04647L21.2839 12.3813C21.6614 12.9509 21.2555 13.7139 20.575 13.7139H12.7951C12.3245 13.7139 11.9431 13.3301 11.9431 12.8567V11.9996H4.27526V21.4282C4.27526 21.9016 3.89382 22.2853 3.42327 22.2853C2.95273 22.2853 2.57129 21.9016 2.57129 21.4282V2.57101ZM13.6471 11.9996H18.5042C18.7092 11.9996 18.8318 11.7713 18.7186 11.6004L17.6563 9.99738C17.0839 9.13364 17.0839 8.00838 17.6563 7.14464L18.7186 5.54162C18.8318 5.37069 18.7092 5.14244 18.5042 5.14244H14.4991V11.1424C14.4991 11.6158 14.1176 11.9996 13.6471 11.9996ZM4.53241 10.2853C4.39039 10.2853 4.27526 10.1702 4.27526 10.0282V3.6853C4.27526 3.54328 4.39039 3.42815 4.53241 3.42815H12.538C12.68 3.42815 12.7951 3.54328 12.7951 3.6853V10.0282C12.7951 10.1702 12.68 10.2853 12.538 10.2853H4.53241Z" fill="black"/>
</svg>
