<svg width="20" height="20" viewBox="0 0 20 20" fill="none" xmlns="http://www.w3.org/2000/svg">
<g clip-path="url(#clip0_494_32882)">
<path d="M11.6411 17.765C11.4841 17.8073 11.3239 17.845 11.165 17.8777C10.7491 17.9624 10.4807 18.3683 10.5656 18.7842C10.5704 18.808 10.5764 18.8305 10.5832 18.8532C10.6966 19.2292 11.0801 19.4637 11.4724 19.3836C11.6621 19.3448 11.8533 19.2996 12.0407 19.2492C12.4507 19.1389 12.6935 18.7171 12.5832 18.3072C12.4727 17.8967 12.051 17.6546 11.6411 17.765Z" fill="#747474"/>
<path d="M6.28364 17.3371C6.13521 17.271 5.98712 17.1995 5.84346 17.1244C5.46699 16.9281 5.00289 17.074 4.80658 17.4504C4.70967 17.6356 4.69607 17.8421 4.75206 18.0275C4.80987 18.2187 4.9414 18.3875 5.13221 18.4871C5.3037 18.5764 5.47995 18.6619 5.65677 18.7407C6.04424 18.9137 6.49881 18.74 6.67194 18.3526C6.84507 17.9648 6.67116 17.5105 6.28364 17.3371Z" fill="#747474"/>
<path d="M8.92656 18.011C8.76491 17.998 8.60092 17.9796 8.43997 17.957C8.01964 17.8971 7.63073 18.1896 7.57102 18.6099C7.55481 18.7241 7.56473 18.8358 7.59593 18.9393C7.6797 19.2169 7.91806 19.4351 8.22415 19.4788C8.41566 19.5059 8.61059 19.5276 8.80322 19.5429C9.22645 19.5772 9.59703 19.2618 9.63109 18.8388C9.66511 18.4156 9.34988 18.045 8.92656 18.011Z" fill="#747474"/>
<path d="M14.1166 16.6179C13.983 16.7098 13.8445 16.799 13.7051 16.8832C13.3979 17.0683 13.2668 17.4344 13.3657 17.7627C13.3839 17.8228 13.4099 17.8817 13.4438 17.9382C13.6627 18.3018 14.1351 18.4185 14.4987 18.1997C14.6645 18.0997 14.8292 17.9933 14.9879 17.8842C15.3375 17.6435 15.426 17.165 15.1854 16.8154C14.9448 16.4656 14.4661 16.3773 14.1166 16.6179Z" fill="#747474"/>
<path d="M17.1378 14.5397C16.7936 14.2915 16.3132 14.3694 16.0649 14.7134C15.9701 14.845 15.8697 14.9756 15.767 15.1009C15.5984 15.3068 15.5546 15.5736 15.6259 15.8106C15.6686 15.9516 15.7521 16.0822 15.8745 16.1826C16.2029 16.4515 16.6871 16.4032 16.956 16.0748C17.0787 15.9253 17.1985 15.7696 17.3114 15.6127C17.5598 15.2684 17.4821 14.7882 17.1378 14.5397Z" fill="#747474"/>
<path d="M18.2136 11.74C17.8062 11.621 17.3795 11.855 17.2607 12.2625C17.215 12.4185 17.1641 12.5752 17.1096 12.7281C17.0518 12.889 17.051 13.0568 17.097 13.2088C17.1649 13.4343 17.3351 13.6255 17.5734 13.7108C17.9731 13.8542 18.4129 13.6466 18.5565 13.2471C18.6216 13.0649 18.6822 12.8784 18.7361 12.6928C18.8549 12.2855 18.621 11.8586 18.2136 11.74Z" fill="#747474"/>
<path d="M19.6557 6.73284L18.6456 7.04669C17.8791 4.69764 16.2651 2.76731 14.0806 1.59495C13.8607 1.47686 13.6377 1.36834 13.4119 1.26862C13.4102 1.26784 13.4089 1.26719 13.4074 1.2662C13.398 1.26221 13.388 1.25848 13.3788 1.25441C11.3872 0.382941 9.1832 0.21774 7.07047 0.789878C7.05387 0.793128 7.03727 0.796248 7.02089 0.800886C6.95034 0.820127 6.87913 0.840973 6.80888 0.861948C6.69356 0.896791 6.57755 0.934321 6.46374 0.973368C6.45027 0.978005 6.43757 0.983769 6.42448 0.988969C4.53853 1.64228 2.9325 2.84679 1.78675 4.45616C1.78267 4.46171 1.77808 4.46648 1.77422 4.47198C1.66224 4.62925 1.55377 4.79233 1.45132 4.95684C1.4449 4.96737 1.43957 4.97833 1.43346 4.98921C1.33127 5.15493 1.23307 5.32447 1.14007 5.49738C0.190465 7.2671 -0.171791 9.24445 0.0753614 11.1977C0.0759248 11.2021 0.0764449 11.2063 0.0768349 11.2107C0.0772249 11.2138 0.0779183 11.2171 0.0786551 11.2203C0.145828 11.7421 0.256164 12.2622 0.411095 12.7759C0.817945 14.1248 1.49682 15.3377 2.42875 16.3811C2.71143 16.6975 3.19733 16.7248 3.51395 16.4421C3.8304 16.1593 3.85801 15.6733 3.5751 15.3569C3.10988 14.8363 2.72054 14.2645 2.4089 13.6484C2.40556 13.6408 2.40261 13.6331 2.39897 13.6258C2.32569 13.4804 2.25605 13.3315 2.19156 13.1823C2.19121 13.1812 2.19082 13.1805 2.1903 13.1795C2.07295 12.905 1.97063 12.6225 1.88291 12.3321C0.875627 8.99232 2.16023 5.49751 4.82603 3.54353C4.86547 3.51484 4.90486 3.48589 4.94469 3.45806C5.62907 2.97537 6.40099 2.59262 7.24581 2.33788C8.096 2.08159 8.95576 1.97394 9.79781 1.99916C9.81141 1.99977 9.82463 2.00016 9.83811 2.00055C9.88951 2.00211 9.94073 2.00484 9.99187 2.0077C10.0125 2.00878 10.0331 2.00991 10.0538 2.01121C12.6794 2.17546 15.1006 3.63375 16.4599 5.92478C16.4606 5.92608 16.4611 5.92755 16.462 5.92885C16.4822 5.96287 16.5019 5.99685 16.5216 6.03126C16.524 6.03511 16.5265 6.03854 16.5288 6.04248C16.7888 6.49852 17.0076 6.98654 17.1778 7.50299L16.1678 7.81701C15.8873 7.90416 15.8597 8.10598 16.1059 8.26555L18.3039 9.68926C18.5503 9.84896 18.8442 9.75752 18.9566 9.48662L19.9608 7.06753C20.073 6.79642 19.936 6.64573 19.6557 6.73284Z" fill="#747474"/>
<path d="M6.72975 10.0214C5.98903 10.5701 5.4838 11.0461 5.21451 11.4493C4.94547 11.8525 4.78408 12.2829 4.73108 12.7406H9.36535V11.4815H6.95333C7.09495 11.3423 7.21816 11.23 7.32312 11.1442C7.42813 11.0579 7.63589 10.9077 7.94696 10.6927C8.47022 10.3236 8.83121 9.98476 9.02974 9.6762C9.2281 9.3679 9.32738 9.04426 9.32738 8.70545C9.32738 8.38696 9.24084 8.09929 9.06766 7.84252C8.89436 7.58601 8.65657 7.39567 8.3545 7.27177C8.05249 7.14804 7.62956 7.08594 7.08589 7.08594C6.56524 7.08594 6.15765 7.15116 5.86296 7.28156C5.56861 7.41175 5.34027 7.59875 5.17858 7.84252C5.01671 8.08677 4.9056 8.42614 4.8448 8.86081L6.39211 8.98593C6.43506 8.67264 6.51922 8.45383 6.64424 8.33002C6.76953 8.20612 6.93044 8.1441 7.12793 8.1441C7.31744 8.1441 7.47489 8.20426 7.59996 8.32439C7.72503 8.44426 7.7877 8.58913 7.7877 8.75862C7.7877 8.91546 7.72451 9.08097 7.59801 9.25553C7.4716 9.42992 7.1821 9.68535 6.72975 10.0214Z" fill="#747474"/>
<path d="M14.0262 12.7406V11.7014H14.7239V10.5028H14.0262V7.08594H12.6799L9.86597 10.431V11.7014H12.6799V12.7406H14.0262ZM11.1932 10.5028L12.6799 8.75347V10.5028H11.1932Z" fill="#747474"/>
</g>
<defs>
<clipPath id="clip0_494_32882">
<rect width="20" height="20" fill="white"/>
</clipPath>
</defs>
</svg>
