<svg width="24" height="24" viewBox="0 0 24 24" fill="none" xmlns="http://www.w3.org/2000/svg">
<g clip-path="url(#clip0_103_615)">
<path d="M8 15H3.5C2.83712 14.9995 2.20154 14.7359 1.73281 14.2672C1.26409 13.7985 1.00053 13.1629 0.999997 12.5V3.5C1.00053 2.83712 1.26409 2.20154 1.73281 1.73282C2.20154 1.26409 2.83712 1.00053 3.5 1H12.5C13.1629 1.00053 13.7985 1.26409 14.2672 1.73282C14.7359 2.20154 14.9995 2.83712 15 3.5V8H14V3.5C13.9995 3.10234 13.8413 2.72111 13.5601 2.43992C13.2789 2.15873 12.8977 2.00053 12.5 2H3.5C3.10233 2.00053 2.72111 2.15873 2.43992 2.43992C2.15873 2.72111 2.00053 3.10234 2 3.5V12.5C2.00053 12.8977 2.15873 13.2789 2.43992 13.5601C2.72111 13.8413 3.10233 13.9995 3.5 14H8V15ZM7.962 10.189C6.85063 11.0519 5.56601 11.6645 4.196 11.985L3.954 11.015C5.14224 10.737 6.25982 10.2153 7.236 9.483C6.05243 8.23555 5.23943 6.68329 4.888 5H4V4H7.279L6.735 3.456L7.442 2.749L8.692 4H12V5H11.086C10.8376 6.11872 10.3956 7.18544 9.77999 8.152C8.94492 8.58595 8.29754 9.31052 7.96 10.189H7.962ZM7.994 8.806C9.01188 7.74613 9.72493 6.43125 10.058 5H5.922C6.25795 6.43187 6.97373 7.74667 7.994 8.806ZM23 20.447V11.553C23.0037 11.2198 22.9414 10.8892 22.8167 10.5802C22.6921 10.2712 22.5075 9.98994 22.2736 9.75262C22.0397 9.5153 21.7612 9.32661 21.454 9.19744C21.1469 9.06827 20.8172 9.00117 20.484 9H11.553C10.8761 9.00079 10.2272 9.27003 9.74863 9.74863C9.27002 10.2272 9.00079 10.8761 9 11.553V20.447C9.00079 21.1239 9.27002 21.7728 9.74863 22.2514C10.2272 22.73 10.8761 22.9992 11.553 23H20.447C21.1238 22.9992 21.7728 22.73 22.2514 22.2514C22.73 21.7728 22.9992 21.1239 23 20.447ZM20.484 10C20.886 10.0003 21.2714 10.1601 21.5557 10.4443C21.8399 10.7286 21.9997 11.114 22 11.516V20.484C21.9997 20.886 21.8399 21.2714 21.5557 21.5557C21.2714 21.8399 20.886 21.9997 20.484 22H11.516C11.114 21.9997 10.7286 21.8399 10.4443 21.5557C10.1601 21.2714 10.0003 20.886 10 20.484V11.516C10.0003 11.114 10.1601 10.7286 10.4443 10.4443C10.7286 10.1601 11.114 10.0003 11.516 10H20.484ZM18.398 18H13.602L12.443 20.23L11.557 19.77L16 11.215L20.443 19.77L19.557 20.23L18.398 18ZM17.878 17L16 13.385L14.122 17H17.878ZM6 22.01C5.46981 22.0092 4.96156 21.7982 4.58666 21.4233C4.21176 21.0484 4.00079 20.5402 4 20.01V17.707L5.646 19.353L6.353 18.646L3.506 15.8L0.658997 18.646L1.366 19.353L3 17.72V20.012C3.00079 20.8074 3.31712 21.57 3.87955 22.1324C4.44199 22.6949 5.20459 23.0112 6 23.012H8.058V22.012L6 22.01ZM22.646 4.647L21 6.293V4C20.9992 3.20459 20.6829 2.44199 20.1204 1.87956C19.558 1.31712 18.7954 1.00079 18 1H16V2H18C18.5302 2.00079 19.0384 2.21176 19.4133 2.58666C19.7882 2.96156 19.9992 3.46981 20 4V6.281L18.366 4.646L17.659 5.353L20.506 8.201L23.354 5.353L22.646 4.647Z" fill="black"/>
</g>
<defs>
<clipPath id="clip0_103_615">
<rect width="24" height="24" fill="white"/>
</clipPath>
</defs>
</svg>
