<svg width="24" height="24" viewBox="0 0 24 24" fill="none" xmlns="http://www.w3.org/2000/svg">
    <path d="M12.5536 8.01753C11.9751 7.43684 11.2706 6.97803 10.4875 6.68019C10.1177 7.09109 9.86597 7.59134 9.76083 8.13378C9.73224 8.28003 9.71508 8.42666 9.70721 8.57258C9.77157 8.5947 9.83452 8.61833 9.89607 8.64514C10.5783 8.93441 11.1641 9.41862 11.5746 10.0287C11.9042 10.5164 12.1231 11.081 12.1968 11.6929C12.2161 11.8456 12.2254 12.0012 12.2254 12.1599C12.2254 12.6899 12.1188 13.1891 11.9265 13.6446C11.6876 14.2064 11.3178 14.7035 10.8537 15.09C10.755 15.1733 10.6513 15.2506 10.544 15.3232C9.93399 15.7351 9.20593 15.974 8.41135 15.974C7.88283 15.974 7.38436 15.8671 6.92808 15.675C6.24436 15.3858 5.66077 14.9012 5.24883 14.2915C4.8383 13.6825 4.59943 12.9527 4.59943 12.1599C4.59943 11.6303 4.70457 11.1319 4.89765 10.6752C5.15729 10.0623 5.57565 9.52737 6.1013 9.12795C6.09127 8.98953 6.08696 8.85116 6.08696 8.71278C6.08696 8.00192 6.19852 7.30817 6.41096 6.65234C5.59777 6.94808 4.8683 7.41828 4.27041 8.01763C3.21052 9.07433 2.55254 10.5451 2.55469 12.16C2.55258 13.7752 3.21057 15.246 4.27041 16.303C5.15293 17.1869 6.32297 17.7888 7.6246 17.9636V19.7895H4.91049V21.3621H7.6246V23.9997H9.198V21.3621H11.9143V19.7894H9.198V17.9636C10.5004 17.7887 11.6718 17.1869 12.5536 16.303C12.8483 16.0083 13.1108 15.6829 13.3389 15.3307C13.9289 14.417 14.2715 13.3253 14.2701 12.1599C14.2701 11.8864 14.2508 11.6157 14.215 11.3518C14.0355 10.0573 13.4333 8.89508 12.5536 8.01753Z" fill="#00095F"/>
    <path d="M16.3598 0V1.5727H18.7599L16.2797 4.05295C15.2355 3.25697 13.9803 2.85464 12.7316 2.85577C11.2362 2.85464 9.73075 3.42858 8.5893 4.57219C7.77255 5.38678 7.24764 6.38691 7.01303 7.43719C7.01017 7.45003 7.00877 7.46292 7.00516 7.47366C6.99588 7.51444 6.988 7.55555 6.98018 7.59455C6.96583 7.67034 6.95299 7.74581 6.94085 7.82123C6.93297 7.86666 6.92655 7.91423 6.92153 7.95961C6.91225 8.02866 6.90438 8.09944 6.89866 8.17022C6.8951 8.211 6.89078 8.25216 6.88867 8.29289C6.88727 8.31328 6.88582 8.334 6.88441 8.35584C6.8808 8.39695 6.87939 8.43914 6.87794 8.47988C6.87508 8.55713 6.87292 8.63578 6.87292 8.71303C6.87292 8.77275 6.87508 8.83247 6.87653 8.89359C6.87939 8.95369 6.883 9.01303 6.88582 9.07458L6.8951 9.20686C6.8951 9.2287 6.89866 9.25083 6.90007 9.27445C7.02597 10.581 7.59021 11.8584 8.5893 12.8557C9.19436 13.4611 9.90236 13.9074 10.6555 14.1924C10.8835 13.941 11.0695 13.65 11.2033 13.3367C11.3413 13.0081 11.42 12.6605 11.4357 12.3018C10.9244 12.118 10.4466 11.8223 10.0347 11.4104C9.66208 11.036 9.38318 10.608 9.19793 10.1488C9.06564 9.82439 8.98052 9.48473 8.9433 9.14213C8.91902 8.93934 8.9133 8.73483 8.92258 8.53209C8.92544 8.48166 8.929 8.43305 8.93186 8.38406C8.93542 8.34797 8.93828 8.31183 8.94471 8.27536C8.94471 8.26139 8.94757 8.24747 8.94902 8.23317C8.95258 8.19848 8.95689 8.16239 8.96332 8.12803C8.97119 8.08083 8.97907 8.03184 8.98835 7.98502C9.02978 7.7708 9.08918 7.56019 9.16783 7.35563C9.18218 7.31808 9.19642 7.28198 9.21363 7.24406C9.22938 7.20473 9.24649 7.16541 9.2651 7.12608C9.28085 7.08675 9.29946 7.04737 9.32018 7.0095C9.33733 6.97055 9.35805 6.93263 9.38027 6.89508C9.48396 6.7027 9.6063 6.5175 9.74646 6.34116C9.77505 6.30506 9.8051 6.26897 9.83444 6.23423C9.8995 6.16022 9.96532 6.08798 10.0361 6.0172C10.124 5.92922 10.2135 5.84733 10.3064 5.77186C10.6111 5.51869 10.9451 5.32022 11.2955 5.17898C11.9828 4.90045 12.7394 4.82963 13.4611 4.96978C14.1834 5.10994 14.8671 5.45541 15.4293 6.01716C15.8033 6.39155 16.0801 6.81956 16.2653 7.27838C16.5457 7.96566 16.6165 8.72086 16.4763 9.44287C16.3347 10.1645 15.9885 10.8486 15.4293 11.4104C15.3063 11.533 15.1775 11.6464 15.0438 11.7468C15.0516 11.8852 15.0559 12.0236 15.0559 12.1602C15.0581 12.865 14.9458 13.5598 14.7305 14.2206C15.5137 13.9374 16.2481 13.4814 16.8739 12.8557C18.0161 11.7153 18.5918 10.2099 18.5904 8.71298C18.5918 7.46391 18.1892 6.21094 17.3917 5.16497L19.872 2.68472V5.08594H21.4446V0H16.3598Z" fill="#00095F"/>
</svg>
