<svg width="24" height="24" viewBox="0 0 24 24" fill="none" xmlns="http://www.w3.org/2000/svg">
    <g clip-path="url(#clip0_605_21811)">
        <path d="M12.2665 18.6885H12.0999L11.9667 18.7884L5.77994 23.4253L5.77989 23.4254C5.68902 23.4935 5.56744 23.5045 5.46576 23.4536C5.3642 23.4028 5.3 23.299 5.3 23.1853V19.1885V18.6885H4.8H2.4C1.34966 18.6885 0.5 17.8397 0.5 16.7896V2.39893C0.5 1.34886 1.34967 0.5 2.4 0.5H21.6C22.6503 0.5 23.5 1.34886 23.5 2.39893V16.7896C23.5 17.8396 22.6503 18.6885 21.6 18.6885H12.2665ZM6.4 5.89581H5.9V6.39581V7.99581V8.49581H6.4H17.6H18.1V7.99581V6.39581V5.89581H17.6H6.4ZM6.4 10.6927H5.9V11.1927V12.7927V13.2927H6.4H14.4H14.9V12.7927V11.1927V10.6927H14.4H6.4Z" stroke="#00095F"/>
    </g>
    <defs>
        <clipPath id="clip0_605_21811">
            <rect width="24" height="24" fill="white"/>
        </clipPath>
    </defs>
</svg>
