<svg width="20" height="20" viewBox="0 0 20 20" fill="none" xmlns="http://www.w3.org/2000/svg">
<g clip-path="url(#clip0_494_32853)">
<path d="M11.6668 15C11.383 15 11.1012 15.0481 10.8335 15.1425V15C10.8335 14.7789 10.9213 14.567 11.0776 14.4107C11.2339 14.2544 11.4458 14.1666 11.6668 14.1666C11.7852 14.1659 11.9024 14.1907 12.0103 14.2395C12.1181 14.2882 12.2142 14.3598 12.2918 14.4491C12.3633 14.5342 12.451 14.6042 12.5499 14.6549C12.6488 14.7056 12.7568 14.736 12.8676 14.7443C12.9785 14.7527 13.0898 14.7387 13.1952 14.7034C13.3005 14.668 13.3977 14.612 13.4811 14.5385C13.5645 14.465 13.6323 14.3756 13.6806 14.2756C13.7289 14.1755 13.7567 14.0668 13.7624 13.9558C13.768 13.8448 13.7514 13.7338 13.7136 13.6293C13.6757 13.5249 13.6173 13.429 13.5418 13.3475C13.206 12.9667 12.7622 12.6972 12.2695 12.5748C11.7768 12.4524 11.2584 12.4829 10.7835 12.6623C10.3085 12.8417 9.89944 13.1615 9.61065 13.5791C9.32187 13.9966 9.16707 14.4922 9.16685 15V17.5C9.16703 18.0427 9.34385 18.5707 9.6706 19.0041C9.99734 19.4375 10.4563 19.7528 10.978 19.9024C11.4998 20.0519 12.0561 20.0276 12.5628 19.8331C13.0695 19.6386 13.4992 19.2844 13.7868 18.8241C14.0189 18.4505 14.1501 18.0231 14.1678 17.5837C14.1855 17.1442 14.089 16.7077 13.8877 16.3166C13.6766 15.9123 13.3569 15.5749 12.9646 15.3423C12.5723 15.1097 12.1229 14.9911 11.6668 15ZM12.3743 17.9408C12.2976 18.0639 12.19 18.1648 12.0623 18.2336C11.9346 18.3024 11.7911 18.3367 11.6461 18.333C11.5011 18.3294 11.3595 18.2879 11.2354 18.2127C11.1113 18.1376 11.009 18.0313 10.9386 17.9045C10.8682 17.7777 10.8321 17.6346 10.8339 17.4896C10.8357 17.3445 10.8753 17.2024 10.9489 17.0774C11.0225 16.9524 11.1274 16.8487 11.2533 16.7767C11.3792 16.7046 11.5218 16.6667 11.6668 16.6666C11.8102 16.6588 11.9529 16.6899 12.08 16.7567C12.207 16.8234 12.3137 16.9233 12.3885 17.0458C12.4654 17.1829 12.5046 17.338 12.5021 17.4952C12.4996 17.6524 12.4556 17.8062 12.3743 17.9408ZM17.5002 12.5C16.8371 12.5 16.2013 12.7633 15.7324 13.2322C15.2636 13.701 15.0002 14.3369 15.0002 15V17.5C15.0002 18.163 15.2636 18.7989 15.7324 19.2677C16.2013 19.7366 16.8371 20 17.5002 20C18.1632 20 18.7991 19.7366 19.2679 19.2677C19.7368 18.7989 20.0002 18.163 20.0002 17.5V15C20.0002 14.3369 19.7368 13.701 19.2679 13.2322C18.7991 12.7633 18.1632 12.5 17.5002 12.5ZM18.3335 17.5C18.3335 17.721 18.2457 17.9329 18.0894 18.0892C17.9332 18.2455 17.7212 18.3333 17.5002 18.3333C17.2792 18.3333 17.0672 18.2455 16.9109 18.0892C16.7546 17.9329 16.6668 17.721 16.6668 17.5V15C16.6668 14.7789 16.7546 14.567 16.9109 14.4107C17.0672 14.2544 17.2792 14.1666 17.5002 14.1666C17.7212 14.1666 17.9332 14.2544 18.0894 14.4107C18.2457 14.567 18.3335 14.7789 18.3335 15V17.5ZM10.0002 10.8333H6.66685C6.44583 10.8333 6.23387 10.7455 6.07759 10.5892C5.92131 10.4329 5.83351 10.221 5.83351 9.99996C5.83351 9.77894 5.92131 9.56698 6.07759 9.4107C6.23387 9.25442 6.44583 9.16663 6.66685 9.16663H9.16685V5.83329C9.16685 5.61228 9.25464 5.40032 9.41092 5.24404C9.5672 5.08776 9.77917 4.99996 10.0002 4.99996C10.2212 4.99996 10.4332 5.08776 10.5894 5.24404C10.7457 5.40032 10.8335 5.61228 10.8335 5.83329V9.99996C10.8335 10.221 10.7457 10.4329 10.5894 10.5892C10.4332 10.7455 10.2212 10.8333 10.0002 10.8333ZM20.0002 2.49996V4.99996C20.0002 5.663 19.7368 6.29888 19.2679 6.76773C18.7991 7.23657 18.1632 7.49996 17.5002 7.49996H15.0002C14.7792 7.49996 14.5672 7.41216 14.4109 7.25588C14.2546 7.0996 14.1668 6.88764 14.1668 6.66663C14.1668 6.44561 14.2546 6.23365 14.4109 6.07737C14.5672 5.92109 14.7792 5.83329 15.0002 5.83329H17.1977C16.5309 4.68257 15.5981 3.70832 14.4775 2.99212C13.3568 2.27592 12.0809 1.83859 10.7566 1.71677C9.4322 1.59494 8.09791 1.79214 6.86542 2.29188C5.63292 2.79162 4.53807 3.57934 3.67253 4.5891C2.80699 5.59887 2.19594 6.80129 1.89054 8.0957C1.58513 9.39012 1.59427 10.7389 1.91717 12.029C2.24007 13.3192 2.86734 14.5132 3.74648 15.5112C4.62562 16.5091 5.73103 17.282 6.97018 17.765C7.17617 17.8454 7.34175 18.0044 7.43052 18.2069C7.51929 18.4095 7.52396 18.639 7.44351 18.845C7.36306 19.0509 7.20408 19.2165 7.00154 19.3053C6.79901 19.3941 6.5695 19.3987 6.36351 19.3183C4.89906 18.7471 3.58989 17.8386 2.54225 16.6667C1.4946 15.4948 0.737971 14.0924 0.333763 12.5734C-0.0704447 11.0543 -0.11085 9.46136 0.215826 7.92376C0.542501 6.38616 1.22706 4.94722 2.21395 3.72371C3.20084 2.5002 4.46226 1.52657 5.89587 0.881829C7.32948 0.237086 8.8949 -0.0606106 10.4651 0.0128928C12.0353 0.0863962 13.5661 0.529029 14.9332 1.30488C16.3003 2.08073 17.4652 3.16794 18.3335 4.47829V2.49996C18.3335 2.27895 18.4213 2.06698 18.5776 1.9107C18.7339 1.75442 18.9458 1.66663 19.1668 1.66663C19.3879 1.66663 19.5998 1.75442 19.7561 1.9107C19.9124 2.06698 20.0002 2.27895 20.0002 2.49996Z" fill="#747474"/>
</g>
<defs>
<clipPath id="clip0_494_32853">
<rect width="20" height="20" fill="white"/>
</clipPath>
</defs>
</svg>
