<svg width="20" height="20" viewBox="0 0 20 20" fill="none" xmlns="http://www.w3.org/2000/svg">
<g clip-path="url(#clip0_494_32803)">
<path d="M14.9047 4.2218C15.6731 4.2218 16.2925 3.60515 16.2925 2.83743V1.38712C16.2925 0.618026 15.6731 0 14.9047 0C14.1398 0 13.519 0.618026 13.519 1.38712V2.83811C13.5197 3.60515 14.1398 4.2218 14.9047 4.2218Z" fill="#747474"/>
<path d="M19.8352 2.40163H17.041V3.10412C17.041 4.27081 16.0955 5.21777 14.9288 5.21777C13.7614 5.21777 12.8179 4.27081 12.8179 3.10412V2.40163H7.1849V3.10412C7.1849 4.27081 6.23932 5.21777 5.07331 5.21777C3.90661 5.21777 2.9631 4.27081 2.9631 3.10412V2.40163L0.144897 2.36523V19.9982L1.55262 19.9996H18.4481L19.8551 19.9941L19.8352 2.40163ZM18.4474 18.5953H1.55262V7.32935H18.4481L18.4474 18.5953Z" fill="#747474"/>
<path d="M5.5579 12.3586C5.8775 12.3586 6.13443 12.4573 6.3287 12.6547C6.5261 12.849 6.6248 13.1216 6.6248 13.4725V15H5.9668V13.5618C5.9668 13.3581 5.9151 13.203 5.8117 13.0965C5.7083 12.9868 5.5673 12.932 5.3887 12.932C5.2101 12.932 5.06753 12.9868 4.961 13.0965C4.8576 13.203 4.8059 13.3581 4.8059 13.5618V15H4.1479V13.5618C4.1479 13.3581 4.0962 13.203 3.9928 13.0965C3.8894 12.9868 3.7484 12.932 3.5698 12.932C3.38807 12.932 3.24393 12.9868 3.1374 13.0965C3.034 13.203 2.9823 13.3581 2.9823 13.5618V15H2.3243V12.3962H2.9823V12.7111C3.0669 12.6014 3.175 12.5153 3.3066 12.4526C3.44133 12.3899 3.5886 12.3586 3.7484 12.3586C3.95207 12.3586 4.1338 12.4025 4.2936 12.4902C4.4534 12.5748 4.57717 12.697 4.6649 12.8568C4.7495 12.7064 4.8717 12.5858 5.0315 12.4949C5.19443 12.404 5.3699 12.3586 5.5579 12.3586ZM8.4054 15.0423C8.15474 15.0423 7.92914 14.9875 7.7286 14.8778C7.52807 14.765 7.36984 14.6068 7.2539 14.4031C7.1411 14.1994 7.0847 13.9644 7.0847 13.6981C7.0847 13.4318 7.14267 13.1968 7.2586 12.9931C7.37767 12.7894 7.53904 12.6328 7.7427 12.5231C7.94637 12.4103 8.17354 12.3539 8.4242 12.3539C8.67487 12.3539 8.90204 12.4103 9.1057 12.5231C9.30937 12.6328 9.46917 12.7894 9.5851 12.9931C9.70417 13.1968 9.7637 13.4318 9.7637 13.6981C9.7637 13.9644 9.7026 14.1994 9.5804 14.4031C9.46134 14.6068 9.2984 14.765 9.0916 14.8778C8.88794 14.9875 8.6592 15.0423 8.4054 15.0423ZM8.4054 14.4689C8.52447 14.4689 8.6357 14.4407 8.7391 14.3843C8.84564 14.3248 8.93024 14.237 8.9929 14.1211C9.05557 14.0052 9.0869 13.8642 9.0869 13.6981C9.0869 13.4506 9.0211 13.261 8.8895 13.1294C8.76104 12.9947 8.6028 12.9273 8.4148 12.9273C8.2268 12.9273 8.06857 12.9947 7.9401 13.1294C7.81477 13.261 7.7521 13.4506 7.7521 13.6981C7.7521 13.9456 7.8132 14.1368 7.9354 14.2715C8.06074 14.4031 8.2174 14.4689 8.4054 14.4689ZM11.6893 12.3586C11.9995 12.3586 12.2501 12.4573 12.4413 12.6547C12.6324 12.849 12.728 13.1216 12.728 13.4725V15H12.07V13.5618C12.07 13.355 12.0183 13.1968 11.9149 13.0871C11.8115 12.9743 11.6705 12.9179 11.4919 12.9179C11.3101 12.9179 11.166 12.9743 11.0595 13.0871C10.9561 13.1968 10.9044 13.355 10.9044 13.5618V15H10.2464V12.3962H10.9044V12.7205C10.9921 12.6077 11.1033 12.52 11.2381 12.4573C11.3759 12.3915 11.5263 12.3586 11.6893 12.3586ZM14.1198 12.9367V14.1963C14.1198 14.284 14.1402 14.3483 14.1809 14.389C14.2248 14.4266 14.2968 14.4454 14.3971 14.4454H14.7026V15H14.289C13.7344 15 13.4571 14.7305 13.4571 14.1916V12.9367H13.1469V12.3962H13.4571V11.7523H14.1198V12.3962H14.7026V12.9367H14.1198ZM16.6423 12.3586C16.8397 12.3586 17.0151 12.4025 17.1687 12.4902C17.3222 12.5748 17.4413 12.7017 17.5259 12.8709C17.6136 13.037 17.6575 13.2375 17.6575 13.4725V15H16.9995V13.5618C16.9995 13.355 16.9478 13.1968 16.8444 13.0871C16.741 12.9743 16.6 12.9179 16.4214 12.9179C16.2396 12.9179 16.0955 12.9743 15.989 13.0871C15.8856 13.1968 15.8339 13.355 15.8339 13.5618V15H15.1759V11.522H15.8339V12.7205C15.9185 12.6077 16.0313 12.52 16.1723 12.4573C16.3133 12.3915 16.4699 12.3586 16.6423 12.3586Z" fill="#747474"/>
<path d="M5.05065 4.2218C5.817 4.2218 6.43572 3.60515 6.43572 2.83743V1.38712C6.43503 0.618026 5.817 0 5.05065 0C4.28499 0 3.66422 0.618026 3.66422 1.38712V2.83811C3.66422 3.60515 4.28499 4.2218 5.05065 4.2218Z" fill="#747474"/>
</g>
<defs>
<clipPath id="clip0_494_32803">
<rect width="20" height="20" fill="white"/>
</clipPath>
</defs>
</svg>
