<svg width="24" height="24" viewBox="0 0 24 24" fill="none" xmlns="http://www.w3.org/2000/svg">
    <g clip-path="url(#clip0_606_35120)">
        <path d="M15.8507 0H3.41271C3.06642 0 2.78571 0.280714 2.78571 0.825429V23.5714C2.78571 23.7193 3.06642 24 3.41271 24H20.5873C20.9336 24 21.2143 23.7193 21.2143 23.5714V5.562C21.2143 5.26371 21.1744 5.16771 21.1041 5.097L16.1173 0.110143C16.0466 0.0398571 15.9506 0 15.8507 0Z" fill="#E9E9E0"/>
        <path d="M16.0714 0.0644531V5.1426H21.1496L16.0714 0.0644531Z" fill="#D9D7CA"/>
        <path d="M8.36315 14.2821C8.21401 14.2821 8.07087 14.2337 7.94873 14.1424C7.50258 13.8077 7.44258 13.4352 7.47087 13.1815C7.54887 12.4838 8.41158 11.7535 10.0359 11.0095C10.6804 9.59694 11.2937 7.85651 11.6593 6.40237C11.2316 5.47151 10.8159 4.26379 11.1189 3.55537C11.2252 3.30722 11.3576 3.11694 11.6049 3.03465C11.7026 3.00208 11.9494 2.96094 12.0403 2.96094C12.2563 2.96094 12.4462 3.23908 12.5807 3.41051C12.7072 3.57165 12.9939 3.91322 12.4209 6.32565C12.9986 7.51879 13.8172 8.73422 14.6014 9.56651C15.1633 9.46494 15.6467 9.41308 16.0406 9.41308C16.7117 9.41308 17.1184 9.56951 17.2843 9.8918C17.4214 10.1584 17.3653 10.4699 17.1172 10.8175C16.8784 11.1514 16.5493 11.3279 16.1657 11.3279C15.6446 11.3279 15.0377 10.9988 14.361 10.3487C13.1452 10.6028 11.7253 11.0562 10.5776 11.5581C10.2193 12.3184 9.87601 12.9308 9.5563 13.3799C9.11701 13.9949 8.73815 14.2821 8.36315 14.2821ZM9.50401 12.0852C8.58815 12.5999 8.21487 13.0229 8.18787 13.2612C8.18358 13.3007 8.17201 13.4044 8.37258 13.5578C8.43644 13.5377 8.8093 13.3675 9.50401 12.0852ZM15.3484 10.1815C15.6977 10.4502 15.783 10.5861 16.0114 10.5861C16.1117 10.5861 16.3976 10.5818 16.53 10.3971C16.5939 10.3075 16.6187 10.2501 16.6286 10.2192C16.5759 10.1914 16.506 10.1348 16.125 10.1348C15.9086 10.1352 15.6364 10.1447 15.3484 10.1815ZM12.147 7.36065C11.8406 8.42094 11.436 9.56565 11.001 10.6024C11.8967 10.2548 12.8704 9.95137 13.785 9.73665C13.2064 9.06465 12.6283 8.22551 12.147 7.36065ZM11.8869 3.73408C11.8449 3.74822 11.3169 4.48708 11.928 5.11237C12.3347 4.20594 11.9053 3.72808 11.8869 3.73408Z" fill="#CC4B4C"/>
        <path d="M20.5873 24.0006H3.41271C3.06642 24.0006 2.78571 23.7198 2.78571 23.3736V16.7148H21.2143V23.3736C21.2143 23.7198 20.9336 24.0006 20.5873 24.0006Z" fill="#CC4B4C"/>
        <path d="M7.45072 22.7148H6.74744V18.3965H7.98944C8.17287 18.3965 8.35458 18.4256 8.53415 18.4843C8.71372 18.5431 8.87487 18.6309 9.01758 18.7479C9.16029 18.8649 9.27558 19.0068 9.36344 19.1726C9.45129 19.3385 9.49544 19.5249 9.49544 19.7323C9.49544 19.9513 9.45815 20.1493 9.38401 20.3272C9.30986 20.5051 9.20615 20.6546 9.07329 20.7755C8.94044 20.8963 8.78015 20.9902 8.59286 21.0566C8.40558 21.1231 8.19815 21.1561 7.97186 21.1561H7.45029L7.45072 22.7148ZM7.45072 18.9296V20.6405H8.09529C8.18101 20.6405 8.26586 20.6259 8.35029 20.5963C8.43429 20.5672 8.51144 20.5192 8.58172 20.4528C8.65201 20.3863 8.70858 20.2938 8.75144 20.1746C8.79429 20.0555 8.81572 19.9081 8.81572 19.7323C8.81572 19.6621 8.80587 19.5806 8.78658 19.4893C8.76687 19.3976 8.72701 19.3098 8.66658 19.2258C8.60572 19.1418 8.52087 19.0715 8.41158 19.0149C8.30229 18.9583 8.15744 18.9301 7.97786 18.9301L7.45072 18.9296Z" fill="white"/>
        <path d="M13.8081 20.4356C13.8081 20.7909 13.77 21.0948 13.6937 21.3468C13.6174 21.5988 13.521 21.8096 13.4036 21.9798C13.2861 22.1499 13.1546 22.2836 13.008 22.3813C12.8614 22.4791 12.72 22.5519 12.5833 22.6012C12.4466 22.6501 12.3214 22.6813 12.2083 22.6951C12.0951 22.7079 12.0111 22.7148 11.9563 22.7148H10.3217V18.3965H11.6224C11.9859 18.3965 12.3051 18.4543 12.5803 18.5692C12.8554 18.6841 13.0843 18.8379 13.266 19.0291C13.4477 19.2202 13.5831 19.4383 13.6731 19.6822C13.7631 19.9265 13.8081 20.1776 13.8081 20.4356ZM11.7223 22.1992C12.1989 22.1992 12.5426 22.0471 12.7534 21.7423C12.9643 21.4376 13.0697 20.9962 13.0697 20.4181C13.0697 20.2385 13.0483 20.0606 13.0054 19.8849C12.9621 19.7092 12.8794 19.5502 12.7564 19.4075C12.6334 19.2648 12.4663 19.1495 12.2554 19.0616C12.0446 18.9738 11.7711 18.9296 11.4351 18.9296H11.025V22.1992H11.7223Z" fill="white"/>
        <path d="M15.5426 18.9296V20.2891H17.3473V20.7695H15.5426V22.7148H14.8277V18.3965H17.5286V18.9296H15.5426Z" fill="white"/>
    </g>
    <defs>
        <clipPath id="clip0_606_35120">
            <rect width="24" height="24" fill="white"/>
        </clipPath>
    </defs>
</svg>
