<svg width="60" height="60" viewBox="0 0 60 60" fill="none" xmlns="http://www.w3.org/2000/svg">
    <path d="M41.75 47.4504H18.25C17.2 47.4504 16.025 46.6254 15.675 45.6254L5.32501 16.6754C3.85001 12.5254 5.57501 11.2504 9.12501 13.8004L18.875 20.7754C20.5 21.9004 22.35 21.3254 23.05 19.5004L27.45 7.77539C28.85 4.02539 31.175 4.02539 32.575 7.77539L36.975 19.5004C37.675 21.3254 39.525 21.9004 41.125 20.7754L50.275 14.2504C54.175 11.4504 56.05 12.8754 54.45 17.4004L44.35 45.6754C43.975 46.6254 42.8 47.4504 41.75 47.4504Z" stroke="#00095F" stroke-width="4" stroke-linecap="round" stroke-linejoin="round"/>
    <path d="M16.25 55H43.75" stroke="#00095F" stroke-width="4" stroke-linecap="round" stroke-linejoin="round"/>
</svg>
