<svg width="28" height="34" viewBox="0 0 28 34" fill="none" xmlns="http://www.w3.org/2000/svg">
<path fill-rule="evenodd" clip-rule="evenodd" d="M21.5 8.77183C21.5 14.0968 18.2833 18.6668 14 18.6668C9.71333 18.6668 6.5 14.0968 6.5 8.77016C6.5 3.44683 9.26666 0.333496 14 0.333496C18.7333 0.333496 21.5 3.44516 21.5 8.77183ZM0.836664 30.5702C1.47833 31.3335 4.24166 33.6668 14 33.6668C23.7583 33.6668 26.52 31.3335 27.1633 30.5718C27.223 30.4986 27.2671 30.414 27.2929 30.3231C27.3187 30.2323 27.3256 30.1371 27.3133 30.0435C27.1667 28.5735 25.8433 22.0002 14 22.0002C2.15666 22.0002 0.83333 28.5735 0.684997 30.0435C0.672927 30.1372 0.680154 30.2325 0.706236 30.3233C0.732318 30.4142 0.776703 30.4971 0.836664 30.5702Z" fill="#00095F"/>
</svg>
