<svg width="24" height="24" viewBox="0 0 24 24" fill="none" xmlns="http://www.w3.org/2000/svg">
    <path d="M1.5 5.30047V14.8405C1.5 15.8536 1.90246 16.8252 2.61885 17.5416C3.33524 18.258 4.30687 18.6605 5.32 18.6605H7.23V21.5205L13 18.6605H18.73C19.7431 18.6605 20.7148 18.258 21.4311 17.5416C22.1475 16.8252 22.55 15.8536 22.55 14.8405V5.30047C22.55 4.28734 22.1475 3.31571 21.4311 2.59932C20.7148 1.88293 19.7431 1.48047 18.73 1.48047H5.32C4.30687 1.48047 3.33524 1.88293 2.61885 2.59932C1.90246 3.31571 1.5 4.28734 1.5 5.30047Z" stroke="#747474" stroke-width="1.5" stroke-miterlimit="10"/>
    <path d="M12 12.0008V10.8608C11.9996 10.6099 12.0489 10.3615 12.145 10.1298C12.2411 9.89807 12.3822 9.6877 12.56 9.51078L13.35 8.72078C13.7073 8.3622 13.9086 7.87701 13.91 7.37078V7.20078C13.9074 6.69595 13.705 6.2127 13.347 5.85667C12.9891 5.50063 12.5048 5.30077 12 5.30078C11.4952 5.30077 11.0109 5.50063 10.6529 5.85667C10.295 6.2127 10.0926 6.69595 10.09 7.20078" stroke="#747474" stroke-width="1.5" stroke-miterlimit="10"/>
    <path d="M11.05 13.8906H12.95" stroke="#747474" stroke-width="1.5" stroke-miterlimit="10"/>
</svg>
