<svg width="24" height="24" viewBox="0 0 24 24" fill="none" xmlns="http://www.w3.org/2000/svg">
    <path d="M19.9839 8.14199H0.863521C0.498773 8.14199 0.203125 7.84581 0.203125 7.48107V3.2117C0.203125 2.84643 0.498773 2.55078 0.863521 2.55078H19.9839C20.3491 2.55078 20.6448 2.84643 20.6448 3.2117V7.48107C20.6448 7.84581 20.3491 8.14199 19.9839 8.14199ZM1.52444 6.82067H19.3237V3.8721H1.52444V6.82067Z" fill="#00095F"/>
    <path d="M4.71118 5.71258C4.34643 5.71258 4.05078 5.41693 4.05078 5.05219V1.43241C4.05078 1.06766 4.34643 0.771484 4.71118 0.771484C5.07645 0.771484 5.3721 1.06766 5.3721 1.43241V5.05219C5.3721 5.41693 5.07645 5.71258 4.71118 5.71258Z" fill="#00095F"/>
    <path d="M10.4245 5.71258C10.0592 5.71258 9.76355 5.41693 9.76355 5.05219V1.43241C9.76355 1.06766 10.0592 0.771484 10.4245 0.771484C10.7892 0.771484 11.0849 1.06766 11.0849 1.43241V5.05219C11.0849 5.41693 10.7892 5.71258 10.4245 5.71258Z" fill="#00095F"/>
    <path d="M16.1365 5.71258C15.7712 5.71258 15.4756 5.41693 15.4756 5.05219V1.43241C15.4756 1.06766 15.7712 0.771484 16.1365 0.771484C16.5013 0.771484 16.7969 1.06766 16.7969 1.43241V5.05219C16.7969 5.41693 16.501 5.71258 16.1365 5.71258Z" fill="#00095F"/>
    <path d="M5.99795 10.8633H3.99408V12.8666H5.99795V10.8633Z" fill="#00095F"/>
    <path d="M5.99795 16.5781H3.99408V18.5815H5.99795V16.5781Z" fill="#00095F"/>
    <path d="M17.3342 12.1176L17.3349 12.1171L20.0242 9.76931L20.0246 9.76898C20.0373 9.75786 20.0448 9.74173 20.0448 9.72416V7.48319C20.0448 7.4495 20.0175 7.42227 19.9839 7.42227H0.863521C0.830768 7.42227 0.803125 7.44919 0.803125 7.48319V22.1013C0.803125 22.1349 0.829833 22.1617 0.863521 22.1617H18.0615C19.1546 22.1617 20.0448 21.2714 20.0448 20.1773V13.7482C20.0448 13.7241 20.0306 13.7026 20.0085 13.693L20.0077 13.6926C19.9863 13.6833 19.9603 13.6881 19.944 13.7034L19.943 13.7043L17.2537 16.2198L17.2527 16.2208C17.2419 16.2309 17.2347 16.2458 17.2347 16.2638V18.3623V18.9623H16.6347H9.64304H9.04304V18.3623V11.085V10.485H9.64304H16.6347H17.2347V11.085V12.1119C17.2466 12.1168 17.2585 12.1219 17.2705 12.1273L17.2347 12.2058V12.5115M17.3342 12.1176L17.1778 12.3284L17.0947 12.5118L17.0216 12.6733M17.3342 12.1176C17.317 12.1327 17.2918 12.137 17.2692 12.1267L17.2347 12.203L17.3342 12.1176ZM17.2347 12.5115C17.2345 12.505 17.233 12.4826 17.2255 12.4508C17.2193 12.4244 17.2062 12.3801 17.1784 12.3293L17.0952 12.5118L17.0216 12.6733M17.2347 12.5115V12.5118C17.2347 12.5141 17.2348 12.5139 17.2347 12.5115ZM17.0216 12.6733C17.2579 12.7803 17.5346 12.7397 17.7295 12.5691L20.4188 10.2213C20.5625 10.096 20.6448 9.91484 20.6448 9.72416V7.48319C20.6448 7.11844 20.3491 6.82227 19.9839 6.82227H0.863521C0.498773 6.82227 0.203125 7.11844 0.203125 7.48319V22.1013C0.203125 22.4666 0.498773 22.7617 0.863521 22.7617H18.0615C19.4862 22.7617 20.6448 21.6026 20.6448 20.1773V13.7482C20.6448 13.485 20.4887 13.2471 20.2471 13.1424C20.0071 13.038 19.7251 13.0857 19.5331 13.2661L16.8438 15.7817C16.7099 15.9064 16.6347 16.081 16.6347 16.2638V17.7623V18.3623H16.0347H10.243H9.64304V17.7623V11.685V11.085H10.243H16.0347H16.6347V11.685V12.5118C16.6347 12.6623 16.6855 12.6562 16.7742 12.6457C16.8384 12.6381 16.9225 12.6281 17.0216 12.6733ZM7.6993 16.1383V16.1382C7.6993 15.4421 7.1345 14.8773 6.43838 14.8773H3.55363C2.85689 14.8773 2.29323 15.4427 2.29323 16.1382V19.0217C2.29323 19.718 2.8572 20.2826 3.55363 20.2826H6.43811C7.1339 20.2826 7.69901 19.7186 7.69904 19.0217C7.69904 19.0217 7.69904 19.0217 7.69904 19.0217L7.6993 16.1383ZM7.6993 10.4239V10.4238C7.6993 9.72689 7.13418 9.16292 6.43838 9.16292H3.55363C2.8572 9.16292 2.29323 9.72751 2.29323 10.4238V13.3078C2.29323 14.0039 2.85751 14.5682 3.55363 14.5682H6.43811C7.13359 14.5682 7.69901 14.0046 7.69904 13.3079C7.69904 13.3078 7.69904 13.3078 7.69904 13.3078L7.6993 10.4239Z" stroke="#00095F" stroke-width="1.2"/>
    <path d="M13.1382 16.7984C13.1099 16.7984 13.0809 16.7963 13.0522 16.7928C12.8647 16.7686 12.6961 16.6647 12.5901 16.5075L10.6823 13.6768C10.4784 13.374 10.558 12.9634 10.8611 12.7598C11.1638 12.5549 11.5745 12.6356 11.7781 12.9375L13.2677 15.1482L22.8157 6.81516C23.0903 6.57569 23.508 6.60338 23.748 6.87845C23.988 7.153 23.9593 7.57076 23.6847 7.81103L13.5725 16.6356C13.4515 16.7414 13.2969 16.7984 13.1382 16.7984Z" fill="#00095F"/>
</svg>
