<svg width="24" height="24" viewBox="0 0 24 24" fill="none" xmlns="http://www.w3.org/2000/svg">
    <g clip-path="url(#clip0_701_33987)">
        <path d="M14.6003 21.2996C14.3003 21.5256 13.9813 21.7636 13.7103 21.9996H16.0003C16.2655 21.9996 16.5199 22.1049 16.7074 22.2925C16.8949 22.48 17.0003 22.7343 17.0003 22.9996C17.0003 23.2648 16.8949 23.5191 16.7074 23.7067C16.5199 23.8942 16.2655 23.9996 16.0003 23.9996H12.0003C11.7351 23.9996 11.4807 23.8942 11.2932 23.7067C11.1056 23.5191 11.0003 23.2648 11.0003 22.9996C11.0003 21.4996 12.2753 20.5436 13.4003 19.6996C14.1503 19.1376 15.0003 18.4996 15.0003 17.9996C15.0003 17.7343 14.8949 17.48 14.7074 17.2925C14.5199 17.1049 14.2655 16.9996 14.0003 16.9996C13.7351 16.9996 13.4807 17.1049 13.2932 17.2925C13.1056 17.48 13.0003 17.7343 13.0003 17.9996C13.0003 18.2648 12.8949 18.5191 12.7074 18.7067C12.5199 18.8942 12.2655 18.9996 12.0003 18.9996C11.7351 18.9996 11.4807 18.8942 11.2932 18.7067C11.1056 18.5191 11.0003 18.2648 11.0003 17.9996C11.0003 17.2039 11.3164 16.4408 11.879 15.8782C12.4416 15.3156 13.2046 14.9996 14.0003 14.9996C14.7959 14.9996 15.559 15.3156 16.1216 15.8782C16.6842 16.4408 17.0003 17.2039 17.0003 17.9996C17.0003 19.4996 15.7253 20.4556 14.6003 21.2996ZM23.0003 14.9996C22.7351 14.9996 22.4807 15.1049 22.2932 15.2925C22.1056 15.48 22.0003 15.7343 22.0003 15.9996V18.9996H21.0003C20.7351 18.9996 20.4807 18.8942 20.2932 18.7067C20.1056 18.5191 20.0003 18.2648 20.0003 17.9996V15.9996C20.0003 15.7343 19.8949 15.48 19.7074 15.2925C19.5199 15.1049 19.2655 14.9996 19.0003 14.9996C18.7351 14.9996 18.4807 15.1049 18.2932 15.2925C18.1056 15.48 18.0003 15.7343 18.0003 15.9996V17.9996C18.0003 18.7952 18.3164 19.5583 18.879 20.1209C19.4416 20.6835 20.2046 20.9996 21.0003 20.9996H22.0003V22.9996C22.0003 23.2648 22.1056 23.5191 22.2932 23.7067C22.4807 23.8942 22.7351 23.9996 23.0003 23.9996C23.2655 23.9996 23.5199 23.8942 23.7074 23.7067C23.8949 23.5191 24.0003 23.2648 24.0003 22.9996V15.9996C24.0003 15.7343 23.8949 15.48 23.7074 15.2925C23.5199 15.1049 23.2655 14.9996 23.0003 14.9996ZM13.0003 11.9996V6.99956C13.0003 6.73434 12.8949 6.47999 12.7074 6.29245C12.5199 6.10492 12.2655 5.99956 12.0003 5.99956C11.7351 5.99956 11.4807 6.10492 11.2932 6.29245C11.1056 6.47999 11.0003 6.73434 11.0003 6.99956V10.9996H8.00029C7.73507 10.9996 7.48072 11.1049 7.29318 11.2925C7.10565 11.48 7.00029 11.7343 7.00029 11.9996C7.00029 12.2648 7.10565 12.5191 7.29318 12.7067C7.48072 12.8942 7.73507 12.9996 8.00029 12.9996H12.0003C12.2655 12.9996 12.5199 12.8942 12.7074 12.7067C12.8949 12.5191 13.0003 12.2648 13.0003 11.9996ZM23.0003 1.99956C22.7351 1.99956 22.4807 2.10492 22.2932 2.29245C22.1056 2.47999 22.0003 2.73434 22.0003 2.99956V5.37356C20.9584 3.80113 19.5604 2.49648 17.9199 1.56546C16.2793 0.634445 14.4424 0.103285 12.5582 0.0150807C10.674 -0.0731234 8.79545 0.284113 7.07512 1.0578C5.35479 1.8315 3.84108 2.99985 2.65681 4.46806C1.47254 5.93628 0.651075 7.663 0.259064 9.50812C-0.132947 11.3532 -0.0844604 13.2648 0.400589 15.0877C0.885639 16.9105 1.79359 18.5934 3.05077 19.9997C4.30795 21.406 5.87894 22.4961 7.63629 23.1816C7.75243 23.2264 7.87581 23.2494 8.00029 23.2496C8.23365 23.2499 8.45979 23.1687 8.63954 23.0198C8.81929 22.871 8.94134 22.664 8.98455 22.4347C9.02775 22.2054 8.9894 21.9682 8.87612 21.7641C8.76284 21.5601 8.58178 21.4021 8.36429 21.3176C6.87231 20.7406 5.54051 19.8142 4.48067 18.6161C3.42084 17.4179 2.6639 15.983 2.2734 14.4318C1.8829 12.8805 1.87023 11.2582 2.23646 9.7011C2.6027 8.14395 3.33714 6.69739 4.37814 5.48283C5.41914 4.26828 6.73631 3.32118 8.2191 2.72103C9.70188 2.12089 11.307 1.88522 12.8997 2.03381C14.4924 2.18239 16.0263 2.71089 17.3725 3.57495C18.7186 4.43901 19.8379 5.61341 20.6363 6.99956H18.0003C17.7351 6.99956 17.4807 7.10492 17.2932 7.29245C17.1056 7.47999 17.0003 7.73434 17.0003 7.99956C17.0003 8.26478 17.1056 8.51913 17.2932 8.70667C17.4807 8.8942 17.7351 8.99956 18.0003 8.99956H21.0003C21.7959 8.99956 22.559 8.68349 23.1216 8.12088C23.6842 7.55827 24.0003 6.79521 24.0003 5.99956V2.99956C24.0003 2.73434 23.8949 2.47999 23.7074 2.29245C23.5199 2.10492 23.2655 1.99956 23.0003 1.99956Z" fill="#00095F"/>
    </g>
    <defs>
        <clipPath id="clip0_701_33987">
            <rect width="24" height="24" fill="white"/>
        </clipPath>
    </defs>
</svg>
