<svg width="24" height="24" viewBox="0 0 24 24" fill="none" xmlns="http://www.w3.org/2000/svg">
    <g clip-path="url(#clip0_606_39508)">
        <path d="M21.2325 5.57215C21.1148 5.42028 20.9432 5.31938 20.7533 5.29029C20.5633 5.26121 20.3695 5.30614 20.2117 5.41582C20.0539 5.5255 19.9442 5.69157 19.9053 5.87975C19.8664 6.06793 19.9012 6.26388 20.0025 6.42715C20.8766 7.68308 21.4429 9.12712 21.6555 10.6425C21.868 12.1578 21.721 13.7019 21.2261 15.1499C20.7313 16.5978 19.9026 17.909 18.8071 18.9773C17.7116 20.0457 16.38 20.8411 14.92 21.2994C13.4601 21.7577 11.9128 21.8659 10.4033 21.6153C8.89373 21.3647 7.46438 20.7623 6.23082 19.8569C4.99727 18.9515 3.99413 17.7684 3.30257 16.4034C2.61101 15.0384 2.25043 13.5298 2.25 11.9997C2.25945 9.90169 2.94124 7.86202 4.19527 6.18008C5.4493 4.49814 7.20952 3.26253 9.2175 2.65465C9.31206 2.62658 9.40015 2.58016 9.47676 2.51805C9.55338 2.45593 9.61701 2.37933 9.66401 2.29263C9.71102 2.20592 9.7405 2.1108 9.75075 2.01271C9.76099 1.91461 9.75182 1.81545 9.72375 1.7209C9.69568 1.62635 9.64927 1.53825 9.58715 1.46164C9.52503 1.38503 9.44843 1.3214 9.36173 1.27439C9.27502 1.22738 9.1799 1.19791 9.08181 1.18766C8.98371 1.17741 8.88456 1.18658 8.79 1.21465C6.79025 1.81 4.99547 2.94974 3.60624 4.50649C2.21701 6.06325 1.28809 7.97567 0.923289 10.03C0.558488 12.0844 0.772185 14.1997 1.5405 16.1396C2.30881 18.0795 3.60146 19.7675 5.27398 21.0149C6.94649 22.2623 8.93297 23.0201 11.0114 23.2034C13.0898 23.3868 15.1783 22.9885 17.0433 22.0532C18.9084 21.1178 20.4766 19.6822 21.5727 17.9068C22.6688 16.1314 23.2495 14.0861 23.25 11.9997C23.2542 9.7007 22.5497 7.45633 21.2325 5.57215Z" fill="#747474"/>
        <path d="M14.7825 2.65473C15.9518 3.00951 17.0434 3.58206 18 4.34223C18.0773 4.4033 18.1659 4.44854 18.2607 4.47537C18.3555 4.50219 18.4547 4.51009 18.5525 4.4986C18.6504 4.48711 18.745 4.45645 18.831 4.40839C18.917 4.36033 18.9927 4.2958 19.0538 4.21848C19.1148 4.14117 19.1601 4.05258 19.1869 3.95778C19.2137 3.86298 19.2216 3.76383 19.2101 3.66598C19.1986 3.56813 19.168 3.4735 19.1199 3.3875C19.0719 3.30149 19.0073 3.2258 18.93 3.16473C17.8154 2.28211 16.5427 1.62027 15.18 1.21473C14.9891 1.15804 14.7834 1.17953 14.6083 1.27447C14.4332 1.36941 14.303 1.53003 14.2463 1.72098C14.1896 1.91194 14.2111 2.11759 14.306 2.29271C14.401 2.46782 14.5616 2.59804 14.7525 2.65473H14.7825ZM11.4675 2.03223C11.5404 2.09848 11.6241 2.15175 11.715 2.18973C11.8048 2.22941 11.9019 2.24991 12 2.24991C12.0982 2.24991 12.1952 2.22941 12.285 2.18973C12.3758 2.15162 12.4595 2.09836 12.5325 2.03223C12.602 1.96215 12.657 1.87904 12.6944 1.78766C12.7317 1.69629 12.7506 1.59844 12.75 1.49973C12.7473 1.30116 12.6696 1.11096 12.5325 0.967234C12.4459 0.876931 12.3381 0.809725 12.2189 0.771737C12.0997 0.733749 11.9729 0.726185 11.85 0.749734C11.8031 0.75805 11.7576 0.773211 11.715 0.794734C11.6672 0.810981 11.6217 0.833691 11.58 0.862234L11.4675 0.952234C11.3992 1.02356 11.3457 1.10767 11.31 1.19973C11.2696 1.29455 11.2492 1.39667 11.25 1.49973C11.2512 1.59774 11.2716 1.69457 11.31 1.78473C11.3481 1.87555 11.4014 1.95924 11.4675 2.03223ZM8.34003 7.34973C8.19419 7.45865 8.08656 7.61092 8.03253 7.78473L5.51253 15.1197C5.45262 15.2526 5.42673 15.3982 5.43721 15.5436C5.44768 15.6889 5.49419 15.8294 5.57253 15.9522C5.64599 16.0338 5.73645 16.0982 5.83753 16.141C5.93861 16.1837 6.04785 16.2038 6.15753 16.1997C6.30384 16.2014 6.44648 16.1539 6.56253 16.0647C6.66489 15.977 6.74899 15.87 6.81003 15.7497C6.87507 15.6346 6.93026 15.5142 6.97503 15.3897L7.08753 15.0897L7.50003 13.9197H10.2825L10.8675 15.5547C10.9145 15.7233 11.0021 15.8778 11.1225 16.0047C11.1857 16.0672 11.2607 16.1167 11.3431 16.1501C11.4254 16.1836 11.5136 16.2004 11.6025 16.1997H11.655C11.7885 16.214 11.9231 16.1863 12.0401 16.1204C12.157 16.0545 12.2505 15.9538 12.3075 15.8322C12.3923 15.6101 12.3923 15.3644 12.3075 15.1422L9.78003 7.79223C9.72687 7.61191 9.61626 7.4539 9.46503 7.34223C9.29675 7.23487 9.10102 7.17845 8.90142 7.17978C8.70181 7.18111 8.50685 7.24013 8.34003 7.34973ZM8.91003 9.59973L9.88503 12.5397H7.93503L8.91003 9.59973ZM13.9425 12.7497C14.1342 12.8213 14.3381 12.8544 14.5425 12.8472H16.005V14.6922C15.9944 14.7933 16.0065 14.8955 16.0405 14.9913C16.0744 15.0872 16.1293 15.1742 16.2012 15.2461C16.2731 15.3179 16.3601 15.3729 16.4559 15.4068C16.5517 15.4407 16.6539 15.4528 16.755 15.4422C16.8885 15.4568 17.023 15.4273 17.1381 15.3582C17.2532 15.2892 17.3426 15.1843 17.3925 15.0597C17.4622 14.8624 17.4953 14.654 17.49 14.4447V12.8772H19.215C19.3127 12.884 19.4106 12.8687 19.5015 12.8325C19.5924 12.7963 19.674 12.7401 19.7403 12.6681C19.8065 12.596 19.8558 12.51 19.8843 12.4164C19.9128 12.3228 19.9199 12.224 19.905 12.1272C19.9189 11.9948 19.89 11.8615 19.8225 11.7468C19.755 11.632 19.6525 11.5419 19.53 11.4897C19.3576 11.4243 19.1745 11.3913 18.99 11.3922H17.49V9.61473C17.4977 9.51624 17.4832 9.41728 17.4476 9.32515C17.4119 9.23301 17.3561 9.15006 17.2841 9.08239C17.2121 9.01473 17.1258 8.96409 17.0317 8.93421C16.9375 8.90433 16.8379 8.89596 16.74 8.90973C16.6085 8.89529 16.4758 8.92312 16.3612 8.98921C16.2465 9.05529 16.1559 9.15618 16.1025 9.27723C16.0343 9.45676 16.0012 9.64772 16.005 9.83973V11.4072H14.535C14.3307 11.4018 14.1271 11.4348 13.935 11.5047C13.814 11.5581 13.7131 11.6487 13.647 11.7634C13.5809 11.878 13.5531 12.0107 13.5675 12.1422C13.5579 12.2701 13.589 12.3978 13.6564 12.5069C13.7237 12.616 13.8239 12.701 13.9425 12.7497Z" fill="#747474"/>
    </g>
    <defs>
        <clipPath id="clip0_606_39508">
            <rect width="24" height="24" fill="white"/>
        </clipPath>
    </defs>
</svg>
