<svg width="24" height="24" viewBox="0 0 24 24" fill="none" xmlns="http://www.w3.org/2000/svg">
    <g clip-path="url(#clip0_493_28851)">
        <path d="M19 24C19.5523 24 20 23.5523 20 23C20 22.4477 19.5523 22 19 22C18.4477 22 18 22.4477 18 23C18 23.5523 18.4477 24 19 24Z" fill="#FF0004"/>
        <path d="M24 13C24 15.42 22.28 17.44 20 17.9V20C20 20.55 19.55 21 19 21C18.45 21 18 20.55 18 20V17C18 16.45 18.45 16 19 16C20.65 16 22 14.65 22 13C22 11.35 20.65 10 19 10C17.35 10 16 11.35 16 13C16 13.55 15.55 14 15 14C14.45 14 14 13.55 14 13C14 10.24 16.24 8 19 8C21.76 8 24 10.24 24 13ZM8 7H5C4.447 7 4 6.552 4 6C4 5.448 4.447 5 5 5H8C8.553 5 9 5.448 9 6C9 6.552 8.553 7 8 7ZM12 10C12 10.55 11.55 11 11 11H5C4.45 11 4 10.55 4 10C4 9.45 4.45 9 5 9H11C11.55 9 12 9.45 12 10ZM12 14C12 14.55 11.55 15 11 15H5C4.45 15 4 14.55 4 14C4 13.45 4.45 13 5 13H11C11.55 13 12 13.45 12 14Z" fill="#FF0004"/>
        <path d="M18 2V4.96C18 5.51 17.55 5.96 17 5.96C16.45 5.96 16 5.51 16 4.96V2.5C16 2.22 15.78 2 15.5 2H2.5C2.22 2 2 2.22 2 2.5V21.5C2 21.78 2.21 22 2.49 22H15C15.55 22 16 22.45 16 23C16 23.55 15.55 24 15 24H2C0.9 24 0 23.1 0 22V2C0 0.9 0.9 0 2 0H16C17.1 0 18 0.9 18 2Z" fill="#FF0004"/>
        <path d="M12 18C12 18.55 11.55 19 11 19H5C4.45 19 4 18.55 4 18C4 17.45 4.45 17 5 17H11C11.55 17 12 17.45 12 18Z" fill="#FF0004"/>
    </g>
    <defs>
        <clipPath id="clip0_493_28851">
            <rect width="24" height="24" fill="white"/>
        </clipPath>
    </defs>
</svg>
