<svg width="24" height="24" viewBox="0 0 24 24" fill="none" xmlns="http://www.w3.org/2000/svg">
    <g clip-path="url(#clip0_493_28363)">
        <path d="M10.2761 8.39827L8.31041 18.7134H8.30879L0 19.9444L11.0862 23.9229L20.956 22.5967L24 9.74393L10.2761 8.39827ZM8.32666 22.3708L5.60609 21.3332L6.91681 21.1568L9.96973 22.1774L8.32666 22.3708ZM20.0549 21.5176L9.07506 18.4127L10.8384 9.30513L22.6178 10.6898L20.0549 21.5176ZM6.9355 7.72544H8.24378V8.97034H6.9355V7.72544ZM7.27598 5.97674H5.96201C5.9742 5.7809 6.01402 5.58507 6.08146 5.39411C6.1481 5.20477 6.25048 5.03413 6.38862 4.88217C6.52758 4.73184 6.70472 4.60914 6.92087 4.5165C7.13702 4.42143 7.4003 4.37349 7.7099 4.37349C8.01544 4.37349 8.27384 4.41412 8.48349 4.497C8.69314 4.57826 8.86298 4.6839 8.99299 4.81066C9.12301 4.93905 9.21889 5.07963 9.27903 5.2324C9.33997 5.38517 9.3741 5.53144 9.38304 5.66958C9.38304 5.86216 9.35703 6.01899 9.30747 6.13763C9.2579 6.25627 9.19127 6.35703 9.10919 6.43667C9.02712 6.51711 8.93692 6.58212 8.83616 6.63494C8.7354 6.68695 8.6322 6.73976 8.52819 6.79502C8.45668 6.83321 8.39817 6.87059 8.35185 6.90797C8.30554 6.94616 8.26897 6.98517 8.24459 7.02661C8.22021 7.06887 8.20234 7.11681 8.19096 7.17206C8.1804 7.2257 8.17552 7.28827 8.17552 7.35896H7.01188C7.00782 7.2972 7.00538 7.2192 7.00538 7.12168C7.00538 7.02173 7.01839 6.91853 7.04358 6.81452C7.06795 6.7097 7.11183 6.60569 7.17522 6.50574C7.2386 6.4066 7.33042 6.32209 7.45231 6.25383C7.50188 6.22783 7.5612 6.20101 7.62864 6.17176C7.69609 6.14413 7.75947 6.11163 7.82042 6.07425C7.87974 6.03931 7.93174 5.99624 7.974 5.94748C8.01544 5.8971 8.03657 5.83616 8.03657 5.76465C8.03657 5.54931 7.9163 5.44286 7.67252 5.44286C7.52138 5.44286 7.41412 5.49731 7.35155 5.60619C7.28817 5.71589 7.26298 5.83941 7.27598 5.97674ZM14.5788 15.3005L16.0423 16.2902L15.1013 17.6838L13.6362 16.6941L14.5788 15.3005ZM19.0879 13.5924C19.1374 13.8337 19.1374 14.0637 19.0895 14.2823C19.0399 14.4992 18.9692 14.6886 18.8733 14.8487C18.7279 15.0664 18.5832 15.2208 18.4353 15.3159C18.2866 15.4118 18.1404 15.4727 17.9852 15.5012C17.834 15.5312 17.6829 15.5345 17.5293 15.5182C17.3765 15.5012 17.2205 15.4825 17.0629 15.4662C16.9548 15.4524 16.8614 15.4508 16.7793 15.4589C16.6988 15.4662 16.6298 15.4825 16.5696 15.5101C16.5095 15.5394 16.4518 15.5784 16.3998 15.6312C16.3486 15.6832 16.295 15.7498 16.2397 15.8286L14.9363 14.9494C14.9794 14.8755 15.0363 14.7869 15.111 14.6764C15.1874 14.5642 15.2792 14.4586 15.3857 14.3611C15.4938 14.262 15.6205 14.1807 15.7668 14.1157C15.9155 14.0491 16.0821 14.0255 16.2682 14.0426C16.3413 14.0523 16.4282 14.0653 16.5249 14.084C16.6216 14.1027 16.7183 14.1141 16.8126 14.1206C16.9077 14.1271 16.9987 14.1173 17.0824 14.0921C17.1669 14.0677 17.2368 14.0157 17.292 13.9377C17.4521 13.6964 17.4001 13.4851 17.1271 13.3015C16.9589 13.1877 16.7972 13.1682 16.6428 13.2438C16.49 13.3169 16.3681 13.438 16.2795 13.6013L14.8071 12.6051C14.9704 12.3962 15.1622 12.2069 15.3816 12.0452C15.6018 11.8819 15.8432 11.7689 16.113 11.7039C16.3811 11.6397 16.672 11.6365 16.9857 11.6942C17.2985 11.751 17.6301 11.8973 17.9779 12.1313C18.3208 12.3637 18.5776 12.6051 18.7506 12.8554C18.9245 13.104 19.035 13.351 19.0879 13.5924ZM0.885729 15.9392L0.146267 15.8798L0.208837 15.1038L0.948299 15.1631L0.885729 15.9392ZM2.27039 15.7092C2.2777 15.6198 2.25089 15.5532 2.18913 15.5093C2.12737 15.4662 2.05505 15.4459 1.97136 15.4467L2.03636 14.6658C2.15256 14.6829 2.2647 14.7162 2.37603 14.7658C2.48492 14.8145 2.58161 14.8844 2.66531 14.9738C2.74738 15.0616 2.81158 15.1737 2.85708 15.307C2.90259 15.4394 2.91884 15.5979 2.9034 15.7831C2.88878 15.9652 2.85058 16.1155 2.7937 16.2374C2.73438 16.3568 2.66369 16.4552 2.58162 16.525C2.49873 16.5982 2.41016 16.6469 2.31671 16.6762C2.22326 16.7046 2.1355 16.7201 2.0518 16.7184C1.93723 16.7071 1.84622 16.6851 1.77796 16.6502C1.70889 16.6152 1.65363 16.5697 1.60894 16.5185C1.56668 16.4665 1.53093 16.408 1.50411 16.3455C1.47811 16.2821 1.45211 16.2203 1.42448 16.1569C1.40579 16.1106 1.38629 16.074 1.36597 16.0456C1.34566 16.0139 1.32372 15.992 1.30015 15.9757C1.27577 15.957 1.24815 15.944 1.21727 15.9343C1.18476 15.9262 1.14738 15.9197 1.10513 15.9172L1.1612 15.2257C1.19939 15.2257 1.24652 15.2273 1.30422 15.2322C1.36435 15.2371 1.42448 15.2493 1.48542 15.2704C1.54637 15.2907 1.60488 15.3208 1.66176 15.3638C1.71864 15.4077 1.76414 15.4638 1.79746 15.5402C1.81046 15.5719 1.82428 15.6068 1.83809 15.6499C1.8519 15.6905 1.86897 15.7311 1.88685 15.7685C1.90554 15.8083 1.9291 15.84 1.95673 15.8668C1.98354 15.8945 2.01849 15.9115 2.06155 15.9148C2.18913 15.9221 2.2582 15.8555 2.27039 15.7092ZM20.41 5.42417L20.6164 6.13763L19.8663 6.35378L19.6607 5.63951L20.41 5.42417ZM18.8148 4.79847C18.7896 4.6839 18.7799 4.56526 18.788 4.44499C18.7945 4.32473 18.8262 4.21016 18.8782 4.10045C18.9335 3.99157 19.0147 3.89243 19.1244 3.80223C19.2309 3.71285 19.3755 3.64215 19.551 3.59096C19.7257 3.54058 19.8801 3.52189 20.0134 3.53326C20.1467 3.54545 20.2637 3.57877 20.3588 3.62996C20.453 3.68116 20.5318 3.74616 20.5912 3.82498C20.6497 3.90299 20.6944 3.98019 20.7228 4.05739C20.7545 4.16871 20.7667 4.26216 20.7561 4.33936C20.7464 4.41574 20.7261 4.48319 20.6927 4.54251C20.6594 4.60264 20.618 4.65383 20.5684 4.70178C20.518 4.74809 20.4701 4.79441 20.4181 4.84398C20.3831 4.87648 20.3547 4.90817 20.3344 4.93824C20.3149 4.96587 20.2994 4.99512 20.2929 5.02275C20.2848 5.05119 20.2816 5.08207 20.2848 5.11539C20.2881 5.14789 20.2946 5.18446 20.3068 5.22509L19.6404 5.41686C19.6274 5.38192 19.6136 5.33641 19.5974 5.28197C19.5803 5.22346 19.5705 5.16252 19.5673 5.09751C19.5657 5.03413 19.5738 4.96749 19.5925 4.90005C19.6112 4.83098 19.651 4.76922 19.7103 4.71071C19.7355 4.68715 19.7639 4.66196 19.7973 4.63352C19.8306 4.60589 19.8606 4.57826 19.8907 4.54738C19.9191 4.5165 19.9411 4.484 19.9573 4.44743C19.9736 4.41249 19.9744 4.3743 19.9638 4.33286C19.9289 4.21016 19.842 4.16953 19.7022 4.20853C19.6169 4.23453 19.564 4.2841 19.5454 4.35642C19.5283 4.42874 19.5324 4.50431 19.564 4.5807L18.8148 4.79847ZM14.6413 7.09893L15.094 7.14362L15.0509 7.57511L14.5991 7.52961L14.6413 7.09893ZM14.8201 6.50655L14.3642 6.46267C14.374 6.39441 14.3951 6.32859 14.4236 6.26521C14.4536 6.20101 14.4951 6.14576 14.5479 6.09781C14.5983 6.05068 14.6665 6.01249 14.7445 5.98811C14.8234 5.96292 14.9144 5.95642 15.0224 5.96699C15.1281 5.97755 15.2158 6.0003 15.2841 6.03524C15.354 6.06937 15.4092 6.11244 15.4507 6.1612C15.4905 6.20995 15.5189 6.26196 15.5352 6.3164C15.5514 6.37166 15.5555 6.42204 15.5555 6.47079C15.549 6.53824 15.5352 6.59025 15.5116 6.63006C15.4905 6.67069 15.4637 6.70238 15.4336 6.72839C15.4019 6.75114 15.3686 6.77064 15.332 6.78608C15.2955 6.80071 15.2565 6.81534 15.2183 6.83159C15.1939 6.84296 15.1703 6.85271 15.1533 6.8649C15.1362 6.87709 15.1232 6.88847 15.1135 6.90228C15.1021 6.9161 15.0956 6.93235 15.0907 6.95104C15.0834 6.97054 15.0801 6.99167 15.0785 7.01523L14.6771 6.97704C14.6771 6.95429 14.6787 6.92666 14.6836 6.89334C14.6868 6.85759 14.695 6.82346 14.7055 6.78771C14.7161 6.75195 14.7372 6.71782 14.7616 6.68532C14.7868 6.652 14.8217 6.62681 14.8664 6.6065C14.8843 6.60081 14.9071 6.59268 14.9298 6.58375C14.955 6.57643 14.9786 6.56749 14.9997 6.55774C15.0208 6.54718 15.042 6.53418 15.0566 6.51711C15.0736 6.50167 15.0826 6.48136 15.0842 6.45698C15.0915 6.38385 15.0525 6.3424 14.968 6.33347C14.916 6.32859 14.8762 6.34484 14.8502 6.37978C14.8274 6.41473 14.8169 6.45779 14.8201 6.50655ZM12.2539 16.265C12.2702 16.3211 12.2759 16.3715 12.2743 16.4186C12.2677 16.4868 12.2547 16.538 12.2328 16.5787C12.2109 16.6185 12.1841 16.6518 12.1532 16.6746C12.1215 16.6989 12.0882 16.7201 12.0516 16.7339C12.0142 16.7501 11.9777 16.7631 11.9395 16.7802C11.9135 16.7899 11.8915 16.8005 11.8745 16.8127C11.8574 16.8265 11.8436 16.8354 11.833 16.8501C11.8233 16.8655 11.8151 16.8818 11.8103 16.8996C11.8046 16.9183 11.8005 16.9411 11.7973 16.963L11.395 16.9248C11.3958 16.9029 11.3983 16.8745 11.4015 16.8403C11.4048 16.8054 11.4121 16.7704 11.4251 16.7355C11.4365 16.7006 11.4552 16.6664 11.4803 16.6331C11.5063 16.5998 11.5405 16.5746 11.5852 16.5559C11.6039 16.5478 11.625 16.5397 11.6486 16.5332C11.6729 16.525 11.6957 16.5161 11.7184 16.5072C11.7404 16.4958 11.7599 16.4844 11.7761 16.4657C11.7916 16.4511 11.8005 16.43 11.8038 16.4072C11.8103 16.3325 11.7721 16.2918 11.6884 16.2829C11.6347 16.278 11.5965 16.2951 11.5705 16.33C11.5454 16.3658 11.5324 16.4096 11.5324 16.456L11.0773 16.4113C11.087 16.343 11.1082 16.2764 11.1374 16.2146C11.1667 16.1496 11.2098 16.0952 11.2618 16.0464C11.3138 15.9977 11.3796 15.9619 11.4584 15.9367C11.5356 15.9115 11.6282 15.905 11.7355 15.9156C11.8428 15.9253 11.9305 15.9481 11.9988 15.9838C12.0695 16.0196 12.1239 16.0602 12.1646 16.1098C12.206 16.1586 12.2352 16.2114 12.2539 16.265ZM11.3544 17.0483L11.8078 17.0939L11.7664 17.5229L11.3138 17.479L11.3544 17.0483ZM2.76851 3.26754L2.31183 3.22285C2.3224 3.15541 2.34352 3.0904 2.37278 3.0262C2.40366 2.96282 2.44429 2.90675 2.49711 2.858C2.54911 2.81087 2.61493 2.77349 2.69294 2.74911C2.77095 2.72392 2.86359 2.71742 2.97085 2.72717C3.0773 2.73773 3.16587 2.76049 3.23657 2.79624C3.30564 2.83037 3.36089 2.87262 3.40152 2.92219C3.44215 2.97095 3.46978 3.02214 3.48603 3.0774C3.50147 3.13265 3.50797 3.18303 3.50716 3.23423C3.50066 3.30005 3.48603 3.35287 3.46491 3.3935C3.44297 3.4325 3.41615 3.46419 3.38608 3.4902C3.35521 3.51295 3.32108 3.53245 3.28451 3.54789C3.24713 3.56252 3.20975 3.57877 3.17237 3.5934C3.14637 3.60477 3.12443 3.61452 3.10818 3.62671C3.0903 3.6389 3.07567 3.64946 3.06592 3.66409C3.05698 3.67791 3.04886 3.69416 3.04317 3.71285C3.03748 3.73072 3.03342 3.75348 3.03098 3.77542L2.62793 3.73804C2.62956 3.7161 2.63118 3.68847 2.63525 3.65434C2.6385 3.6194 2.64581 3.58527 2.658 3.5487C2.671 3.51457 2.68888 3.48044 2.71407 3.44713C2.73926 3.41381 2.77339 3.38943 2.81889 3.36912C2.83677 3.36343 2.8579 3.3553 2.88146 3.34718C2.90584 3.33987 2.92859 3.33011 2.95216 3.31955C2.9741 3.3098 2.9936 3.29599 3.00985 3.27973C3.0261 3.26511 3.03423 3.24398 3.03667 3.2196C3.04398 3.14484 3.0066 3.10421 2.92209 3.09527C2.86927 3.0904 2.83027 3.10584 2.80508 3.14159C2.77989 3.17735 2.7677 3.2196 2.76851 3.26754ZM2.59055 3.86074L3.04317 3.90543L3.0001 4.33611L2.54749 4.29141L2.59055 3.86074ZM3.7095 12.4409L2.57836 12.766L2.26877 11.6901L3.3999 11.3651L3.7095 12.4409ZM0.990554 10.4208C0.951549 10.2461 0.940173 10.0698 0.948299 9.88857C0.960488 9.70655 1.00599 9.53428 1.08888 9.36932C1.16851 9.20436 1.29365 9.05241 1.45617 8.91752C1.62031 8.78182 1.83647 8.67699 2.10462 8.59817C2.36872 8.52179 2.60193 8.49497 2.80345 8.51285C3.00335 8.53072 3.17725 8.57948 3.31945 8.6583C3.46409 8.73631 3.58111 8.83545 3.67131 8.95084C3.7615 9.07029 3.82895 9.1873 3.8712 9.3035C3.91915 9.4709 3.9354 9.6131 3.9224 9.72768C3.90858 9.84388 3.87608 9.94545 3.82489 10.0357C3.7745 10.1242 3.71275 10.2047 3.63799 10.2746C3.56404 10.3461 3.48928 10.4176 3.41209 10.4899C3.36008 10.5419 3.31783 10.5882 3.28776 10.6329C3.25769 10.676 3.23657 10.7182 3.22519 10.7621C3.21381 10.8052 3.20975 10.8507 3.21463 10.9003C3.21869 10.949 3.23088 11.0059 3.24794 11.0676L2.24195 11.3561C2.22326 11.3033 2.20132 11.235 2.17857 11.1513C2.15175 11.0644 2.13713 10.9726 2.13306 10.8751C2.129 10.7784 2.14038 10.6792 2.17207 10.576C2.20051 10.4728 2.25983 10.3786 2.3484 10.2908C2.38659 10.2551 2.42885 10.2169 2.47923 10.1738C2.53123 10.1332 2.57836 10.0893 2.62062 10.043C2.66531 9.99583 2.69863 9.94627 2.72138 9.89182C2.74738 9.83819 2.74901 9.78212 2.73195 9.71955C2.67913 9.5359 2.54749 9.47252 2.33702 9.53347C2.20701 9.56922 2.12737 9.64398 2.09975 9.75368C2.07374 9.86419 2.08106 9.97633 2.12737 10.0942L0.990554 10.4208ZM13.2339 2.93682L13.5435 4.01188L12.4124 4.33692L12.1036 3.26186L13.2339 2.93682ZM10.8254 1.99258C10.7872 1.81787 10.7742 1.64154 10.7848 1.45952C10.7961 1.2775 10.8416 1.10442 10.9229 0.939459C11.0042 0.775315 11.1277 0.624172 11.2918 0.488469C11.4543 0.353578 11.6713 0.247128 11.9395 0.169931C12.2036 0.0935475 12.4368 0.0659192 12.6383 0.0829837C12.839 0.102486 13.0113 0.152054 13.1559 0.229251C13.3006 0.306447 13.4176 0.404771 13.5086 0.52341C13.5988 0.640424 13.6638 0.757438 13.7085 0.875264C13.7564 1.04266 13.7702 1.18405 13.7589 1.29863C13.7434 1.41483 13.7117 1.51721 13.6605 1.60741C13.6102 1.69599 13.5484 1.77562 13.4736 1.8455C13.4005 1.9162 13.3241 1.98852 13.2502 2.06165C13.1949 2.11285 13.1543 2.15835 13.1234 2.20386C13.0933 2.24774 13.073 2.29081 13.0608 2.33387C13.0487 2.37531 13.0454 2.42163 13.0487 2.47201C13.0552 2.52077 13.0657 2.57765 13.0836 2.6386L12.0776 2.92707C12.0589 2.87425 12.0362 2.80518 12.0126 2.72148C11.9866 2.63535 11.972 2.54433 11.9679 2.44601C11.9647 2.34931 11.976 2.25018 12.0061 2.14779C12.0353 2.04459 12.0947 1.94951 12.1832 1.86094C12.2214 1.826 12.2645 1.78862 12.3149 1.74555C12.3653 1.7033 12.4116 1.65942 12.4563 1.61473C12.4993 1.5676 12.5343 1.51803 12.5562 1.46358C12.5814 1.40914 12.583 1.35226 12.5676 1.2905C12.514 1.10604 12.3823 1.04428 12.1727 1.10198C12.0427 1.14017 11.963 1.21412 11.9362 1.32382C11.9094 1.43433 11.9175 1.54809 11.963 1.66429L10.8254 1.99258ZM6.23829 14.6268L5.37288 14.4643C5.4062 14.3351 5.45658 14.2124 5.52484 14.0946C5.59228 13.9792 5.68004 13.8792 5.78974 13.7963C5.89863 13.7143 6.03189 13.6549 6.18547 13.62C6.33906 13.5843 6.51864 13.5851 6.7226 13.6233C6.92575 13.6606 7.08989 13.72 7.21747 13.7996C7.34505 13.8809 7.44337 13.971 7.51326 14.0694C7.58314 14.1701 7.62864 14.2774 7.64977 14.3855C7.6709 14.4935 7.67578 14.5935 7.6644 14.6853C7.64165 14.8105 7.60508 14.9104 7.55714 14.9835C7.50838 15.0583 7.45394 15.1127 7.38974 15.1582C7.32555 15.1997 7.2581 15.2314 7.18497 15.2517C7.11183 15.2745 7.03789 15.298 6.96313 15.32C6.91112 15.3362 6.86724 15.3533 6.8323 15.3736C6.79817 15.3907 6.76892 15.4118 6.74698 15.4378C6.72666 15.4613 6.70879 15.4906 6.69416 15.5239C6.68116 15.5589 6.66978 15.6011 6.66084 15.6466L5.89457 15.5012C5.90025 15.4613 5.90838 15.4077 5.92057 15.3443C5.93195 15.2785 5.95389 15.2127 5.98314 15.1444C6.01239 15.0786 6.05383 15.0169 6.10828 14.9584C6.16272 14.8998 6.23342 14.8568 6.32118 14.8267C6.35856 14.8153 6.4 14.808 6.44794 14.7958C6.4967 14.7836 6.54058 14.7706 6.58608 14.7536C6.62996 14.7381 6.66978 14.717 6.70391 14.6886C6.73723 14.6609 6.75836 14.6252 6.76811 14.574C6.79411 14.435 6.72748 14.3505 6.56739 14.3205C6.46826 14.3018 6.38944 14.3245 6.3358 14.3871C6.28055 14.4537 6.24804 14.5334 6.23829 14.6268ZM5.8003 15.7376L6.66166 15.8977L6.50889 16.7176L5.64754 16.5567L5.8003 15.7376Z" fill="#00095F"/>
    </g>
    <defs>
        <clipPath id="clip0_493_28363">
            <rect width="24" height="24" fill="white"/>
        </clipPath>
    </defs>
</svg>
