<svg width="24" height="24" viewBox="0 0 24 24" fill="none" xmlns="http://www.w3.org/2000/svg">
    <path d="M17.5272 21.3646H17.7772V21.1146V19.9971C17.7772 19.5206 18.1682 19.1297 18.6447 19.1297C19.1212 19.1297 19.5122 19.5206 19.5122 19.9971V22.2321C19.5122 22.7086 19.1212 23.0996 18.6447 23.0996H4.11748C3.64094 23.0996 3.25 22.7086 3.25 22.2321V2.11748C3.25 1.64094 3.64094 1.25 4.11748 1.25H13.0573C13.1879 1.25 13.2975 1.27532 13.4107 1.32756L13.432 1.33741L13.4381 1.33892C13.4411 1.34117 13.4451 1.34415 13.4512 1.3488L13.4518 1.34922C13.4599 1.35533 13.4735 1.36563 13.4885 1.37563L13.4885 1.37572L13.4947 1.37962C13.572 1.42795 13.6456 1.48365 13.7075 1.54554L13.8842 1.36877L13.7075 1.54555L13.733 1.57105L19.3109 8.26461C19.3162 8.27151 19.3234 8.28319 19.336 8.30836L19.3463 8.32931L19.3585 8.35411C19.3672 8.37146 19.3782 8.39263 19.3914 8.41459L19.4072 8.44097L19.4281 8.46185C19.4287 8.46266 19.4309 8.4656 19.4347 8.47185C19.4397 8.48034 19.4449 8.49013 19.4523 8.50462C19.49 8.62064 19.5122 8.72074 19.5122 8.82235V11.0573C19.5122 11.5338 19.1212 11.9248 18.6447 11.9248C18.1682 11.9248 17.7772 11.5338 17.7772 11.0573V9.93983V9.68983H17.5272H13.0573C12.5808 9.68983 12.1898 9.29889 12.1898 8.82235V3.23496V2.98496H11.9398H5.23496H4.98496V3.23496V21.1146V21.3646H5.23496H17.5272ZM14.3671 5.04201L13.9248 4.5093V5.20172V7.70487V7.95487H14.1748H16.2533H16.7858L16.4456 7.54516L14.3671 5.04201Z" stroke="#747474" stroke-width="0.5"/>
    <path d="M9.70497 9.68808H7.47002C6.99348 9.68808 6.60254 9.29715 6.60254 8.8206C6.60254 8.34406 6.99348 7.95312 7.47002 7.95312H9.70497C10.1815 7.95312 10.5725 8.34406 10.5725 8.8206C10.5725 9.29715 10.1815 9.68808 9.70497 9.68808Z" stroke="#747474" stroke-width="0.5"/>
    <path d="M7.47002 11.3086H13.0574C13.534 11.3086 13.9249 11.6995 13.9249 12.1761C13.9249 12.6526 13.534 13.0436 13.0574 13.0436H7.47002C6.99348 13.0436 6.60254 12.6526 6.60254 12.1761C6.60254 11.6995 6.99348 11.3086 7.47002 11.3086Z" stroke="#747474" stroke-width="0.5"/>
    <path d="M7.47002 14.6602H13.0574C13.534 14.6602 13.9249 15.0511 13.9249 15.5276C13.9249 16.0042 13.534 16.3951 13.0574 16.3951H7.47002C6.99348 16.3951 6.60254 16.0042 6.60254 15.5276C6.60254 15.0511 6.99348 14.6602 7.47002 14.6602Z" stroke="#747474" stroke-width="0.5"/>
    <path d="M7.47002 18.0117H13.0574C13.534 18.0117 13.9249 18.4027 13.9249 18.8792C13.9249 19.3557 13.534 19.7467 13.0574 19.7467H7.47002C6.99348 19.7467 6.60254 19.3557 6.60254 18.8792C6.60254 18.4027 6.99348 18.0117 7.47002 18.0117Z" stroke="#747474" stroke-width="0.5"/>
    <path d="M18.4681 14.1282L18.6448 14.305L18.8216 14.1282L20.2743 12.6755C20.6125 12.3373 21.1582 12.3373 21.4964 12.6755C21.8342 13.0133 21.8342 13.5685 21.4875 13.9066L21.4875 13.9065L21.4853 13.9088L20.0437 15.3503L19.8669 15.5271L20.0437 15.7039L21.4964 17.1566C21.8339 17.494 21.8346 18.0381 21.4987 18.3764C21.3205 18.5446 21.1031 18.6295 20.8798 18.6295C20.6563 18.6295 20.4403 18.5447 20.2632 18.3675L18.8216 16.926L18.6448 16.7492L18.4681 16.926L17.0265 18.3675C16.6883 18.7057 16.1426 18.7057 15.8044 18.3675C15.4662 18.0293 15.4662 17.4836 15.8044 17.1454L17.246 15.7039L17.4227 15.5271L17.246 15.3503L15.8044 13.9088C15.4662 13.5706 15.4662 13.0249 15.8044 12.6867C16.1426 12.3485 16.6883 12.3485 17.0265 12.6867L18.4681 14.1282Z" stroke="#747474" stroke-width="0.5"/>
</svg>
