<svg width="24" height="24" viewBox="0 0 24 24" fill="none" xmlns="http://www.w3.org/2000/svg">
<g clip-path="url(#clip0_71_1682)">
<path d="M17.1673 5.91157C17.2251 5.86145 17.293 5.82438 17.3665 5.80289C17.4399 5.78141 17.5171 5.77602 17.5928 5.78709C17.6671 5.79759 17.738 5.8246 17.8005 5.86613C17.863 5.90766 17.9153 5.96266 17.9537 6.02709C17.9983 6.11598 18.0236 6.21324 18.0281 6.31256C18.0605 6.70121 17.9855 7.09129 17.8112 7.44018C17.729 7.6165 17.6098 7.77302 17.4616 7.89906C17.3412 7.99666 17.1976 8.06139 17.0447 8.08694L16.9734 8.09796C16.9392 8.22596 16.9008 8.33384 16.8819 8.39107C16.7604 8.72076 16.0804 9.86211 15.2248 10.2773C15.2226 10.5653 15.217 10.8951 15.3174 11.1443C15.4891 11.5681 16.4143 12.1022 16.478 12.1299C16.478 12.1299 15.9754 14.0629 13.5854 14.0629C10.5463 14.0629 10.6702 12.0554 10.6702 12.0554C10.7339 12.0277 11.5145 11.5681 11.686 11.1443C11.8002 10.8615 11.777 10.4742 11.7789 10.1623C11.4758 9.97093 11.2057 9.73162 10.9793 9.45369C10.6572 9.05868 10.4223 8.6001 10.2898 8.10799L10.1542 8.08701C10.0013 8.06145 9.8577 7.99672 9.73732 7.89913C9.58915 7.77308 9.4699 7.61656 9.38771 7.44025C9.21342 7.09136 9.13839 6.70128 9.17082 6.31263C9.17532 6.21332 9.20063 6.11606 9.24511 6.02716C9.28354 5.96273 9.33591 5.90773 9.39839 5.86619C9.46086 5.82466 9.53185 5.79766 9.60613 5.78716C9.68184 5.77609 9.75903 5.78148 9.83246 5.80296C9.90589 5.82444 9.97382 5.86151 10.0316 5.91164C10.0316 5.91164 10.3695 2.74243 13.6152 2.74243C16.8609 2.74243 17.1673 5.91157 17.1673 5.91157Z" fill="white"/>
<path d="M17.7122 3.5095C17.6821 3.37926 17.6429 3.25129 17.595 3.1265C17.4186 2.67592 17.1484 2.15583 16.6011 1.85549L15.9589 1.37264C15.3183 0.311946 14.1376 0.104613 13.1308 0.174985C11.9356 0.258835 11.0837 0.57956 10.3069 1.49194C9.17498 2.82145 9.14331 4.58016 9.57099 5.79395C9.58132 5.79097 9.59186 5.78875 9.60252 5.78731C9.67765 5.77631 9.75426 5.78166 9.82713 5.80298C9.9 5.82431 9.96741 5.8611 10.0248 5.91086L10.5853 5.30101C10.8196 4.96774 11.4842 4.14166 11.9893 4.04068C12.3505 3.96852 12.7354 4.04672 13.11 4.03165C13.7892 4.00437 14.3509 3.68271 14.9532 3.44803C15.0334 3.41682 15.1143 3.38708 15.1963 3.35986C15.2416 3.34159 15.2904 3.33358 15.3392 3.33643C15.3952 3.34723 15.446 3.3766 15.4833 3.41981C16.1827 4.10229 16.8394 5.08325 16.958 6.1065C17.0662 6.00805 17.1738 5.91086 17.1738 5.91086C17.2312 5.8611 17.2986 5.82431 17.3715 5.80298C17.4443 5.78166 17.521 5.77631 17.5961 5.78731C17.6119 5.78959 17.6276 5.7929 17.643 5.7972C17.8766 5.07349 17.8696 4.17578 17.7122 3.5095Z" fill="#7A7473"/>
<path d="M15.0653 10.2891C15.054 10.5348 15.0704 10.7809 15.1142 11.0229C15.1541 11.1988 15.2395 11.3611 15.3618 11.4936C15.5816 11.7433 15.8664 11.9417 16.1458 12.1192C16.2262 12.1744 16.3103 12.224 16.3976 12.2677C16.4343 12.2878 16.4774 12.293 16.5179 12.2824C16.5585 12.2718 16.5934 12.246 16.6156 12.2105C16.6366 12.1739 16.6423 12.1306 16.6316 12.0898C16.6209 12.049 16.5946 12.014 16.5584 11.9925C16.464 11.9452 16.373 11.8912 16.2862 11.8309C16.1231 11.7282 15.967 11.6149 15.819 11.4916C15.68 11.3736 15.537 11.25 15.4667 11.0904C15.3618 10.8517 15.3822 10.5477 15.3841 10.2891C15.3856 10.0841 15.0669 10.0839 15.0654 10.2891H15.0653Z" fill="#747474"/>
<path d="M11.6197 10.2545C11.621 10.5037 11.6343 10.7635 11.5654 11.0056C11.5091 11.1687 11.4092 11.3132 11.2765 11.4234C11.145 11.5463 11.0033 11.6579 10.853 11.7571C10.7698 11.8178 10.6818 11.8716 10.5898 11.918C10.5536 11.9395 10.5272 11.9744 10.5165 12.0152C10.5058 12.056 10.5116 12.0994 10.5327 12.1359C10.5546 12.1717 10.5896 12.1976 10.6302 12.2082C10.6708 12.2188 10.7139 12.2134 10.7506 12.1931C10.8532 12.1412 10.9512 12.0807 11.0435 12.0122C11.2178 11.896 11.3814 11.7645 11.5324 11.6193C11.69 11.4756 11.8073 11.2933 11.8727 11.0904C11.9494 10.8207 11.9399 10.5319 11.9384 10.2545C11.9373 10.0495 11.6186 10.049 11.6197 10.2545Z" fill="#747474"/>
<path d="M9.70433 5.69233C9.26158 4.36076 9.45696 2.79618 10.3492 1.68967C10.7818 1.15325 11.3292 0.736259 11.9916 0.53145C12.3286 0.431199 12.6755 0.367825 13.0262 0.34244C13.3485 0.31219 13.673 0.315528 13.9946 0.352399C14.3489 0.392511 14.6924 0.499592 15.0067 0.667945C15.342 0.854267 15.6228 1.12493 15.8213 1.45313C15.9281 1.62786 16.2038 1.46793 16.0965 1.29227C15.7057 0.652543 15.0692 0.243322 14.3413 0.089764C13.6388 -0.0585489 12.8799 -0.0122758 12.1837 0.149514C11.4727 0.313988 10.8275 0.68851 10.3321 1.22442C9.77507 1.82176 9.39811 2.5643 9.24465 3.36652C9.09037 4.16998 9.14292 4.99947 9.39735 5.77704C9.46174 5.9707 9.76959 5.88771 9.70459 5.69233H9.70433Z" fill="#747474"/>
<path d="M10.723 5.38133C10.9617 5.03546 11.245 4.72259 11.5656 4.45082C11.7267 4.31804 11.8909 4.21275 12.0922 4.1836C12.4132 4.13713 12.7408 4.19901 13.0632 4.1923C13.6832 4.17902 14.2371 3.91692 14.7976 3.6819C14.9468 3.61936 15.0977 3.55683 15.2525 3.50929C15.311 3.49123 15.3266 3.49097 15.3706 3.53266C15.4216 3.58093 15.4702 3.63178 15.519 3.68257C15.7192 3.89145 15.9032 4.11545 16.0691 4.35256C16.4389 4.88401 16.7334 5.49538 16.803 6.14586C16.8042 6.18774 16.8213 6.22759 16.851 6.25721C16.8806 6.28684 16.9204 6.30401 16.9623 6.3052C17.0045 6.30492 17.0449 6.28804 17.0747 6.25822C17.1045 6.2284 17.1214 6.18803 17.1217 6.14586C17.043 5.51457 16.8197 4.90996 16.4691 4.37912C16.2967 4.10965 16.1032 3.85435 15.8902 3.61565C15.7936 3.50684 15.694 3.39889 15.5877 3.29937C15.4489 3.16938 15.299 3.1571 15.123 3.21665C14.5154 3.42245 13.9468 3.77432 13.3014 3.85684C12.9557 3.90105 12.6103 3.84031 12.2638 3.85173C12.0037 3.85317 11.7499 3.93197 11.5348 4.07811C11.1028 4.37295 10.7472 4.79604 10.4474 5.22067C10.4265 5.25724 10.4207 5.30059 10.4314 5.34137C10.4421 5.38216 10.4684 5.41711 10.5046 5.43869C10.5413 5.45913 10.5845 5.46459 10.6251 5.45394C10.6657 5.44329 10.7007 5.41734 10.7226 5.38153L10.723 5.38133Z" fill="#747474"/>
<path d="M16.5209 1.99303C16.9612 2.23907 17.2372 2.66117 17.422 3.11965C17.6193 3.60927 17.6788 4.14868 17.6642 4.67315C17.6569 5.00191 17.6093 5.32854 17.5226 5.64575C17.4673 5.84352 17.7749 5.92797 17.8299 5.73046C17.992 5.12186 18.0289 4.48666 17.9381 3.8634C17.8737 3.33473 17.6878 2.82813 17.395 2.38326C17.2121 2.10898 16.9678 1.88108 16.6815 1.71765C16.5022 1.61747 16.3414 1.89265 16.5206 1.99276L16.5209 1.99303Z" fill="#747474"/>
<path d="M8.52103 23.8432C8.52435 23.7536 8.527 23.6746 8.53032 23.6089C8.51041 22.4439 8.46241 20.8663 8.3919 19.2548L8.35837 19.2986L8.2479 19.4429C7.94663 19.8234 7.31766 20.5665 6.91601 20.918C6.51555 21.2682 5.8891 21.4829 5.36184 21.3988C4.54088 21.266 4.18185 20.4849 3.84665 19.7229C3.3646 18.627 3.0219 17.4482 2.6792 16.3535C3.36586 16.2042 4.45929 15.7029 5.14595 15.3418C5.41721 16.0088 5.65641 16.6032 5.93 17.244C6.42254 15.9675 6.54928 15.2695 7.03252 14.0074C7.12221 13.7731 7.18946 13.5625 7.36062 13.3789C7.52128 13.2067 7.73385 13.0992 7.94849 13.0022C8.60806 12.7041 10.1882 12.0993 10.9877 11.7408C11.1343 11.3854 11.3524 11.064 11.6284 10.7964C12.0743 11.2424 12.5958 11.6059 13.1686 11.87C13.2005 11.8844 13.236 11.9022 13.2463 11.9356C13.2514 11.9658 13.245 11.9968 13.2285 12.0226C13.2032 12.0643 13.175 12.1043 13.1441 12.1421L13.8412 12.1412C13.8104 12.1037 13.7824 12.0641 13.7572 12.0227C13.7407 11.9969 13.7344 11.9659 13.7394 11.9358C13.7497 11.9026 13.7853 11.8846 13.8171 11.8701C14.3899 11.606 14.9114 11.2426 15.3574 10.7965C15.6177 11.0478 15.8261 11.3478 15.9707 11.6795C16.6719 11.9602 18.4603 12.6479 19.134 12.9734C19.3504 13.078 19.5876 13.1718 19.7514 13.3476C19.9261 13.5347 20.0274 13.7863 20.1189 14.0253C20.6058 15.2968 20.8104 16.5453 21.0759 17.9321H18.9363C18.8542 19.9648 18.7782 22.2065 18.7468 23.7517C18.7461 23.7829 18.7461 23.8135 18.7455 23.8433L8.52103 23.8432Z" fill="white"/>
<path d="M13.7458 23.7234C14.0949 23.3396 14.4222 22.9365 14.7261 22.5161C14.8158 22.3854 14.8925 22.3148 14.901 22.2169C14.9042 22.0891 14.8968 21.9612 14.8788 21.8347C14.692 19.7362 14.4151 16.4558 14.0585 13.3941C14.0688 13.2691 14.0967 13.1462 14.1413 13.029C14.1927 12.8712 14.3001 12.5094 14.2436 12.6381C14.1861 12.5686 14.1294 12.4996 14.0761 12.4343C13.9827 12.3201 13.8997 12.217 13.8414 12.1414L13.1443 12.1422C13.0861 12.2178 13.0033 12.3205 12.9103 12.4343C12.873 12.4799 12.834 12.5273 12.7944 12.5755C12.8247 12.7379 12.883 12.9108 12.9212 13.074C12.9278 13.1064 12.9362 13.1375 12.9443 13.1699C12.9644 13.2391 12.976 13.3104 12.9789 13.3824C12.72 16.2015 12.3869 19.6861 12.1541 22.0974C12.1378 22.1889 12.1451 22.283 12.1754 22.3708C12.2151 22.4472 12.2625 22.5195 12.3167 22.5865C12.6101 22.9931 12.9342 23.3767 13.286 23.734C13.3444 23.7937 13.4204 23.8332 13.5029 23.8469C13.5484 23.8446 13.5931 23.833 13.634 23.8127C13.6749 23.7924 13.7111 23.7639 13.7405 23.729L13.7458 23.7234Z" fill="#747474"/>
<path d="M13.028 13.532C13.3607 13.532 13.6935 13.5246 14.0262 13.5245C14.0685 13.5245 14.109 13.5077 14.1389 13.4778C14.1688 13.4479 14.1855 13.4074 14.1855 13.3651C14.1855 13.3229 14.1688 13.2824 14.1389 13.2525C14.109 13.2226 14.0685 13.2058 14.0262 13.2058C13.6935 13.2058 13.3607 13.2132 13.028 13.2133C12.9857 13.2133 12.9452 13.2301 12.9153 13.26C12.8854 13.2899 12.8687 13.3304 12.8687 13.3726C12.8687 13.4149 12.8854 13.4554 12.9153 13.4853C12.9452 13.5152 12.9857 13.532 13.028 13.532Z" fill="#747474"/>
<path d="M12.6433 12.6324C12.6855 12.8376 12.7495 13.0382 12.7979 13.242C12.8416 13.4262 12.797 13.6276 12.7797 13.8142C12.7436 14.2048 12.7074 14.5954 12.6709 14.9861C12.5954 15.796 12.5193 16.6057 12.4425 17.4152C12.2998 18.9224 12.1557 20.4294 12.0103 21.9363C11.9914 22.1314 11.9611 22.322 12.0631 22.5006C12.1777 22.683 12.3056 22.8567 12.4455 23.0205C12.5783 23.1894 12.7167 23.3538 12.8607 23.5137C12.9287 23.5892 12.9977 23.6638 13.0678 23.7374C13.1354 23.8186 13.2154 23.8886 13.3047 23.945C13.394 23.9938 13.4975 24.0102 13.5975 23.9913C13.6975 23.9725 13.7879 23.9195 13.8533 23.8416C13.9835 23.7035 14.1052 23.5556 14.2277 23.4108C14.4814 23.1109 14.7136 22.7981 14.9468 22.4826C14.9961 22.4229 15.032 22.3533 15.0519 22.2784C15.0656 22.1947 15.067 22.1094 15.0563 22.0253C15.0419 21.8608 15.0256 21.6966 15.0111 21.5322C14.9818 21.2016 14.9526 20.871 14.9235 20.5404C14.8566 19.7827 14.7883 19.0252 14.7187 18.2679C14.6403 17.4225 14.5582 16.5774 14.4723 15.7326C14.4284 15.3033 14.383 14.874 14.3361 14.4447C14.3125 14.2278 14.2883 14.0109 14.2636 13.7941C14.2513 13.6862 14.239 13.5783 14.2265 13.4704C14.2169 13.3654 14.2303 13.2596 14.2659 13.1604C14.3124 13.0081 14.3642 12.8575 14.4037 12.7031C14.4544 12.5043 14.1472 12.4195 14.0964 12.6184C14.0569 12.7728 14.0051 12.9234 13.9586 13.0757C13.9226 13.178 13.9024 13.2852 13.8988 13.3936C13.9007 13.495 13.9229 13.6007 13.9344 13.7014C13.9827 14.1249 14.0294 14.5486 14.0743 14.9724C14.1633 15.8097 14.2474 16.6475 14.3266 17.4858C14.4632 18.9205 14.5878 20.3563 14.7154 21.7919C14.723 21.8772 14.7329 21.9625 14.7395 22.0479C14.7499 22.1077 14.748 22.1689 14.734 22.228C14.6945 22.2969 14.6487 22.362 14.5972 22.4225C14.5449 22.4968 14.4927 22.5709 14.4382 22.6436C14.2111 22.947 13.9634 23.2355 13.7129 23.5199C13.6665 23.5725 13.6128 23.6603 13.5413 23.6811C13.4837 23.6978 13.4284 23.6502 13.3881 23.6101C13.2409 23.4628 13.1009 23.3076 12.9645 23.1503C12.8282 22.993 12.6979 22.8334 12.5734 22.6679C12.5156 22.5911 12.4589 22.5133 12.4026 22.4355C12.3396 22.3656 12.3054 22.2744 12.307 22.1804C12.3194 21.8496 12.3694 21.5165 12.4011 21.1867C12.4352 20.8315 12.4693 20.4764 12.5033 20.1213C12.5769 19.3543 12.65 18.5874 12.7228 17.8203C12.798 17.0281 12.8727 16.2357 12.9469 15.443C12.983 15.056 13.0191 14.6691 13.055 14.2821C13.072 14.0988 13.089 13.9154 13.106 13.7321C13.1143 13.6421 13.1226 13.5522 13.1308 13.4622C13.1391 13.3495 13.1278 13.2361 13.0976 13.1271C13.0498 12.9337 12.9905 12.7421 12.9503 12.5473C12.909 12.3465 12.6018 12.4315 12.6431 12.632L12.6433 12.6324Z" fill="#747474"/>
<path d="M13.8422 11.9819L13.1468 11.9828C13.1046 11.9828 13.064 11.9996 13.0342 12.0295C13.0043 12.0593 12.9875 12.0999 12.9875 12.1421C12.9875 12.1844 13.0043 12.2249 13.0342 12.2548C13.064 12.2847 13.1046 12.3015 13.1468 12.3015L13.8422 12.3006C13.8844 12.3006 13.925 12.2838 13.9548 12.2539C13.9847 12.2241 14.0015 12.1835 14.0015 12.1413C14.0015 12.099 13.9847 12.0585 13.9548 12.0286C13.925 11.9987 13.8844 11.9819 13.8422 11.9819Z" fill="#747474"/>
<path d="M14.8231 13.3163C15.2009 12.9379 15.4936 12.4891 15.7702 12.0342C15.8366 11.9243 15.903 11.814 15.9698 11.7042C16.0114 11.6358 16.0718 11.5652 16.0482 11.4794C16.0239 11.415 15.9918 11.3537 15.9526 11.2971C15.8224 11.0704 15.6599 10.8638 15.4704 10.6838C15.4402 10.6545 15.3998 10.6382 15.3577 10.6382C15.3157 10.6382 15.2753 10.6545 15.2451 10.6838C14.8649 11.0649 14.4275 11.3841 13.9486 11.6298C13.8446 11.6833 13.6942 11.7227 13.6233 11.8208C13.5926 11.8691 13.5779 11.9259 13.5814 11.9831C13.5848 12.0402 13.6062 12.0948 13.6424 12.1391C13.7779 12.3374 13.9406 12.5199 14.0931 12.705C14.2612 12.9088 14.4311 13.1113 14.5977 13.3163C14.6277 13.3459 14.6682 13.3625 14.7104 13.3625C14.7525 13.3625 14.793 13.3459 14.823 13.3163C14.852 13.2859 14.8682 13.2456 14.8682 13.2036C14.8682 13.1616 14.852 13.1213 14.823 13.0909C14.6534 12.8824 14.4805 12.6763 14.3095 12.4688C14.2123 12.3509 14.1152 12.2328 14.0202 12.1132C13.9896 12.0747 13.893 11.9804 13.8987 11.9356L13.877 12.0163C13.8697 12.0314 13.8496 12.0291 13.8782 12.017C13.8974 12.0089 13.916 11.9995 13.9349 11.9905C13.9682 11.975 14.0014 11.959 14.0345 11.9428C14.1062 11.9073 14.177 11.8702 14.2469 11.8314C14.3954 11.7491 14.5397 11.6598 14.6799 11.5635C14.9633 11.3707 15.2279 11.1515 15.4703 10.9091H15.245C15.4537 11.1094 15.6268 11.3438 15.7569 11.6022V11.4413C15.405 12.0151 15.0771 12.6108 14.5977 13.0909C14.4527 13.2363 14.678 13.4617 14.8231 13.3163Z" fill="#747474"/>
<path d="M12.3883 13.0911C11.9089 12.6109 11.581 12.0152 11.2291 11.4415V11.6024C11.3592 11.344 11.5323 11.1096 11.741 10.9093H11.5157C11.758 11.1517 12.0227 11.3709 12.3061 11.5637C12.4423 11.657 12.5825 11.744 12.7266 11.8246C12.7965 11.8637 12.8673 11.9011 12.9391 11.9368C12.9721 11.9531 13.0053 11.9692 13.0386 11.9849C13.0586 11.9941 13.0781 12.0034 13.098 12.0124C13.1046 12.0152 13.111 12.0185 13.1171 12.0222C13.1324 12.0311 13.1297 12.0289 13.1089 12.0162L13.0872 11.9358C13.0929 11.9804 12.9962 12.0749 12.9657 12.1134C12.8706 12.2329 12.7736 12.3511 12.6764 12.469C12.5053 12.6765 12.3325 12.8825 12.1628 13.0911C12.1341 13.1216 12.118 13.1619 12.118 13.2038C12.118 13.2457 12.1341 13.286 12.1628 13.3165C12.1929 13.3461 12.2333 13.3627 12.2755 13.3627C12.3177 13.3627 12.3581 13.3461 12.3882 13.3165C12.6936 12.9412 13.0149 12.5774 13.3059 12.1908C13.367 12.1237 13.4028 12.0374 13.4072 11.9468C13.403 11.7891 13.2563 11.7379 13.1372 11.68C12.8955 11.5619 12.6633 11.4254 12.4425 11.2718C12.1912 11.0977 11.9563 10.9009 11.7409 10.6839C11.7106 10.6547 11.6702 10.6384 11.6282 10.6384C11.5862 10.6384 11.5458 10.6547 11.5155 10.6839C11.326 10.864 11.1636 11.0706 11.0333 11.2972C10.9941 11.3539 10.9621 11.4152 10.9378 11.4796C10.9155 11.5606 10.9688 11.6265 11.0083 11.6916C11.0778 11.8057 11.1464 11.9202 11.2157 12.0344C11.4922 12.4893 11.785 12.938 12.1628 13.3165C12.308 13.4618 12.5334 13.2365 12.3883 13.0911Z" fill="#747474"/>
<path d="M7.81648 13.2905C7.97707 14.5491 8.05136 15.82 8.12379 17.0863C8.21036 18.5996 8.27629 20.114 8.32157 21.6294C8.33338 22.0078 8.34394 22.3862 8.35323 22.7646C8.36193 23.1243 8.37474 23.4836 8.36153 23.8432C8.35396 24.0483 8.67263 24.0479 8.6802 23.8432C8.7041 23.1931 8.66752 22.5381 8.64813 21.888C8.626 21.1471 8.59945 20.4063 8.56847 19.6657C8.50666 18.179 8.43184 16.6921 8.31904 15.2083C8.27038 14.5681 8.21627 13.9276 8.13501 13.2907C8.13371 13.2488 8.11651 13.2091 8.08691 13.1795C8.0573 13.1498 8.01752 13.1326 7.97568 13.1313C7.93349 13.1316 7.89309 13.1484 7.86326 13.1783C7.83343 13.2081 7.81657 13.2485 7.81635 13.2907L7.81648 13.2905Z" fill="#747474"/>
<path d="M18.9048 23.8432C18.9168 23.1108 18.9393 22.3785 18.962 21.6463C18.9878 20.8155 19.0166 19.9848 19.0483 19.1542C19.079 18.3368 19.1122 17.5195 19.1479 16.7023C19.178 16.0123 19.2106 15.3225 19.2458 14.6327C19.2687 14.1958 19.2903 13.7584 19.3263 13.3223C19.3288 13.292 19.3314 13.2618 19.3343 13.2316C19.334 13.1894 19.3171 13.1491 19.2873 13.1193C19.2575 13.0894 19.2171 13.0726 19.1749 13.0723C19.133 13.0731 19.0929 13.0902 19.0633 13.1199C19.0336 13.1496 19.0165 13.1896 19.0156 13.2316C18.9787 13.6279 18.9597 14.0263 18.9382 14.4237C18.9022 15.0889 18.87 15.7542 18.8416 16.4198C18.8058 17.2274 18.7726 18.0352 18.742 18.843C18.71 19.679 18.6805 20.515 18.6535 21.3512C18.6298 22.0903 18.6094 22.8294 18.5922 23.5686C18.5902 23.6601 18.5885 23.7517 18.587 23.8433C18.5836 24.0484 18.9023 24.0484 18.9057 23.8433L18.9048 23.8432Z" fill="#747474"/>
<path d="M3.90439 12.0752C3.75567 11.4867 3.33789 10.0183 3.1842 9.82215C3.07386 9.68134 2.94321 9.57292 2.70095 9.67609C2.49329 9.76465 2.52695 10.0045 2.56625 10.2026C2.60947 10.4208 2.86673 11.4507 3.01696 11.9854C2.95989 11.9213 2.88422 11.8767 2.80054 11.8577C2.71687 11.8388 2.62936 11.8465 2.55025 11.8797C2.38547 11.9548 2.32194 12.0953 2.3404 12.1968C2.3404 12.1968 2.35493 12.2765 2.37598 12.3906C2.31676 12.3584 2.25035 12.3417 2.18295 12.3421C2.11554 12.3425 2.04932 12.3599 1.99046 12.3927C1.84819 12.4689 1.70499 12.6729 1.77489 12.82L1.8689 13.0172L1.83956 12.9931C1.65885 12.8445 1.34496 12.936 1.29397 13.1342C1.2548 13.2863 1.32093 13.4657 1.40557 13.6048C1.41566 13.6213 1.42642 13.639 1.43777 13.6579L1.4543 13.7088C1.56909 14.0643 1.79289 14.6074 2.12735 14.9944C2.2827 15.1737 2.46215 15.3519 2.60303 15.5444C2.74391 15.7369 2.77903 15.9507 2.84781 16.181L2.87841 16.2829C3.24249 16.1483 4.2672 15.7655 4.81245 15.5061L4.79307 15.4515C4.73943 15.204 4.68021 14.8823 4.71539 14.6727C4.77812 14.4362 4.85713 14.2045 4.95187 13.979C5.02933 13.7958 5.06322 13.5972 5.05086 13.3987C5.02609 13.173 4.96767 12.8508 4.79997 12.6157C4.76672 12.5699 4.7252 12.5308 4.67755 12.5002C4.67214 12.4963 4.66638 12.4928 4.66036 12.4899C4.46059 12.3674 4.19789 12.3669 3.97157 12.3765L3.95265 12.2803C3.94468 12.2393 3.92789 12.1682 3.90439 12.0752Z" fill="white"/>
<path d="M4.10615 12.2373C4.05191 11.9647 3.97038 11.6955 3.8953 11.4281C3.78761 11.0444 3.67575 10.6613 3.54742 10.284C3.45447 10.0098 3.36206 9.65213 3.07234 9.51995C2.81382 9.40198 2.45612 9.53655 2.39218 9.82674C2.34989 10.0185 2.40493 10.2204 2.44855 10.4076C2.56889 10.924 2.69976 11.4382 2.84117 11.95C2.89541 12.1475 3.20293 12.0636 3.14842 11.8652C3.02686 11.4225 2.9138 10.9773 2.80552 10.5312C2.77073 10.3876 2.73322 10.2437 2.70813 10.098C2.69485 10.02 2.68197 9.91636 2.71683 9.86066C2.74372 9.83241 2.77791 9.81216 2.81561 9.80216C2.85331 9.79217 2.89304 9.79281 2.9304 9.80403C2.96457 9.82024 2.99476 9.84377 3.01883 9.87294C3.02846 9.88317 3.06158 9.92287 3.05415 9.91278C3.04319 9.89791 3.05986 9.92134 3.06205 9.92526C3.0823 9.96111 3.10009 9.99749 3.11702 10.0351C3.13461 10.074 3.11217 10.0218 3.1218 10.0462C3.12684 10.0589 3.13202 10.0715 3.13707 10.0841C3.14968 10.1161 3.1619 10.1481 3.17371 10.1803C3.20027 10.253 3.22583 10.326 3.25053 10.3994C3.36857 10.75 3.473 11.1053 3.57351 11.4612C3.65384 11.7457 3.74127 12.0322 3.79923 12.3224C3.81046 12.3632 3.83742 12.3978 3.87418 12.4187C3.91093 12.4395 3.95447 12.4449 3.99521 12.4337C4.03595 12.4225 4.07057 12.3955 4.09143 12.3588C4.1123 12.322 4.11771 12.2785 4.10648 12.2377L4.10615 12.2373Z" fill="#747474"/>
<path d="M1.30063 13.7508C1.43151 14.1842 1.6332 14.5929 1.89754 14.9604C2.05767 15.1721 2.25093 15.3551 2.41703 15.5616C2.5759 15.7591 2.6243 15.9852 2.6942 16.223C2.7519 16.4194 3.05934 16.3359 3.00145 16.1383C2.93008 15.8953 2.87757 15.6466 2.72262 15.4396C2.56149 15.2241 2.36651 15.0388 2.19708 14.8305C1.92323 14.4939 1.74106 14.0761 1.60768 13.6661C1.54448 13.4719 1.2367 13.5551 1.30037 13.7508H1.30063Z" fill="#747474"/>
<path d="M4.14597 13.5977C4.12871 13.4776 4.08974 13.3626 4.06165 13.2448C4.03775 13.1351 3.97315 13.0385 3.88088 12.9745C3.78313 12.9183 3.6735 12.8859 3.56088 12.8799C3.52414 12.8753 3.48767 12.8688 3.45161 12.8605C3.44756 12.8599 3.44361 12.8588 3.43986 12.8572C3.46123 12.8753 3.42153 12.8259 3.41602 12.8135C3.40076 12.7815 3.39676 12.7454 3.40467 12.7109C3.41018 12.6884 3.41871 12.6667 3.43003 12.6464C3.43713 12.6327 3.44643 12.6199 3.45333 12.6061C3.4696 12.5736 3.45964 12.6016 3.45333 12.6051C3.5323 12.5749 3.61567 12.5576 3.70017 12.5541C3.92589 12.5322 4.18042 12.5119 4.38769 12.5569C4.48515 12.5709 4.57606 12.6142 4.64827 12.6811C4.71185 12.7572 4.75986 12.845 4.78954 12.9397C4.85732 13.117 4.89291 13.305 4.89464 13.4949C4.888 13.7978 4.74194 14.0567 4.64707 14.3407C4.62364 14.411 4.6006 14.4814 4.58002 14.5526C4.57411 14.5732 4.56794 14.5939 4.56369 14.615C4.5601 14.6329 4.55851 14.6511 4.55612 14.6692C4.56203 14.6248 4.55068 14.7107 4.54948 14.7267C4.52671 14.9809 4.58646 15.2461 4.63964 15.4933C4.68272 15.6937 4.98997 15.6088 4.94688 15.4085C4.89862 15.184 4.84478 14.9459 4.86914 14.7148C4.87167 14.6914 4.89012 14.6562 4.87279 14.6859C4.85892 14.7096 4.87113 14.6957 4.87525 14.6822C4.88275 14.657 4.88906 14.6315 4.89663 14.6063C4.91933 14.5309 4.94403 14.4562 4.96932 14.3817C4.99502 14.3059 5.02151 14.2303 5.04972 14.1554C5.06034 14.1272 5.0711 14.0991 5.08292 14.0713C5.07229 14.0966 5.07714 14.0839 5.08491 14.0686C5.09267 14.0533 5.09945 14.0397 5.10609 14.0249C5.19115 13.8302 5.22728 13.6176 5.21131 13.4057C5.19402 13.1687 5.13666 12.9363 5.04169 12.7184C4.99435 12.6016 4.91918 12.4982 4.82272 12.4171C4.72627 12.336 4.61145 12.2797 4.48827 12.2531C4.22833 12.2053 3.96239 12.1993 3.70057 12.2355C3.57841 12.2415 3.45785 12.2659 3.34299 12.3079C3.28812 12.3338 3.23937 12.3711 3.19997 12.4172C3.16058 12.4634 3.13144 12.5174 3.11448 12.5757C3.08771 12.6474 3.07823 12.7245 3.08681 12.8006C3.09539 12.8768 3.12179 12.9498 3.16388 13.0138C3.19571 13.0625 3.23837 13.1032 3.28852 13.1327C3.33868 13.1622 3.39497 13.1797 3.453 13.1838C3.53658 13.1959 3.68662 13.1904 3.73588 13.2715C3.76026 13.3296 3.7773 13.3906 3.78661 13.4529C3.80889 13.5281 3.82637 13.6047 3.83892 13.6822C3.85036 13.7228 3.87736 13.7572 3.91404 13.7781C3.95073 13.7989 3.99416 13.8045 4.0349 13.7935C4.07496 13.7813 4.10882 13.7542 4.12948 13.7178C4.15015 13.6813 4.15605 13.6384 4.14597 13.5977Z" fill="#747474"/>
<path d="M2.15327 13.724C2.16077 13.7506 2.1558 13.6955 2.15507 13.7331C2.15433 13.7708 2.16243 13.7191 2.15367 13.7464C2.15128 13.7539 2.13309 13.8022 2.14703 13.7716C2.13924 13.7885 2.13037 13.805 2.12048 13.8208C2.1155 13.8288 2.11005 13.8365 2.10481 13.8443C2.1062 13.8422 2.11988 13.826 2.10826 13.8398C2.09804 13.8522 2.08716 13.8639 2.07566 13.8751C2.06903 13.8813 2.06239 13.887 2.05608 13.8928C2.06106 13.8884 2.0819 13.8773 2.0582 13.8905C2.05309 13.8934 2.04785 13.8967 2.04293 13.8998C2.02342 13.9123 2.02826 13.9038 2.04572 13.8998C2.03689 13.9018 1.99825 13.9119 2.01253 13.9093C2.03244 13.9056 2.00217 13.91 1.99739 13.9103C1.98989 13.9107 1.98239 13.911 1.97489 13.9111C1.96738 13.9111 1.91168 13.9075 1.9403 13.9111C1.91954 13.9081 1.89901 13.9037 1.87889 13.8978C1.8682 13.8949 1.83241 13.8825 1.83905 13.8854C1.84709 13.8888 1.8119 13.8712 1.80387 13.8664C1.79583 13.8615 1.7872 13.856 1.77924 13.8503C1.78515 13.8545 1.79962 13.8691 1.77884 13.8488C1.7647 13.835 1.75036 13.8216 1.73695 13.807C1.72354 13.7925 1.71252 13.7792 1.70083 13.7648C1.68377 13.7439 1.71199 13.7801 1.69552 13.7582C1.69054 13.7515 1.68556 13.7449 1.68072 13.7379C1.65476 13.7019 1.63026 13.6649 1.60643 13.6272C1.56165 13.5602 1.5215 13.4902 1.48626 13.4177C1.48586 13.4167 1.47518 13.3901 1.48181 13.4071C1.47863 13.3989 1.47557 13.3906 1.47272 13.3823C1.46608 13.363 1.45984 13.3435 1.45473 13.3238C1.45181 13.3126 1.44968 13.3013 1.44689 13.2901C1.44616 13.2871 1.44172 13.2589 1.44464 13.2818C1.44178 13.2596 1.44291 13.2374 1.44198 13.2154C1.44198 13.2117 1.44431 13.1837 1.44099 13.2088C1.44215 13.2007 1.44375 13.1927 1.44577 13.1848C1.44851 13.1768 1.45072 13.1687 1.4524 13.1604C1.45387 13.145 1.44928 13.1689 1.44723 13.172C1.45287 13.1636 1.47962 13.1261 1.4532 13.1562C1.46356 13.1444 1.47451 13.1337 1.48553 13.123C1.49323 13.1153 1.50704 13.1118 1.48135 13.1259C1.48832 13.122 1.49463 13.1169 1.50127 13.1126C1.50791 13.1084 1.51567 13.105 1.52258 13.1008C1.54714 13.0858 1.50704 13.1032 1.52417 13.0995C1.5403 13.0959 1.55591 13.0886 1.57217 13.0848C1.58034 13.0829 1.5889 13.0819 1.59693 13.0797C1.61725 13.0742 1.56062 13.0806 1.59879 13.0802C1.61585 13.0802 1.63278 13.0802 1.64978 13.0802C1.66007 13.0802 1.67633 13.0873 1.64546 13.0791C1.65363 13.0813 1.66219 13.0823 1.67043 13.0844C1.67866 13.0864 1.68676 13.0895 1.69499 13.0916C1.72214 13.0982 1.68576 13.0826 1.69844 13.0925C1.70681 13.0991 1.75308 13.1272 1.72633 13.1062C1.75683 13.1348 1.79712 13.1508 1.83899 13.1508C1.88085 13.1508 1.92114 13.1348 1.95165 13.1062C1.98129 13.0762 1.99791 13.0357 1.99791 12.9935C1.99791 12.9513 1.98129 12.9108 1.95165 12.8808C1.86791 12.8136 1.76596 12.7729 1.65892 12.764C1.55187 12.7552 1.44463 12.7785 1.35096 12.8311C1.13892 12.9488 1.08939 13.1865 1.14688 13.4087C1.17971 13.5219 1.22913 13.6297 1.29354 13.7284C1.3518 13.8269 1.41761 13.9208 1.49038 14.0091C1.56424 14.0958 1.66035 14.1608 1.76837 14.197C1.87639 14.2331 1.99222 14.2392 2.10341 14.2144C2.33146 14.1613 2.52505 13.8696 2.45999 13.6395C2.44876 13.5988 2.42179 13.5642 2.38503 13.5433C2.34827 13.5224 2.30473 13.517 2.26398 13.5282C2.22322 13.5395 2.1886 13.5664 2.16773 13.6032C2.14686 13.6399 2.14144 13.6835 2.15268 13.7242L2.15327 13.724Z" fill="#747474"/>
<path d="M2.54473 12.3271C2.34557 12.108 1.99105 12.1595 1.78943 12.344C1.73341 12.3925 1.68759 12.4516 1.6546 12.5179C1.62162 12.5842 1.60214 12.6563 1.5973 12.7302C1.59637 12.8716 1.68725 13.0054 1.75663 13.1233C1.87109 13.318 2.00785 13.5051 2.1381 13.6898C2.19231 13.7751 2.25699 13.8533 2.33063 13.9226C2.44025 14.0078 2.57703 14.0505 2.71569 14.0427C3.06589 14.0277 3.25788 13.6848 3.16979 13.3633C3.11568 13.1657 2.80816 13.2496 2.86247 13.448C2.87556 13.4838 2.87962 13.5223 2.87429 13.56C2.86896 13.5977 2.85441 13.6336 2.83193 13.6643C2.81938 13.6786 2.80521 13.6913 2.78971 13.7022C2.76118 13.7192 2.72813 13.727 2.69504 13.7245C2.65737 13.7243 2.61999 13.7178 2.5845 13.7052C2.57125 13.6982 2.55759 13.6919 2.5436 13.6864C2.54082 13.6858 2.52369 13.6737 2.5436 13.6877C2.56485 13.7026 2.53637 13.6805 2.53404 13.6781C2.48896 13.6324 2.44845 13.5825 2.41308 13.5289C2.32207 13.3998 2.2329 13.2688 2.14335 13.1388C2.0791 13.0448 2.02015 12.9473 1.96675 12.8467C1.94752 12.8132 1.93053 12.7784 1.9159 12.7426C1.91988 12.7537 1.9159 12.728 1.9159 12.7251C1.91942 12.7056 1.926 12.6867 1.93542 12.6692C1.95411 12.6313 1.98042 12.5977 2.0127 12.5704C2.04498 12.5431 2.08254 12.5228 2.12303 12.5107C2.1562 12.4977 2.19244 12.4947 2.22729 12.5021C2.26214 12.5094 2.29407 12.5268 2.31914 12.5521C2.45743 12.7041 2.68223 12.4783 2.54447 12.3268L2.54473 12.3271Z" fill="#747474"/>
<path d="M3.41367 13.081C3.41957 13.1186 3.41598 13.1571 3.40323 13.1929C3.39047 13.2288 3.36896 13.2609 3.34065 13.2863C3.32155 13.3047 3.29752 13.3173 3.27146 13.3224C3.2454 13.3274 3.21843 13.3249 3.19379 13.315C3.12144 13.2689 3.06326 13.2036 3.0257 13.1265C2.95433 13.0094 2.88097 12.8937 2.80661 12.7784C2.68585 12.5901 2.5477 12.3951 2.49737 12.1738C2.49737 12.173 2.49034 12.1416 2.49492 12.1605C2.4995 12.1794 2.50222 12.1406 2.49551 12.1562C2.48881 12.1718 2.5072 12.1167 2.50049 12.1333C2.51415 12.1009 2.53676 12.073 2.56569 12.053C2.60141 12.0267 2.64368 12.0107 2.68787 12.0068C2.73206 12.0029 2.77647 12.0113 2.81624 12.031C2.90626 12.0735 2.96973 12.1731 3.02868 12.25C3.09653 12.339 3.16252 12.4302 3.22181 12.5252C3.33016 12.6988 3.606 12.539 3.49699 12.3644C3.42307 12.2487 3.3433 12.1368 3.25799 12.0292C3.17228 11.9188 3.08664 11.8062 2.95652 11.7457C2.66852 11.6118 2.27099 11.7372 2.18966 12.0684C2.15547 12.2078 2.21084 12.3496 2.26634 12.4756C2.33415 12.6201 2.41288 12.7593 2.50182 12.8919C2.59165 13.0328 2.67895 13.1752 2.76857 13.3161C2.84299 13.4505 2.9591 13.5571 3.09939 13.6198C3.17644 13.6437 3.25835 13.6476 3.3373 13.6308C3.41624 13.6141 3.48958 13.5775 3.5503 13.5243C3.61337 13.4699 3.66272 13.4014 3.69434 13.3243C3.72597 13.2473 3.73899 13.1639 3.73234 13.0808C3.72198 12.8768 3.40325 12.8756 3.41367 13.0808V13.081Z" fill="#747474"/>
<path d="M11.0305 11.5475C10.172 11.9451 9.2791 12.2717 8.40443 12.6349C7.9397 12.8278 7.39259 13.0023 7.10858 13.4466C7.03286 13.5743 6.97045 13.7094 6.92236 13.8499C6.86294 14.0065 6.80332 14.163 6.74636 14.3206C6.64167 14.6102 6.54428 14.9023 6.451 15.1958C6.24241 15.8521 6.04085 16.5093 5.79494 17.153C5.78405 17.1938 5.78961 17.2372 5.81043 17.2738C5.83125 17.3105 5.86565 17.3375 5.90621 17.349C5.94692 17.3593 5.99004 17.3535 6.02656 17.3328C6.06307 17.312 6.09017 17.278 6.10219 17.2378C6.31928 16.6697 6.50391 16.0914 6.68555 15.5112C6.8652 14.9375 7.04405 14.3542 7.28219 13.8015C7.33487 13.6706 7.41325 13.5516 7.51269 13.4515C7.6244 13.3508 7.75099 13.2679 7.88799 13.2058C8.06246 13.1195 8.25127 13.0414 8.41737 12.972C8.87054 12.7827 9.3269 12.6011 9.78193 12.4167C10.2542 12.2253 10.7289 12.0367 11.1914 11.8225C11.2276 11.801 11.2539 11.766 11.2646 11.7252C11.2753 11.6845 11.2695 11.6411 11.2485 11.6045C11.2265 11.5687 11.1916 11.5428 11.151 11.5322C11.1104 11.5215 11.0672 11.527 11.0305 11.5474V11.5475Z" fill="#747474"/>
<path d="M6.49358 18.1335C6.07154 17.1988 5.68562 16.2492 5.29944 15.2993C5.29244 15.2761 5.28034 15.2548 5.26403 15.2369C5.24772 15.219 5.22761 15.205 5.20517 15.1958C5.18274 15.1867 5.15854 15.1827 5.13436 15.1841C5.11018 15.1855 5.08663 15.1924 5.06542 15.2041C4.66651 15.4137 4.25946 15.6072 3.84426 15.7844C3.45533 15.9596 3.05111 16.0986 2.63671 16.1998C2.59617 16.2114 2.56179 16.2384 2.54098 16.2751C2.52016 16.3117 2.51459 16.3551 2.52544 16.3958C2.76298 17.1552 2.99056 17.9181 3.25911 18.6674C3.39653 19.0508 3.54518 19.4302 3.70896 19.8032C3.82687 20.0878 3.96342 20.3642 4.11772 20.6308C4.26705 20.8901 4.46688 21.1168 4.70539 21.2975C4.96291 21.4792 5.27041 21.5766 5.58558 21.5763C5.93743 21.5739 6.28361 21.4874 6.59528 21.3241C6.86149 21.1776 7.10187 20.9885 7.30684 20.7642C7.73086 20.3269 8.12791 19.8643 8.4958 19.3789C8.51689 19.3423 8.52272 19.2989 8.51202 19.2581C8.50132 19.2173 8.47495 19.1823 8.43864 19.1608C8.40192 19.1406 8.35881 19.1352 8.31823 19.1458C8.27766 19.1565 8.24273 19.1823 8.22069 19.218L8.16054 19.2966C8.14786 19.3131 8.13524 19.3298 8.1225 19.3463C8.11871 19.3512 8.11506 19.3562 8.11128 19.3609C8.13458 19.3313 8.11606 19.3543 8.10318 19.3703C8.02687 19.4659 7.94942 19.5605 7.87082 19.6542C7.67636 19.8871 7.47739 20.1165 7.27106 20.339C7.08796 20.5366 6.89981 20.7483 6.67774 20.9034C6.41781 21.0862 6.1176 21.2036 5.8026 21.2456C5.5212 21.2877 5.23376 21.2364 4.98429 21.0995C4.76247 20.9613 4.57656 20.7724 4.44176 20.5485C4.28703 20.2981 4.15198 20.036 4.03785 19.7646C3.88856 19.4289 3.75081 19.0886 3.62458 18.7436C3.33034 17.9429 3.08683 17.125 2.83249 16.3112L2.72122 16.5072C3.15342 16.4002 3.57491 16.2538 3.98042 16.07C4.40345 15.8905 4.81865 15.6935 5.22601 15.4791L4.99199 15.3839C5.38853 16.3592 5.78487 17.3344 6.2182 18.2942C6.23975 18.3304 6.2747 18.3568 6.31549 18.3675C6.35629 18.3782 6.39965 18.3724 6.43622 18.3514C6.47194 18.3293 6.49782 18.2944 6.50846 18.2538C6.5191 18.2132 6.5137 18.1701 6.49338 18.1333L6.49358 18.1335Z" fill="#747474"/>
<path d="M15.8426 11.7986C16.7126 12.1501 17.5963 12.4825 18.4575 12.8461C18.6359 12.9213 18.8223 13.0015 19.0007 13.0855C19.2637 13.2095 19.5556 13.3179 19.7248 13.5678C19.9174 13.8523 20.0219 14.2028 20.1298 14.5258C20.2434 14.8655 20.3412 15.2104 20.4279 15.5581C20.6271 16.3561 20.7683 17.167 20.9228 17.9746C20.9343 18.0151 20.9613 18.0495 20.998 18.0703C21.0347 18.0911 21.078 18.0967 21.1187 18.0859C21.159 18.0739 21.1931 18.0468 21.2138 18.0103C21.2346 17.9737 21.2404 17.9306 21.23 17.8899C21.0886 17.1505 20.9578 16.4084 20.7843 15.6757C20.6996 15.3182 20.6043 14.9631 20.493 14.6129C20.3914 14.2658 20.2636 13.9269 20.1106 13.5992C20.037 13.4413 19.9341 13.2988 19.8073 13.1793C19.6761 13.0698 19.53 12.9794 19.3733 12.9109C19.1801 12.8192 18.9865 12.7292 18.7901 12.6444C18.3027 12.4341 17.8095 12.2369 17.3163 12.0409C16.8535 11.8571 16.3889 11.678 15.9273 11.4916C15.8865 11.4806 15.8431 11.4862 15.8064 11.507C15.7697 11.5278 15.7427 11.5623 15.7313 11.6029C15.7211 11.6436 15.7269 11.6866 15.7477 11.7231C15.7684 11.7596 15.8024 11.7868 15.8426 11.7988V11.7986Z" fill="#747474"/>
<path d="M17.28 6.0243C17.3181 5.99297 17.3621 5.96968 17.4094 5.95583C17.4568 5.94198 17.5064 5.93786 17.5554 5.94371C17.6043 5.94957 17.6516 5.96528 17.6943 5.9899C17.737 6.01452 17.7743 6.04754 17.8039 6.08697C17.8552 6.18362 17.8796 6.29228 17.8746 6.40159C17.8812 6.53583 17.8736 6.6704 17.8519 6.80304C17.7718 7.27195 17.5247 7.84369 17.0022 7.93338C16.9616 7.9449 16.9272 7.97191 16.9063 8.00859C16.8855 8.04527 16.8799 8.08867 16.8908 8.12943C16.9029 8.16965 16.93 8.20367 16.9665 8.22439C17.003 8.24512 17.0462 8.25096 17.0869 8.24069C17.628 8.14775 17.9492 7.63655 18.0973 7.14859C18.1752 6.89243 18.2067 6.62441 18.1903 6.35717C18.1733 6.09487 18.0939 5.8481 17.8521 5.71161C17.7262 5.64231 17.5821 5.61351 17.4393 5.62915C17.2965 5.64478 17.162 5.70409 17.0541 5.79897C17.0246 5.82903 17.008 5.86949 17.008 5.91164C17.008 5.95378 17.0246 5.99424 17.0541 6.0243C17.0844 6.05339 17.1248 6.06963 17.1668 6.06963C17.2088 6.06963 17.2492 6.05339 17.2795 6.0243H17.28Z" fill="#747474"/>
<path d="M16.8799 7.69116C16.8712 7.84422 16.8429 7.99553 16.7955 8.14134C16.7793 8.19558 16.7616 8.24935 16.7436 8.303C16.7377 8.32072 16.732 8.33858 16.7255 8.35611C16.7211 8.36806 16.7013 8.41207 16.7217 8.3666C16.6534 8.51551 16.5749 8.65952 16.4867 8.79759C16.2366 9.21182 15.9178 9.58045 15.544 9.8877C15.3383 10.058 15.0974 10.1805 14.8386 10.2462C14.6388 10.2921 14.7234 10.5995 14.9233 10.5534C15.4525 10.4318 15.896 10.0517 16.2457 9.65315C16.5452 9.32367 16.795 8.95217 16.987 8.55043C17.1119 8.28024 17.1838 7.98862 17.1988 7.69135C17.2054 7.48621 16.8868 7.48648 16.8801 7.69135L16.8799 7.69116Z" fill="#747474"/>
<path d="M10.1441 5.79905C10.0497 5.71552 9.93448 5.65919 9.81062 5.63607C9.68677 5.61296 9.55896 5.62392 9.44086 5.6678C9.18035 5.77057 9.05009 5.98972 9.01703 6.25939C8.95461 6.79195 9.09056 7.32886 9.3989 7.76754C9.56607 8.01177 9.82163 8.18146 10.1116 8.24076C10.1523 8.25078 10.1953 8.24482 10.2317 8.22413C10.2682 8.20344 10.2953 8.16958 10.3076 8.1295C10.3185 8.08875 10.3129 8.04535 10.2921 8.00867C10.2713 7.97199 10.2369 7.94497 10.1963 7.93345C9.67402 7.84376 9.42692 7.27202 9.34652 6.80311C9.3256 6.67538 9.31784 6.54584 9.32335 6.41653C9.32727 6.30725 9.33211 6.18138 9.39445 6.08704C9.42403 6.04756 9.46131 6.01449 9.50404 5.98983C9.54677 5.96517 9.59406 5.94943 9.64305 5.94357C9.69203 5.93771 9.7417 5.94185 9.78904 5.95574C9.83637 5.96963 9.8804 5.99298 9.91846 6.02437C9.94885 6.05326 9.98919 6.06938 10.0311 6.06938C10.0731 6.06938 10.1134 6.05326 10.1438 6.02437C10.1733 5.99431 10.1899 5.95385 10.1899 5.91171C10.1899 5.86956 10.1733 5.8291 10.1438 5.79905H10.1441Z" fill="#747474"/>
<path d="M10.0214 7.6399C10.215 8.75676 10.8203 9.84972 11.8551 10.3887C12.1347 10.5344 12.4395 10.6256 12.7531 10.6573C12.7953 10.6571 12.8357 10.6402 12.8655 10.6104C12.8953 10.5805 12.9122 10.5402 12.9125 10.498C12.9115 10.456 12.8945 10.416 12.8648 10.3864C12.8351 10.3567 12.7951 10.3396 12.7531 10.3387C11.6865 10.2281 10.8553 9.27147 10.5204 8.31056C10.436 8.06443 10.3719 7.81179 10.3287 7.55518C10.3172 7.51463 10.2902 7.48024 10.2535 7.45942C10.2169 7.43861 10.1735 7.43304 10.1328 7.44392C10.0925 7.45595 10.0585 7.48305 10.0378 7.51956C10.017 7.55607 10.0112 7.59918 10.0214 7.6399Z" fill="#747474"/>
<path d="M20.6981 20.2743C21.0513 19.9598 22.417 18.754 22.7163 18.4542C22.4707 18.1999 22.0008 17.9527 21.4367 17.9001C20.9529 17.844 20.463 17.8701 19.9878 17.9772C19.5086 18.0967 18.8879 18.3928 18.5554 18.7739C18.1487 18.3858 17.5463 18.2144 17.0007 18.1963C16.4483 18.1804 15.8985 18.2791 15.386 18.4862C14.9692 18.6528 14.632 18.8919 14.4008 19.3355C14.7205 19.615 16.2235 20.645 16.5561 20.9089L20.6981 20.2743Z" fill="#747474"/>
<path d="M14.3274 18.4879C14.2454 18.5654 14.1694 18.649 14.1 18.738C14.2225 18.866 14.3527 18.9863 14.49 19.0983L14.5282 19.1267C14.7492 18.8128 15.0402 18.6246 15.3863 18.4863C15.8987 18.2793 16.4485 18.1806 17.001 18.1965C17.5466 18.2145 18.1489 18.3859 18.5557 18.7741C18.8881 18.3927 19.5088 18.0969 19.988 17.9774C20.4632 17.8702 20.9531 17.8442 21.4369 17.9003C21.7282 17.927 22.0119 18.0079 22.2734 18.1389L22.2844 18.128C22.3692 18.0475 22.5387 17.878 22.6827 17.7254C22.1614 17.3312 21.8691 17.2723 21.2544 17.2126C20.7866 17.1671 20.2551 17.1517 19.7977 17.2657C19.3404 17.3797 18.7538 17.5707 18.4289 17.9322C18.063 17.6743 17.551 17.5281 17.0011 17.51C16.4486 17.494 15.8988 17.5927 15.3864 17.7998C15.1509 17.8882 14.9279 18.007 14.7232 18.1532C14.5851 18.2572 14.4529 18.3689 14.3274 18.4879Z" fill="white"/>
<path d="M19.394 19.458C19.3747 19.4424 19.3552 19.4271 19.3356 19.4119C19.0848 19.2182 18.9031 19.1879 18.6451 19.3322L18.5071 19.452C18.4018 19.3402 18.3124 19.2476 18.2742 19.2145C18.2192 19.1648 18.1523 19.1301 18.08 19.1138C18.0077 19.0975 17.9324 19.1002 17.8614 19.1216C17.6985 19.1822 17.6303 19.2712 17.6303 19.4076C17.6303 19.4076 17.6237 19.4569 17.6149 19.5235C17.5286 19.4321 17.4507 19.3534 17.3914 19.3002C17.3412 19.2552 17.0964 19.1342 16.9333 19.257C16.7896 19.3649 16.7673 19.5093 16.8507 19.6363C16.8594 19.651 16.8673 19.6661 16.8745 19.6817L16.838 19.6626C16.7919 19.6371 16.7408 19.6217 16.6882 19.6175C16.6356 19.6133 16.5827 19.6203 16.533 19.6382C16.4834 19.6561 16.4381 19.6844 16.4002 19.7212C16.3624 19.7579 16.3329 19.8024 16.3136 19.8515C16.2878 19.969 16.3026 20.0917 16.3555 20.1997C16.4611 20.4037 16.9221 20.9154 17.171 21.1784C17.7411 21.5817 18.651 21.3008 19.3797 21.1314C19.4822 21.1061 19.5797 21.0641 19.6685 21.0071C19.9412 20.8179 20.0815 20.5854 20.3041 20.3394C20.3987 20.2482 20.4826 20.1465 20.5542 20.0363C20.6267 19.8947 20.6865 19.7406 20.646 19.5867C20.6296 19.5061 20.5843 19.4343 20.5186 19.3846C20.4102 19.3131 20.2652 19.3472 20.1449 19.3963C19.9653 19.4697 19.7982 19.5708 19.6498 19.6959C19.5707 19.6103 19.4852 19.5307 19.394 19.458Z" fill="white"/>
<path d="M19.5885 20.8696C19.4348 20.9758 19.2391 21.001 19.0613 21.0439C18.8473 21.0956 18.6328 21.1463 18.4156 21.1826C18.047 21.2443 17.6283 21.2735 17.2963 21.071C17.1207 20.9639 16.9605 21.2394 17.1355 21.3461C17.5291 21.5863 18.0083 21.5667 18.4472 21.4988C18.6782 21.4629 18.906 21.4094 19.1331 21.3546C19.3416 21.3044 19.569 21.2696 19.7494 21.145C19.7851 21.123 19.8109 21.0881 19.8215 21.0475C19.8322 21.0069 19.8268 20.9638 19.8065 20.9271C19.785 20.8909 19.75 20.8646 19.7092 20.8539C19.6685 20.8432 19.6251 20.849 19.5885 20.8699V20.8696Z" fill="#747474"/>
<path d="M19.8945 19.7445C19.7313 19.5229 19.5271 19.3344 19.2931 19.1895C19.1873 19.1231 19.0657 19.0862 18.9409 19.0825C18.8082 19.0874 18.6789 19.1258 18.565 19.1941C18.5286 19.2154 18.502 19.2504 18.4913 19.2913C18.4806 19.3321 18.4865 19.3756 18.5079 19.4121C18.5292 19.4486 18.5641 19.4751 18.605 19.4859C18.6459 19.4966 18.6893 19.4906 18.7258 19.4693C18.7632 19.4465 18.8034 19.4287 18.8453 19.4162C18.8682 19.4091 18.8915 19.4037 18.9152 19.4003C18.8872 19.404 18.9387 19.4007 18.9484 19.4009C18.9522 19.4009 18.9919 19.4039 18.9719 19.4017C18.9546 19.3997 18.9848 19.4042 18.9879 19.4049C19.0081 19.4093 19.0281 19.415 19.0476 19.4218C19.0543 19.4242 19.0808 19.4358 19.0625 19.4273C19.0729 19.4321 19.0831 19.4372 19.0932 19.4425C19.1175 19.4552 19.1411 19.469 19.1641 19.4842C19.3382 19.5982 19.4921 19.7404 19.6194 19.9051C19.6416 19.9406 19.6765 19.9663 19.717 19.9769C19.7576 19.9875 19.8006 19.9823 19.8374 19.9622C19.8737 19.9407 19.9 19.9058 19.9107 19.865C19.9214 19.8242 19.9156 19.7808 19.8946 19.7443L19.8945 19.7445Z" fill="#747474"/>
<path d="M19.1603 19.9129C18.9859 19.7487 18.8295 19.5626 18.6657 19.388C18.5844 19.3017 18.5038 19.2134 18.4184 19.1309C18.3498 19.0612 18.2658 19.0086 18.1732 18.9774C18.0805 18.9463 17.9818 18.9375 17.8851 18.9517C17.7732 18.9664 17.6703 19.0203 17.5945 19.1038C17.5186 19.1873 17.4749 19.295 17.471 19.4077C17.4664 19.6129 17.7851 19.6128 17.7897 19.4077C17.7906 19.3645 17.7867 19.3689 17.8088 19.3356C17.7955 19.3555 17.8306 19.3139 17.8373 19.309C17.8286 19.3157 17.8747 19.2886 17.8829 19.2848C17.9172 19.2683 17.955 19.2603 17.9931 19.2612C18.0311 19.2621 18.0685 19.2721 18.102 19.2902C18.2067 19.3403 18.289 19.4532 18.367 19.5358C18.5561 19.7356 18.7348 19.9504 18.9353 20.139C19.0845 20.2795 19.3103 20.0546 19.1606 19.9137L19.1603 19.9129Z" fill="#747474"/>
<path d="M16.6689 20.7965C16.0847 20.3345 15.4547 19.929 14.8551 19.4872C14.7831 19.4341 14.7115 19.3804 14.6404 19.3262C14.6217 19.3118 14.6607 19.342 14.6427 19.3279L14.6191 19.3095C14.6058 19.2992 14.5931 19.2889 14.5802 19.2785C14.5577 19.2604 14.5355 19.242 14.5138 19.2231L14.5387 19.4161C14.6543 19.1893 14.8241 18.9945 15.0329 18.849C15.2671 18.699 15.5231 18.5861 15.7917 18.514C16.3797 18.3396 17.0278 18.2862 17.6246 18.4495C17.929 18.5264 18.21 18.6765 18.4432 18.8867C18.4733 18.9162 18.5137 18.9326 18.5558 18.9326C18.5979 18.9326 18.6384 18.9162 18.6685 18.8867C19.0071 18.5047 19.5208 18.2622 20.0086 18.1365C20.3257 18.059 20.6517 18.0244 20.9779 18.0336C21.2914 18.0289 21.6039 18.0709 21.905 18.1584C22.1672 18.2369 22.4069 18.3769 22.604 18.5668V18.3415C22.3745 18.5704 22.129 18.7843 21.8881 19.001C21.5752 19.2824 21.2612 19.5626 20.9461 19.8414C20.8259 19.9482 20.7057 20.0549 20.5855 20.1616C20.4321 20.2982 20.6581 20.523 20.8109 20.3869C21.3738 19.8856 21.9403 19.3882 22.4965 18.8792C22.6087 18.7766 22.7215 18.6742 22.8293 18.5668C22.8586 18.5366 22.8749 18.4962 22.8749 18.4541C22.8749 18.4121 22.8586 18.3717 22.8293 18.3415C22.3907 17.8953 21.7556 17.7495 21.1523 17.7204C20.4949 17.6774 19.8375 17.8031 19.2424 18.0856C18.9413 18.2239 18.6698 18.4194 18.4431 18.6611H18.6684C18.1991 18.2203 17.5414 18.0405 16.9095 18.035C16.5434 18.0327 16.1787 18.0792 15.8249 18.1733C15.5102 18.2492 15.2084 18.3715 14.9295 18.536C14.6478 18.7126 14.418 18.9608 14.2637 19.2553C14.2464 19.2858 14.2395 19.3211 14.2439 19.356C14.2484 19.3908 14.2641 19.4232 14.2886 19.4484C14.5371 19.6644 14.8143 19.8514 15.0815 20.043C15.4188 20.285 15.7587 20.5237 16.0956 20.7659C16.1683 20.8181 16.2407 20.8707 16.313 20.9236C16.3418 20.9448 16.3704 20.966 16.3993 20.9875L16.4356 21.015C16.4524 21.0277 16.4072 20.9927 16.4442 21.0217C16.4747 21.0504 16.515 21.0664 16.5569 21.0664C16.5987 21.0664 16.639 21.0504 16.6695 21.0217C16.6992 20.9917 16.7158 20.9512 16.7158 20.909C16.7158 20.8668 16.6992 20.8264 16.6695 20.7963L16.6689 20.7965Z" fill="#747474"/>
<path d="M14.5704 18.9607C14.603 18.9855 14.5695 18.9593 14.5571 18.9489C14.5405 18.9349 14.5241 18.9208 14.5078 18.9064C14.4666 18.8703 14.4259 18.8334 14.3857 18.7962C14.3239 18.7437 14.2662 18.6866 14.2131 18.6254V18.8507C14.5789 18.3781 15.0991 18.0557 15.6604 17.8688C16.25 17.6634 16.8827 17.6138 17.4972 17.7247C17.8018 17.78 18.0918 17.8975 18.349 18.07C18.3794 18.0876 18.4149 18.0947 18.4498 18.0902C18.4847 18.0857 18.5171 18.0698 18.5421 18.045C18.7304 17.8535 18.9595 17.7069 19.2122 17.6159C19.478 17.5084 19.7544 17.4289 20.0367 17.3788C20.3643 17.3315 20.6963 17.3227 21.0259 17.3527C21.2975 17.3639 21.5675 17.3997 21.8327 17.4594C22.1137 17.5412 22.3756 17.6784 22.6028 17.8629L22.5705 17.6126C22.4407 17.7496 22.3087 17.8848 22.1722 18.0152C22.0236 18.1571 22.2491 18.3822 22.3975 18.2406C22.5341 18.1102 22.6661 17.975 22.7959 17.8379C22.8126 17.8204 22.8252 17.7994 22.8327 17.7765C22.8403 17.7535 22.8426 17.7291 22.8395 17.7051C22.8364 17.6811 22.828 17.6581 22.8148 17.6378C22.8017 17.6175 22.7842 17.6004 22.7636 17.5877C22.5372 17.408 22.2812 17.2691 22.0072 17.1773C21.7242 17.1019 21.434 17.0568 21.1414 17.0428C20.7933 17.0083 20.4425 17.011 20.0949 17.0507C19.7841 17.0939 19.4793 17.1728 19.1866 17.2858C18.868 17.406 18.5502 17.5651 18.3169 17.8197L18.51 17.7948C17.9904 17.4339 17.3174 17.3239 16.6966 17.353C16.0393 17.3837 15.346 17.5676 14.7846 17.9187C14.4805 18.107 14.211 18.3461 13.9879 18.6256C13.9597 18.6563 13.944 18.6965 13.944 18.7382C13.944 18.7799 13.9597 18.8202 13.9879 18.8509C14.1126 18.9958 14.2544 19.125 14.4101 19.2359C14.4466 19.257 14.49 19.2628 14.5308 19.2521C14.5716 19.2414 14.6066 19.2151 14.6281 19.1788C14.6484 19.1421 14.6538 19.0989 14.6432 19.0583C14.6325 19.0177 14.6067 18.9828 14.5709 18.9608L14.5704 18.9607Z" fill="#747474"/>
<path d="M16.9187 19.5249C16.8288 19.4755 16.7265 19.4529 16.6241 19.46C16.5217 19.4671 16.4235 19.5034 16.3411 19.5647C16.2749 19.6125 16.2219 19.6763 16.1872 19.7502C16.1525 19.8241 16.1372 19.9056 16.1427 19.9871C16.1554 20.1558 16.2204 20.3163 16.3286 20.4462C16.4348 20.5891 16.5498 20.7255 16.6672 20.8596C16.7941 21.005 16.924 21.1478 17.0567 21.2881C17.1978 21.4375 17.4228 21.2118 17.282 21.0624C17.0331 20.8091 16.8 20.5405 16.5843 20.2584C16.5477 20.2123 16.5158 20.1626 16.4893 20.1101C16.4701 20.0642 16.4605 20.0148 16.4611 19.9651C16.4619 19.9524 16.4619 19.9397 16.4611 19.927C16.4618 19.9216 16.4756 19.8687 16.4666 19.8938C16.4577 19.919 16.4777 19.8756 16.4808 19.8705C16.5019 19.8361 16.4609 19.8898 16.4909 19.8572C16.5106 19.8334 16.5347 19.8137 16.5619 19.7992C16.5922 19.7833 16.6259 19.7751 16.6601 19.7752C16.6944 19.7754 16.728 19.7839 16.7582 19.8C16.7949 19.8203 16.8381 19.8256 16.8786 19.815C16.9192 19.8044 16.9542 19.7785 16.9762 19.7429C16.9972 19.7063 17.0029 19.663 16.9922 19.6222C16.9815 19.5814 16.9552 19.5465 16.9191 19.5249H16.9187Z" fill="#747474"/>
<path d="M18.3847 20.1321C18.2206 19.9543 18.0607 19.7728 17.8975 19.5943C17.8169 19.5061 17.7358 19.4183 17.6525 19.3326C17.591 19.2619 17.5215 19.1985 17.4455 19.1437C17.2029 18.9895 16.865 19.0129 16.7052 19.2721C16.5226 19.5683 16.7926 19.8382 16.9695 20.0546C17.1697 20.3042 17.383 20.5428 17.6087 20.7695C17.7548 20.9136 17.9805 20.6884 17.8341 20.5441C17.6565 20.369 17.4892 20.1849 17.3295 19.9931C17.2483 19.8955 17.1685 19.7969 17.088 19.6987C17.0506 19.6541 17.0172 19.6063 16.9884 19.5558C16.9802 19.5425 16.973 19.5286 16.967 19.5142C16.966 19.5115 16.9594 19.4756 16.9611 19.4903C16.9626 19.5036 16.9656 19.4623 16.9607 19.4818C16.9695 19.4449 16.9915 19.4125 17.0226 19.3908C17.0538 19.369 17.0918 19.3595 17.1295 19.3639C17.167 19.3694 17.2038 19.3793 17.239 19.3934C17.2206 19.3858 17.2608 19.4047 17.269 19.4094C17.2757 19.4131 17.2823 19.4184 17.2894 19.4218C17.3153 19.4342 17.271 19.4003 17.2832 19.417C17.3081 19.4445 17.335 19.4701 17.3636 19.4937C17.3976 19.5273 17.431 19.5616 17.464 19.5961C17.537 19.6721 17.6082 19.7495 17.6792 19.8271C17.8399 20.0032 17.9978 20.1821 18.1593 20.3573C18.2987 20.5084 18.5236 20.2826 18.3846 20.132L18.3847 20.1321Z" fill="#747474"/>
<path d="M19.849 19.7414C19.9429 19.675 20.0425 19.617 20.1467 19.5682C20.2174 19.5354 20.3239 19.4828 20.4042 19.5057C20.4709 19.5246 20.4951 19.6119 20.4998 19.6731C20.4983 19.7807 20.4659 19.8855 20.4064 19.9751C20.3559 20.0513 20.297 20.1216 20.2308 20.1846C20.1602 20.2599 20.0939 20.3388 20.0284 20.4185C19.9025 20.5878 19.7546 20.7394 19.5885 20.8695C19.5529 20.8916 19.5271 20.9265 19.5165 20.967C19.5058 21.0076 19.5112 21.0507 19.5314 21.0874C19.5529 21.1236 19.5879 21.1499 19.6287 21.1606C19.6695 21.1713 19.7128 21.1656 19.7494 21.1446C19.9785 20.9823 20.1445 20.7721 20.3237 20.5595C20.4025 20.4659 20.4892 20.3798 20.5687 20.2873C20.6627 20.1782 20.7345 20.0517 20.7798 19.9149C20.8677 19.6535 20.7943 19.2829 20.4924 19.2002C20.2192 19.1252 19.9023 19.3162 19.6881 19.4665C19.6525 19.4886 19.6267 19.5236 19.616 19.5641C19.6054 19.6047 19.6107 19.6478 19.631 19.6845C19.6525 19.7208 19.6875 19.747 19.7283 19.7577C19.769 19.7684 19.8124 19.7627 19.849 19.7417V19.7414Z" fill="#747474"/>
<path d="M12.9592 8.76606C13.1683 8.87401 13.4011 8.92777 13.6364 8.9224C13.8774 8.92088 14.1227 8.87414 14.3159 8.72324C14.3456 8.69324 14.3623 8.65276 14.3623 8.61057C14.3623 8.56839 14.3456 8.5279 14.3159 8.49791C14.2856 8.469 14.2452 8.45288 14.2033 8.45288C14.1613 8.45288 14.121 8.469 14.0906 8.49791C14.1378 8.4612 14.0973 8.49214 14.0849 8.4999C14.0712 8.50873 14.057 8.5169 14.0424 8.52453C14.0324 8.52978 13.9827 8.55062 14.0225 8.53542C14.0031 8.54286 13.9837 8.55036 13.9639 8.55673C13.8511 8.59265 13.7328 8.60839 13.6145 8.6032C13.5017 8.60632 13.3891 8.59116 13.2811 8.55833C13.2597 8.55169 13.2388 8.54425 13.2176 8.53695C13.211 8.53462 13.2043 8.53104 13.1972 8.52898C13.2364 8.54047 13.2086 8.53409 13.1981 8.52898C13.1718 8.51663 13.1459 8.50369 13.1203 8.49014C13.0836 8.46972 13.0404 8.46426 12.9998 8.47491C12.9592 8.48557 12.9242 8.5115 12.9023 8.5473C12.8814 8.5839 12.8757 8.62722 12.8864 8.66797C12.8971 8.70873 12.9233 8.74367 12.9594 8.76533L12.9592 8.76606Z" fill="#747474"/>
<path d="M13.5641 7.15957C13.5957 7.27377 13.621 7.38961 13.64 7.50659L13.6342 7.46423C13.6365 7.48009 13.6369 7.49615 13.6355 7.5121L13.6412 7.46974C13.6402 7.47709 13.6384 7.48432 13.636 7.49132L13.652 7.45321C13.6499 7.45805 13.6473 7.46269 13.6444 7.46709L13.6694 7.43482C13.666 7.43897 13.6622 7.44273 13.658 7.44604L13.6902 7.42108C13.6814 7.42657 13.6723 7.43145 13.6628 7.43569L13.7008 7.41962C13.6859 7.42589 13.6703 7.43035 13.6544 7.4329L13.6967 7.42719C13.6823 7.42895 13.6677 7.42895 13.6532 7.42719L13.6956 7.4329C13.6792 7.43064 13.6631 7.42666 13.6467 7.4244C13.6052 7.41474 13.5616 7.42045 13.5239 7.44047C13.5058 7.45102 13.49 7.46504 13.4774 7.48171C13.4647 7.49838 13.4555 7.51739 13.4502 7.53763C13.4448 7.55788 13.4436 7.57897 13.4464 7.59971C13.4493 7.62045 13.4562 7.64042 13.4667 7.65849C13.4769 7.67646 13.4905 7.6922 13.5069 7.70476C13.5233 7.71731 13.542 7.72641 13.562 7.73152C13.5977 7.7363 13.6323 7.74546 13.6682 7.74705C13.722 7.74741 13.7752 7.73486 13.8231 7.71047C13.8532 7.69706 13.8799 7.67704 13.9011 7.65191C13.9224 7.62677 13.9378 7.59716 13.946 7.56528C13.9569 7.51293 13.9563 7.45885 13.9443 7.40674C13.9255 7.29501 13.8997 7.18421 13.8709 7.0748C13.8597 7.03404 13.8327 6.99942 13.796 6.97855C13.7592 6.95768 13.7157 6.95226 13.6749 6.9635C13.6342 6.97473 13.5995 7.00169 13.5787 7.03845C13.5578 7.07521 13.5524 7.11876 13.5636 7.15951L13.5641 7.15957Z" fill="#747474"/>
<path d="M11.7113 6.18182C11.6534 6.37017 11.6914 6.80336 12.0479 6.8402C12.5193 6.83741 12.5445 6.31367 12.3859 6.06743C12.2559 5.86581 11.8737 5.78196 11.7113 6.18182Z" fill="#747474"/>
<path d="M15.4874 6.18189C15.5453 6.37017 15.5073 6.80336 15.1508 6.8402C14.6794 6.83741 14.6541 6.31367 14.8129 6.06737C14.9428 5.86581 15.325 5.78196 15.4874 6.18189Z" fill="#747474"/>
</g>
<defs>
<clipPath id="clip0_71_1682">
<rect width="24" height="24" fill="white"/>
</clipPath>
</defs>
</svg>
