<svg width="24" height="24" viewBox="0 0 24 24" fill="none" xmlns="http://www.w3.org/2000/svg">
<path d="M18.2287 21.0262C18.2292 20.2079 18.0685 19.3975 17.7557 18.6414C17.4429 17.8853 16.9842 17.1982 16.4057 16.6194C15.8273 16.0406 15.1404 15.5815 14.3845 15.2682C13.6285 14.9549 12.8183 14.7937 12 14.7937C11.1817 14.7937 10.3714 14.9549 9.61549 15.2682C8.85953 15.5815 8.17272 16.0406 7.59427 16.6194C7.01583 17.1982 6.5571 17.8853 6.2443 18.6414C5.9315 19.3975 5.77075 20.2079 5.77124 21.0262H18.2287Z" stroke="#747474"/>
<path d="M14.7788 10.5001C14.7783 10.9036 14.6976 11.303 14.5413 11.675C14.3849 12.0471 14.1561 12.3842 13.8682 12.6669C13.5802 12.9496 13.2389 13.1722 12.8641 13.3217C12.4893 13.4712 12.0885 13.5446 11.685 13.5376C10.8773 13.5054 10.1139 13.1595 9.55723 12.5734C9.00052 11.9873 8.69434 11.2072 8.70376 10.3989V6.16886C8.70369 6.16349 8.70554 6.15827 8.70898 6.15414C8.71242 6.15001 8.71722 6.14725 8.72251 6.14636C9.74922 5.99055 10.7854 5.90535 11.8238 5.89136C12.8174 5.9047 13.8087 5.98992 14.79 6.14636C14.796 6.14636 14.8017 6.14873 14.8059 6.15295C14.8101 6.15717 14.8125 6.16289 14.8125 6.16886L14.7788 10.5001Z" stroke="#747474"/>
<path d="M8.70373 7.55249L5.60248 6.12749C5.59861 6.12471 5.59545 6.12105 5.59328 6.11681C5.5911 6.11258 5.58997 6.10788 5.58997 6.10311C5.58997 6.09835 5.5911 6.09365 5.59328 6.08942C5.59545 6.08518 5.59861 6.08152 5.60248 6.07874L11.745 3.14624H11.7675L17.8912 6.04874C17.8951 6.05107 17.8983 6.05437 17.9006 6.05831C17.9028 6.06226 17.904 6.06671 17.904 6.07124C17.904 6.07577 17.9028 6.08022 17.9006 6.08417C17.8983 6.08811 17.8951 6.09141 17.8912 6.09374L14.8125 7.55249" stroke="#747474"/>
<path d="M8.70374 9.13135H7.83374C7.83374 9.13135 7.08374 9.13135 7.08374 10.2938C7.08374 11.3663 7.83374 11.3663 7.83374 11.3663H8.85374" stroke="#747474"/>
<path d="M14.7787 9.26636H15.6487C15.6487 9.26636 16.3987 9.26636 16.3987 10.4251C16.3987 11.4976 15.6487 11.4976 15.6487 11.4976H14.625" stroke="#747474"/>
<path d="M17.5687 12.4313V6.27002" stroke="#747474"/>
<path d="M17.5688 14.0287C18.0099 14.0287 18.3675 13.671 18.3675 13.2299C18.3675 12.7888 18.0099 12.4312 17.5688 12.4312C17.1276 12.4312 16.77 12.7888 16.77 13.2299C16.77 13.671 17.1276 14.0287 17.5688 14.0287Z" stroke="#747474"/>
<path d="M14.8125 8.62511C13.8289 8.44641 12.8309 8.35978 11.8312 8.36636C10.7826 8.34532 9.73463 8.43203 8.70374 8.62511" stroke="#747474"/>
</svg>
