<svg width="24" height="24" viewBox="0 0 24 24" fill="none" xmlns="http://www.w3.org/2000/svg">
    <path d="M17.2659 10.2164C18.3321 10.227 19.3515 10.6552 20.1054 11.4091C20.8593 12.163 21.2876 13.1824 21.2982 14.2485C21.3117 15.3011 20.8741 16.3069 20.1624 17.054C19.3945 17.8599 18.3579 18.2667 17.2659 18.2808C15.6674 18.3013 15.6655 20.782 17.2659 20.7614C20.8438 20.7154 23.7328 17.8264 23.7788 14.2485C23.8248 10.6705 20.7744 7.78081 17.2659 7.73574C15.6655 7.71516 15.6674 10.1959 17.2659 10.2164ZM6.68582 18.2659C5.61968 18.2554 4.6002 17.8272 3.84629 17.0733C3.09238 16.3194 2.66416 15.2999 2.65359 14.2337C2.64006 13.1812 3.07757 12.1754 3.78939 11.4282C4.55718 10.6222 5.5938 10.2156 6.6858 10.2015C8.28423 10.1809 8.2862 7.70023 6.6858 7.72083C3.10792 7.76682 0.218922 10.6558 0.172938 14.2337C0.126953 17.8118 3.1773 20.7015 6.68582 20.7466C8.28623 20.7671 8.28426 18.2865 6.68582 18.2659Z" fill="#0027FF"/>
    <path d="M7.96124 9.00549C7.97177 7.93937 8.39996 6.91988 9.15386 6.16598C9.90776 5.41208 10.9272 4.98388 11.9934 4.97335C13.0459 4.95983 14.0517 5.39738 14.7988 6.10918C15.6048 6.87697 16.0115 7.91351 16.0256 9.00549C16.0461 10.6039 18.5268 10.6059 18.5063 9.00549C18.4602 5.42769 15.5712 2.53869 11.9934 2.4927C8.4153 2.44672 5.52569 5.49697 5.4806 9.00549C5.45997 10.6059 7.94069 10.6039 7.96124 9.00549Z" fill="#0027FF"/>
    <path d="M12.7743 11.0877C13.1621 11.4754 13.1621 12.1038 12.7743 12.4915L9.89411 15.3718C9.50641 15.7594 8.87793 15.7594 8.4903 15.3718C8.1026 14.984 8.1026 14.3555 8.4903 13.9679L11.3706 11.0877C11.7582 10.6999 12.3867 10.6999 12.7743 11.0877Z" fill="#0027FF"/>
    <path d="M11.3712 11.0876C11.7588 10.7 12.3873 10.7 12.7749 11.0876L15.6553 13.968C16.0429 14.3555 16.0429 14.9841 15.6553 15.3718C15.2676 15.7594 14.639 15.7594 14.2514 15.3718L11.3712 12.4915C10.9834 12.1038 10.9834 11.4753 11.3712 11.0876Z" fill="#0027FF"/>
    <path d="M12.0479 14.8613C12.6098 14.8613 13.0652 15.3168 13.0652 15.8785V20.0524C13.0652 20.6141 12.6097 21.0695 12.0479 21.0695C11.4863 21.0695 11.0308 20.6141 11.0308 20.0524V15.8785C11.0308 15.3167 11.4863 14.8613 12.0479 14.8613Z" fill="#0027FF"/>
</svg>
