<svg width="24" height="24" viewBox="0 0 24 24" fill="none" xmlns="http://www.w3.org/2000/svg">
<path d="M20.4412 4.23047H4.20373C3.78537 4.23047 3.44623 4.56961 3.44623 4.98797V16.3655C3.44623 16.7838 3.78537 17.123 4.20373 17.123H20.4412C20.8596 17.123 21.1987 16.7838 21.1987 16.3655V4.98797C21.1987 4.56961 20.8596 4.23047 20.4412 4.23047Z" stroke="black" stroke-width="1.5"/>
<path d="M3.44623 14.6699H21.1987" stroke="black" stroke-width="1.5"/>
<path d="M8.96997 20.1152C9.51558 19.8591 9.95033 19.4145 10.1942 18.8633C10.4382 18.3121 10.4748 17.6913 10.2975 17.1152" stroke="black" stroke-width="1.5"/>
<path d="M16.0125 20.1152C15.4669 19.8591 15.0321 19.4145 14.7882 18.8633C14.5443 18.3121 14.5076 17.6913 14.685 17.1152" stroke="black" stroke-width="1.5"/>
<path d="M6.88501 20.1152H17.76" stroke="black" stroke-width="1.5" stroke-linecap="round"/>
<path d="M11.13 11.7898V7.41733C11.13 7.3994 11.1349 7.38181 11.1439 7.36635C11.153 7.35089 11.1661 7.33812 11.1817 7.32935C11.1973 7.32058 11.215 7.31612 11.233 7.31642C11.2509 7.31672 11.2684 7.32178 11.2837 7.33108L14.7225 9.51733C14.7372 9.52639 14.7494 9.53908 14.7578 9.55417C14.7663 9.56927 14.7707 9.58628 14.7707 9.60358C14.7707 9.62088 14.7663 9.63789 14.7578 9.65299C14.7494 9.66809 14.7372 9.68077 14.7225 9.68983L11.2837 11.8723C11.2689 11.8828 11.2515 11.8889 11.2334 11.89C11.2153 11.8912 11.1973 11.8872 11.1813 11.8786C11.1654 11.8701 11.1521 11.8572 11.143 11.8415C11.134 11.8258 11.1294 11.8079 11.13 11.7898Z" stroke="black" stroke-width="1.5"/>
</svg>
