<svg width="24" height="24" viewBox="0 0 24 24" fill="none" xmlns="http://www.w3.org/2000/svg">
<path d="M7.88049 15.5358H16.1194C16.8875 15.5358 15.4714 12.1643 15.4714 12.1643C15.3875 11.9637 15.1858 11.8351 14.9929 11.7561L13.6901 11.1562L13.0641 10.6284L12.0583 11.6287H12.0576L12.4915 14.5301C12.4929 14.5402 12.4906 14.5502 12.4846 14.5584L12.0308 15.1795C12.0235 15.1894 12.012 15.1952 11.9997 15.1952C11.9874 15.1952 11.976 15.1894 11.9688 15.1795L11.5149 14.5584C11.509 14.5502 11.5064 14.5402 11.508 14.5301L11.942 11.6287H11.9413L10.9356 10.6284L10.3096 11.1562L9.00685 11.7561C8.81413 11.8351 8.62466 11.9552 8.52827 12.1643C8.52845 12.1643 7.11239 15.5358 7.88049 15.5358Z" fill="#00095F"/>
<path d="M12 10.8972C12.9937 10.8972 14.3268 9.65568 14.3494 7.57385C14.3639 6.12918 13.6758 5.26465 12 5.26465C10.3241 5.26465 9.63589 6.12918 9.65058 7.57385C9.67315 9.65568 10.837 10.8972 12 10.8972ZM11.5277 8.15403C12.7427 8.28341 13.802 6.58415 13.7848 8.10561C13.7745 9.01632 12.9297 10.3917 12.0002 10.3917C11.0246 10.3917 10.3513 9.24863 10.2155 8.10611C10.0682 6.86698 12.3426 7.14936 11.5277 8.15403Z" fill="#00095F"/>
<path d="M21.0847 3H2.91533C2.40979 3 2 3.40979 2 3.91533V16.8849C2 17.3905 2.40979 17.8002 2.91533 17.8002H21.0847C21.5902 17.8002 22 17.3905 22 16.8849V3.91533C22 3.40979 21.5902 3 21.0847 3ZM20.627 16.4272H3.373V4.373H20.627V16.4272Z" fill="#00095F"/>
<path d="M2 19.2561C2 19.5354 2.22636 19.7618 2.50558 19.7618H7.37359V18.7505H2.50558C2.22636 18.7505 2 18.9769 2 19.2561Z" fill="#00095F"/>
<path d="M21.4944 18.7505H9.32966V19.7618H21.4944C21.7736 19.7618 22 19.5354 22 19.2562C22 18.9768 21.7736 18.7505 21.4944 18.7505Z" fill="#00095F"/>
<path d="M8.35177 18.2202C8.01648 18.2202 7.74371 18.493 7.74371 18.8283V19.6833C7.74371 20.0186 8.01648 20.2914 8.35177 20.2914C8.68701 20.2914 8.95973 20.0186 8.95973 19.6833V18.8283C8.95973 18.493 8.68701 18.2202 8.35177 18.2202Z" fill="#00095F"/>
</svg>
