<svg width="24" height="24" viewBox="0 0 24 24" fill="none" xmlns="http://www.w3.org/2000/svg">
    <g clip-path="url(#clip0_417_12706)">
        <path fill-rule="evenodd" clip-rule="evenodd" d="M12 23.25C17.799 23.25 22.5 18.549 22.5 12.75C22.5 6.95101 17.799 2.25 12 2.25C6.20101 2.25 1.5 6.95101 1.5 12.75C1.5 14.6332 1.99575 16.4006 2.86385 17.9288L1.5 23.25L6.98615 21.9778C8.47605 22.7891 10.1842 23.25 12 23.25ZM12 21.6347C16.9069 21.6347 20.8847 17.6569 20.8847 12.75C20.8847 7.8432 16.9069 3.86539 12 3.86539C7.09316 3.86539 3.11539 7.8432 3.11539 12.75C3.11539 14.6446 3.70837 16.4006 4.71888 17.8426L3.92308 20.8269L6.95995 20.0677C8.39205 21.056 10.1285 21.6347 12 21.6347Z" fill="#BFC8D0"/>
        <path d="M21 12C21 16.9705 16.9705 21 12 21C10.1041 21 8.34518 20.4138 6.8945 19.4128L3.81818 20.1818L4.62432 17.1588C3.60069 15.698 3 13.9192 3 12C3 7.02944 7.02944 3 12 3C16.9705 3 21 7.02944 21 12Z" fill="url(#paint0_linear_417_12706)"/>
        <path fill-rule="evenodd" clip-rule="evenodd" d="M12 22.5C17.799 22.5 22.5 17.799 22.5 12C22.5 6.20101 17.799 1.5 12 1.5C6.20101 1.5 1.5 6.20101 1.5 12C1.5 13.8832 1.99575 15.6506 2.86385 17.1788L1.5 22.5L6.98615 21.2278C8.47605 22.0391 10.1842 22.5 12 22.5ZM12 20.8847C16.9069 20.8847 20.8847 16.9069 20.8847 12C20.8847 7.09316 16.9069 3.11539 12 3.11539C7.09316 3.11539 3.11539 7.09316 3.11539 12C3.11539 13.8946 3.70837 15.6506 4.71888 17.0926L3.92308 20.0769L6.95995 19.3177C8.39205 20.306 10.1285 20.8847 12 20.8847Z" fill="white"/>
        <path d="M9.375 7.12602C9.1254 6.62458 8.74238 6.66897 8.35553 6.66897C7.6641 6.66897 6.58594 7.49718 6.58594 9.0386C6.58594 10.3018 7.14259 11.6846 9.0183 13.7532C10.8285 15.7495 13.2071 16.7822 15.1817 16.747C17.1563 16.7119 17.5625 15.0126 17.5625 14.4388C17.5625 14.1845 17.4047 14.0576 17.296 14.0231C16.6231 13.7001 15.382 13.0984 15.0996 12.9854C14.8172 12.8724 14.6698 13.0253 14.5781 13.1085C14.3221 13.3524 13.8145 14.0717 13.6406 14.2335C13.4669 14.3952 13.2077 14.3133 13.0999 14.2522C12.7031 14.093 11.6272 13.6144 10.7696 12.783C9.70898 11.7549 9.64672 11.4012 9.44692 11.0863C9.2871 10.8344 9.4044 10.6799 9.4629 10.6123C9.69143 10.3487 10.0069 9.9416 10.1485 9.73932C10.2899 9.53697 10.1777 9.22985 10.1102 9.0386C9.82035 8.21585 9.57473 7.52712 9.375 7.12602Z" fill="white"/>
    </g>
    <defs>
        <linearGradient id="paint0_linear_417_12706" x1="19.875" y1="5.25" x2="3" y2="21" gradientUnits="userSpaceOnUse">
            <stop stop-color="#5BD066"/>
            <stop offset="1" stop-color="#27B43E"/>
        </linearGradient>
        <clipPath id="clip0_417_12706">
            <rect width="24" height="24" fill="white"/>
        </clipPath>
    </defs>
</svg>
