<svg width="24" height="24" viewBox="0 0 24 24" fill="none" xmlns="http://www.w3.org/2000/svg">
<path d="M21 23.25H4.125C4.02554 23.25 3.93016 23.2105 3.85984 23.1402C3.78951 23.0698 3.75 22.9745 3.75 22.875V2.25C3.75 2.15054 3.78951 2.05516 3.85984 1.98484C3.93016 1.91451 4.02554 1.875 4.125 1.875H21C21.0995 1.875 21.1948 1.91451 21.2652 1.98484C21.3355 2.05516 21.375 2.15054 21.375 2.25V22.875C21.375 22.9745 21.3355 23.0698 21.2652 23.1402C21.1948 23.2105 21.0995 23.25 21 23.25Z" fill="#0455BF"/>
<path d="M21.375 22.125C16.9989 22.125 12.8021 20.3866 9.70774 17.2923C6.61339 14.1979 4.875 10.0011 4.875 5.625V1.875H4.125C4.02554 1.875 3.93016 1.91451 3.85984 1.98484C3.78951 2.05516 3.75 2.15054 3.75 2.25V22.875C3.75 22.9745 3.78951 23.0698 3.85984 23.1402C3.93016 23.2105 4.02554 23.25 4.125 23.25H21C21.0995 23.25 21.1948 23.2105 21.2652 23.1402C21.3355 23.0698 21.375 22.9745 21.375 22.875V22.125Z" fill="#00095F"/>
<path d="M18.75 21H2.25C2.15054 21 2.05516 20.9605 1.98484 20.8902C1.91451 20.8198 1.875 20.7245 1.875 20.625V1.125C1.875 1.02554 1.91451 0.930161 1.98484 0.859835C2.05516 0.789509 2.15054 0.75 2.25 0.75H16.5C16.5994 0.750021 16.6948 0.789544 16.7651 0.859875L19.0151 3.10988C19.0855 3.18018 19.125 3.27555 19.125 3.375V20.625C19.125 20.7245 19.0855 20.8198 19.0152 20.8902C18.9448 20.9605 18.8495 21 18.75 21Z" fill="#F0F0F0"/>
<path d="M15.3809 6H5.6189V6.75H15.3809V6Z" fill="#FEBC00"/>
<path d="M11.6249 9H5.6189V9.75H11.6249V9Z" fill="#FEBC00"/>
<path d="M11.9999 12H5.6189V12.75H11.9999V12Z" fill="#FEBC00"/>
<path d="M10.1249 15H5.6189V15.75H10.1249V15Z" fill="#FEBC00"/>
<path d="M13.125 9H12.375V9.75H13.125V9Z" fill="#FEBC00"/>
<path d="M14.625 9H13.875V9.75H14.625V9Z" fill="#FEBC00"/>
<path d="M19.125 4.875H15V0.75H16.6553L19.125 3.21975V4.875Z" fill="#D6E8F2"/>
<path d="M21.2197 7.6875C21.1171 7.68741 21.0154 7.7076 20.9205 7.74692C20.8257 7.78624 20.7395 7.84391 20.667 7.91663L20.3906 8.193L19.5611 9.0225L19.125 9.45863V12.7763L21.2197 10.6815L21.375 10.5263V7.71C21.3241 7.6973 21.2721 7.68976 21.2197 7.6875Z" fill="#00095F"/>
<path d="M14.8608 14.8285L14.6797 15.5624L15.4136 15.3816L16.7962 15.1049L19.1249 12.7761V9.4585L15.1372 13.4462L14.8608 14.8285Z" fill="#DFEAEF"/>
<path d="M21.7728 9.37848L20.1138 7.71948L20.6669 7.16673C20.7395 7.09406 20.8257 7.03641 20.9205 6.99708C21.0154 6.95775 21.1171 6.9375 21.2198 6.9375C21.3225 6.9375 21.4242 6.95775 21.5191 6.99708C21.614 7.03641 21.7002 7.09406 21.7728 7.16673L22.3259 7.71948C22.4725 7.86623 22.5548 8.06517 22.5548 8.2726C22.5548 8.48004 22.4725 8.67898 22.3259 8.82573L21.7728 9.37848Z" fill="#F74E0C"/>
<path d="M22.0501 7.4431L21.7737 7.16673C21.7012 7.09406 21.615 7.03641 21.5201 6.99708C21.4252 6.95775 21.3235 6.9375 21.2208 6.9375C21.1181 6.9375 21.0164 6.95775 20.9215 6.99708C20.8266 7.03641 20.7405 7.09406 20.6679 7.16673L20.1147 7.71948L20.3915 7.99623L20.9442 7.4431C21.0909 7.29653 21.2898 7.21419 21.4972 7.21419C21.7046 7.21419 21.9034 7.29653 22.0501 7.4431Z" fill="#CC2600"/>
<path d="M19.5612 8.27254L15.1375 12.6963L16.7963 14.3552L21.2201 9.93141L19.5612 8.27254Z" fill="#F74E0C"/>
<path d="M20.1142 8.82576L15.6904 13.2495L16.2433 13.8024L20.667 9.37863L20.1142 8.82576Z" fill="#FEBC00"/>
<path d="M19.5612 8.27254L15.1375 12.6963L15.6903 13.2492L20.1141 8.82541L19.5612 8.27254Z" fill="#F74E0C"/>
<path d="M20.3905 7.44303L19.561 8.27246L21.2199 9.93133L22.0493 9.1019L20.3905 7.44303Z" fill="#DFEAEF"/>
<path d="M20.6669 8.8255C20.5942 8.75288 20.5366 8.66666 20.4972 8.57175C20.4579 8.47684 20.4376 8.37511 20.4376 8.27237C20.4376 8.16963 20.4579 8.0679 20.4972 7.97299C20.5366 7.87808 20.5942 7.79186 20.6669 7.71925L20.3905 7.44287L19.561 8.27237L21.2197 9.93137L21.4964 9.65462L20.6669 8.8255Z" fill="#C3D6DD"/>
<path d="M15.4136 14.6317L14.8608 14.0785L15.1372 12.6963L16.7962 14.3549L15.4136 14.6317Z" fill="#F7D694"/>
<path d="M14.8608 14.0786L14.6797 14.8125L15.4136 14.6317L14.8608 14.0786Z" fill="#F74E0C"/>
</svg>
