<svg width="19" height="20" viewBox="0 0 19 20" fill="none" xmlns="http://www.w3.org/2000/svg">
<g clip-path="url(#clip0_494_32813)">
<path d="M14.3729 4.2218C15.1136 4.2218 15.7107 3.60515 15.7107 2.83743V1.38712C15.7107 0.618026 15.1136 0 14.3729 0C13.6355 0 13.037 0.618026 13.037 1.38712V2.83811C13.0377 3.60515 13.6355 4.2218 14.3729 4.2218Z" fill="#747474"/>
<path d="M19.1257 2.40163H16.4322V3.10412C16.4322 4.27081 15.5207 5.21777 14.3961 5.21777C13.2707 5.21777 12.3612 4.27081 12.3612 3.10412V2.40163H6.93123V3.10412C6.93123 4.27081 6.01972 5.21777 4.89573 5.21777C3.77107 5.21777 2.86155 4.27081 2.86155 3.10412V2.40163L0.144897 2.36523V19.9982L1.5019 19.9996H17.7886L19.1449 19.9941L19.1257 2.40163ZM17.7879 18.5953H1.5019V7.32935H17.7886L17.7879 18.5953Z" fill="#747474"/>
<path d="M6.12617 11.122L3.72517 16.834H2.68217L3.52217 14.902L1.96817 11.122H3.06717L4.06817 13.831L5.08317 11.122H6.12617ZM10.2594 12.977C10.2594 13.117 10.2501 13.243 10.2314 13.355H7.39645C7.41978 13.635 7.51778 13.8543 7.69045 14.013C7.86311 14.1717 8.07545 14.251 8.32745 14.251C8.69145 14.251 8.95045 14.0947 9.10445 13.782H10.1614C10.0494 14.1553 9.83478 14.4633 9.51745 14.706C9.20011 14.944 8.81045 15.063 8.34845 15.063C7.97511 15.063 7.63911 14.9813 7.34045 14.818C7.04645 14.65 6.81545 14.4143 6.64745 14.111C6.48411 13.8077 6.40245 13.4577 6.40245 13.061C6.40245 12.6597 6.48411 12.3073 6.64745 12.004C6.81078 11.7007 7.03945 11.4673 7.33345 11.304C7.62745 11.1407 7.96578 11.059 8.34845 11.059C8.71711 11.059 9.04611 11.1383 9.33545 11.297C9.62945 11.4557 9.85578 11.682 10.0144 11.976C10.1778 12.2653 10.2594 12.599 10.2594 12.977ZM9.24445 12.697C9.23978 12.445 9.14878 12.2443 8.97145 12.095C8.79411 11.941 8.57711 11.864 8.32045 11.864C8.07778 11.864 7.87245 11.9387 7.70445 12.088C7.54111 12.2327 7.44078 12.4357 7.40345 12.697H9.24445ZM10.7228 13.047C10.7228 12.655 10.7998 12.3073 10.9538 12.004C11.1124 11.7007 11.3248 11.4673 11.5908 11.304C11.8614 11.1407 12.1624 11.059 12.4938 11.059C12.7831 11.059 13.0351 11.1173 13.2498 11.234C13.4691 11.3507 13.6441 11.4977 13.7748 11.675V11.122H14.7618V15H13.7748V14.433C13.6488 14.615 13.4738 14.7667 13.2498 14.888C13.0304 15.0047 12.7761 15.063 12.4868 15.063C12.1601 15.063 11.8614 14.979 11.5908 14.811C11.3248 14.643 11.1124 14.4073 10.9538 14.104C10.7998 13.796 10.7228 13.4437 10.7228 13.047ZM13.7748 13.061C13.7748 12.823 13.7281 12.62 13.6348 12.452C13.5414 12.2793 13.4154 12.1487 13.2568 12.06C13.0981 11.9667 12.9278 11.92 12.7458 11.92C12.5638 11.92 12.3958 11.9643 12.2418 12.053C12.0878 12.1417 11.9618 12.2723 11.8638 12.445C11.7704 12.613 11.7238 12.8137 11.7238 13.047C11.7238 13.2803 11.7704 13.4857 11.8638 13.663C11.9618 13.8357 12.0878 13.9687 12.2418 14.062C12.4004 14.1553 12.5684 14.202 12.7458 14.202C12.9278 14.202 13.0981 14.1577 13.2568 14.069C13.4154 13.9757 13.5414 13.845 13.6348 13.677C13.7281 13.5043 13.7748 13.299 13.7748 13.061ZM16.6989 11.724C16.8249 11.5187 16.9882 11.3577 17.1889 11.241C17.3942 11.1243 17.6276 11.066 17.8889 11.066V12.095H17.6299C17.3219 12.095 17.0886 12.1673 16.9299 12.312C16.7759 12.4567 16.6989 12.7087 16.6989 13.068V15H15.7189V11.122H16.6989V11.724Z" fill="#747474"/>
<path d="M4.8739 4.2218C5.61263 4.2218 6.20905 3.60515 6.20905 2.83743V1.38712C6.20839 0.618026 5.61263 0 4.8739 0C4.13582 0 3.53741 0.618026 3.53741 1.38712V2.83811C3.53741 3.60515 4.13582 4.2218 4.8739 4.2218Z" fill="#747474"/>
</g>
<defs>
<clipPath id="clip0_494_32813">
<rect width="19" height="20" fill="white"/>
</clipPath>
</defs>
</svg>
