<svg width="24" height="24" viewBox="0 0 24 24" fill="none" xmlns="http://www.w3.org/2000/svg">
    <g clip-path="url(#clip0_496_37464)">
        <path d="M20.0222 12.2699V7.28369H20.4892C20.869 7.28369 21.177 7.5916 21.177 7.97174V11.5821C21.177 11.9619 20.869 12.2699 20.4892 12.2699H20.0222Z" stroke="#00095F"/>
        <path d="M17.2372 16.3383L17.2376 16.3381C17.5309 16.1404 17.8798 16.0265 18.2597 16.026L18.2603 16.026C18.5136 16.026 18.753 16.0771 18.9719 16.1695L17.2372 16.3383ZM17.2372 16.3383C16.9456 16.5353 16.7131 16.8155 16.5746 17.1435L17.2372 16.3383ZM19.7773 16.8326L19.7777 16.8332C19.9747 17.1257 20.0892 17.4745 20.0896 17.8549L20.0896 17.8554L20.0896 18.7647V19.2647H19.5896H16.931H16.431V18.7647V17.8554C16.431 17.6022 16.4819 17.3628 16.5745 17.1438L19.7773 16.8326ZM19.7773 16.8326C19.5805 16.5412 19.3004 16.3082 18.9721 16.1696L19.7773 16.8326ZM19.7335 16.3826C20.1064 16.755 20.3396 17.2729 20.3434 17.8402V17.8554V18.7647V19.2647H20.8434H21.177V22.3467C21.177 22.9837 20.6608 23.5 20.0238 23.5H16.497C15.86 23.5 15.3435 22.9836 15.3435 22.3467V19.2647H15.6768H16.1768V18.7647V17.8554C16.1768 17.282 16.4107 16.7582 16.7869 16.3827L16.7876 16.382C17.1629 16.006 17.6866 15.772 18.26 15.7722L18.2605 15.7722C18.834 15.772 19.3577 16.006 19.7329 16.382L19.7335 16.3826ZM16.4337 16.0288L16.4337 16.0288L16.4337 16.0288ZM16.9061 21.1066C16.9061 21.8543 17.5125 22.4608 18.2603 22.4608C19.0082 22.4608 19.6145 21.8543 19.6145 21.1066C19.6145 20.3587 19.0081 19.7524 18.2603 19.7524C17.5125 19.7524 16.9061 20.3587 16.9061 21.1066Z" stroke="#00095F"/>
        <path d="M15.7572 15.3511L15.4048 14.9964C15.4046 14.9967 15.4043 14.9969 15.404 14.9972C15.4038 14.9974 15.4035 14.9977 15.4033 14.9979L15.7572 15.3511ZM15.7572 15.3511C15.8357 15.2724 15.9173 15.1979 16.0016 15.1277L15.6322 15.4867C15.6438 15.474 15.6552 15.4613 15.6666 15.4485C15.6961 15.4155 15.7255 15.3826 15.7572 15.3511ZM13.3435 8.26915C13.4666 7.60554 13.4102 6.96089 13.1973 6.44439C12.9747 5.90434 12.5369 5.4359 11.9214 5.36943C11.6632 5.085 11.3218 4.9563 10.9792 4.92228C10.5743 4.88207 10.142 4.96867 9.76645 5.07167C9.50636 5.143 9.23461 5.23427 8.99642 5.31427C8.893 5.349 8.79592 5.3816 8.70886 5.40953C8.55576 5.45864 8.42958 5.49509 8.32719 5.51674C8.2243 5.5385 8.18137 5.53713 8.17699 5.53699C8.17666 5.53698 8.17655 5.53697 8.17664 5.53699L7.60597 5.45551V6.03197C7.60597 6.29752 7.66081 6.52523 7.71385 6.68465C7.71905 6.70028 7.72427 6.71534 7.72945 6.72983C7.63356 7.02805 7.61329 7.36353 7.61446 7.64038C7.61534 7.84871 7.62911 8.05489 7.64721 8.23839C7.63219 8.25021 7.61728 8.26279 7.60256 8.27618C7.30311 8.54846 7.26169 8.96411 7.39097 9.41667C7.49441 9.78009 7.60341 10.0659 7.75635 10.28C7.85355 10.4161 7.96058 10.5128 8.07256 10.5847C8.12987 10.8575 8.2011 11.1195 8.28673 11.3557C8.37028 11.5862 8.47508 11.8136 8.60858 12.0056V12.0072V12.0091V12.011V12.0129V12.0148V12.0167V12.0186V12.0205V12.0224V12.0243V12.0261V12.028V12.0299V12.0318V12.0337V12.0355V12.0374V12.0393V12.0412V12.043V12.0449V12.0467V12.0486V12.0505V12.0523V12.0542V12.056V12.0579V12.0597V12.0616V12.0634V12.0653V12.0671V12.069V12.0708V12.0726V12.0745V12.0763V12.0781V12.08V12.0818V12.0836V12.0854V12.0872V12.0891V12.0909V12.0927V12.0945V12.0963V12.0981V12.0999V12.1017V12.1035V12.1053V12.1071V12.1089V12.1107V12.1125V12.1143V12.1161V12.1179V12.1197V12.1215V12.1233V12.125V12.1268V12.1286V12.1304V12.1321V12.1339V12.1357V12.1374V12.1392V12.141V12.1427V12.1445V12.1462V12.148V12.1498V12.1515V12.1533V12.155V12.1568V12.1585V12.1602V12.162V12.1637V12.1655V12.1672V12.1689V12.1707V12.1724V12.1741V12.1758V12.1776V12.1793V12.181V12.1827V12.1844V12.1862V12.1879V12.1896V12.1913V12.193V12.1947V12.1964V12.1981V12.1998V12.2015V12.2032V12.2049V12.2066V12.2083V12.21V12.2117V12.2134V12.215V12.2167V12.2184V12.2201V12.2218V12.2234V12.2251V12.2268V12.2284V12.2301V12.2318V12.2334V12.2351V12.2368V12.2384V12.2401V12.2417V12.2434V12.2451V12.2467V12.2484V12.25V12.2516V12.2533V12.2549V12.2566V12.2582V12.2598V12.2615V12.2631V12.2647V12.2664V12.268V12.2696V12.2712V12.2729V12.2745V12.2761V12.2777V12.2793V12.281V12.2826V12.2842V12.2858V12.2874V12.289V12.2906V12.2922V12.2938V12.2954V12.297V12.2986V12.3002V12.3018V12.3034V12.305V12.3066V12.3081V12.3097V12.3113V12.3129V12.3145V12.316V12.3176V12.3192V12.3208V12.3223V12.3239V12.3255V12.327V12.3286V12.3302V12.3317V12.3333V12.3348V12.3364V12.3379V12.3395V12.341V12.3426V12.3441V12.3457V12.3472V12.3488V12.3503V12.3518V12.3534V12.3549V12.3565V12.358V12.3595V12.361V12.3626V12.3641V12.3656V12.3671V12.3687V12.3702V12.3717V12.3732V12.3747V12.3762V12.3778V12.3793V12.3808V12.3823V12.3838V12.3853V12.3868V12.3883V12.3898V12.3913V12.3928V12.3943V12.3958V12.3973V12.3987V12.4002V12.4017V12.4032V12.4047V12.4062V12.4077V12.4091V12.4106V12.4121V12.4136V12.415V12.4165V12.418V12.4194V12.4209V12.4224V12.4238V12.4253V12.4267V12.4282V12.4297V12.4311V12.4326V12.434V12.4355V12.4369V12.4384V12.4398V12.4413V12.4427V12.4441V12.4456V12.447V12.4485V12.4499V12.4513V12.4528V12.4542V12.4556V12.4571V12.4585V12.4599V12.4613V12.4627V12.4642V12.4656V12.467V12.4684V12.4698V12.4712V12.4727V12.4741V12.4755V12.4769V12.4783V12.4797V12.4811V12.4825V12.4839V12.4853V12.4867V12.4881V12.4895V12.4909V12.4923V12.4937V12.4951V12.4964V12.4978V12.4992V12.5006V12.502V12.5034V12.5047V12.5061V12.5075V12.5089V12.5102V12.5116V12.513V12.5143V12.5157V12.5171V12.5184V12.5198V12.5212V12.5225V12.5239V12.5252V12.5266V12.5279V12.5293V12.5307V12.532V12.5334V12.5347V12.536V12.5374V12.5387V12.5401V12.5414V12.5428V12.5441V12.5454V12.5468V12.5481V12.5494V12.5508V12.5521V12.5534V12.5548V12.5561V12.5574V12.5587V12.56V12.5614V12.5627V12.564V12.5653V12.5666V12.5679V12.5693V12.5706V12.5719V12.5732V12.5745V12.5758V12.5771V12.5784V12.5797V12.581V12.5823V12.5836V12.5849V12.5862V12.5875V12.5888V12.5901V12.5914V12.5927V12.5939V12.5952V12.5965V12.5978V12.5991V12.6004V12.6005C8.60453 12.6064 8.59946 12.6134 8.59318 12.6216C8.55023 12.6776 8.47798 12.751 8.37987 12.8315C8.17869 12.9967 7.94438 13.1312 7.80363 13.1806L7.80287 13.1808C7.35649 13.3382 6.5473 13.6547 5.85978 14.1652C5.17851 14.6711 4.51269 15.4504 4.60311 16.531L4.60314 16.5314C4.62636 16.8065 4.81867 16.971 4.92205 17.0446C5.04332 17.131 5.19081 17.1977 5.33892 17.2517C5.64006 17.3614 6.04955 17.4559 6.53487 17.5341C7.51211 17.6916 8.87563 17.7955 10.4778 17.7955C11.5742 17.7955 12.559 17.7467 13.3857 17.6648V17.8071V21.8468H4.01987C3.35889 21.8468 2.823 21.3109 2.823 20.6499V1.6965C2.823 1.03596 3.35882 0.5 4.01987 0.5H18.6842H19.9802C20.6412 0.5 21.177 1.03596 21.177 1.6965V4.79836C21.177 5.17798 20.8692 5.48584 20.4893 5.48584H18.6842H18.1842V5.98584V13.8152C17.2687 13.8317 16.4017 14.1516 15.7019 14.7268C15.3804 14.3636 14.9825 14.0767 14.6062 13.8543C14.0576 13.5302 13.5 13.3117 13.1597 13.1842L13.1594 13.1841C12.9888 13.1203 12.7521 12.9817 12.5607 12.8234C12.4662 12.7452 12.3989 12.6754 12.3598 12.6231C12.3545 12.616 12.3502 12.6098 12.3467 12.6046V12.6042V12.6029V12.6017V12.6004V12.5991V12.5978V12.5965V12.5952V12.594V12.5927V12.5914V12.5901V12.5888V12.5875V12.5862V12.5849V12.5836V12.5823V12.581V12.5797V12.5784V12.5771V12.5758V12.5745V12.5732V12.5719V12.5706V12.5693V12.568V12.5667V12.5653V12.564V12.5627V12.5614V12.5601V12.5587V12.5574V12.5561V12.5548V12.5534V12.5521V12.5508V12.5495V12.5481V12.5468V12.5455V12.5441V12.5428V12.5414V12.5401V12.5388V12.5374V12.5361V12.5347V12.5334V12.532V12.5307V12.5293V12.528V12.5266V12.5253V12.5239V12.5225V12.5212V12.5198V12.5185V12.5171V12.5157V12.5144V12.513V12.5116V12.5103V12.5089V12.5075V12.5061V12.5048V12.5034V12.502V12.5006V12.4992V12.4978V12.4965V12.4951V12.4937V12.4923V12.4909V12.4895V12.4881V12.4867V12.4853V12.4839V12.4825V12.4811V12.4797V12.4783V12.4769V12.4755V12.4741V12.4727V12.4713V12.4699V12.4685V12.467V12.4656V12.4642V12.4628V12.4614V12.4599V12.4585V12.4571V12.4557V12.4542V12.4528V12.4514V12.4499V12.4485V12.4471V12.4456V12.4442V12.4427V12.4413V12.4398V12.4384V12.437V12.4355V12.4341V12.4326V12.4311V12.4297V12.4282V12.4268V12.4253V12.4239V12.4224V12.4209V12.4195V12.418V12.4165V12.4151V12.4136V12.4121V12.4106V12.4092V12.4077V12.4062V12.4047V12.4032V12.4018V12.4003V12.3988V12.3973V12.3958V12.3943V12.3928V12.3913V12.3898V12.3883V12.3868V12.3853V12.3838V12.3823V12.3808V12.3793V12.3778V12.3763V12.3748V12.3733V12.3717V12.3702V12.3687V12.3672V12.3657V12.3641V12.3626V12.3611V12.3595V12.358V12.3565V12.355V12.3534V12.3519V12.3503V12.3488V12.3473V12.3457V12.3442V12.3426V12.3411V12.3395V12.338V12.3364V12.3349V12.3333V12.3317V12.3302V12.3286V12.3271V12.3255V12.3239V12.3224V12.3208V12.3192V12.3176V12.3161V12.3145V12.3129V12.3113V12.3098V12.3082V12.3066V12.305V12.3034V12.3018V12.3002V12.2986V12.297V12.2954V12.2938V12.2922V12.2906V12.289V12.2874V12.2858V12.2842V12.2826V12.281V12.2794V12.2778V12.2761V12.2745V12.2729V12.2713V12.2697V12.268V12.2664V12.2648V12.2631V12.2615V12.2599V12.2582V12.2566V12.255V12.2533V12.2517V12.25V12.2484V12.2467V12.2451V12.2434V12.2418V12.2401V12.2385V12.2368V12.2351V12.2335V12.2318V12.2302V12.2285V12.2268V12.2251V12.2235V12.2218V12.2201V12.2184V12.2168V12.2151V12.2134V12.2117V12.21V12.2083V12.2066V12.2049V12.2032V12.2015V12.1999V12.1981V12.1964V12.1947V12.193V12.1913V12.1896V12.1879V12.1862V12.1845V12.1828V12.181V12.1793V12.1776V12.1759V12.1742V12.1724V12.1707V12.169V12.1672V12.1655V12.1638V12.162V12.1603V12.1585V12.1568V12.155V12.1533V12.1515V12.1498V12.148V12.1463V12.1445V12.1428V12.141V12.1392V12.1375V12.1357V12.1339V12.1322V12.1304V12.1286V12.1268V12.1251V12.1233V12.1215V12.1197V12.1179V12.1161V12.1144V12.1126V12.1108V12.109V12.1072V12.1054V12.1036V12.1018V12.1V12.0982V12.0963V12.0945V12.0927V12.0909V12.0891V12.0873V12.0855V12.0836V12.0818V12.08V12.0782V12.0763V12.0745V12.0727V12.0708V12.069V12.0671V12.0653V12.0635V12.0616V12.0598V12.0579V12.0561V12.0542V12.0524V12.0505V12.0486V12.0468V12.0449V12.043V12.0412V12.0393V12.0374V12.0356V12.0337V12.0318V12.0299V12.028V12.0262V12.0243V12.0224V12.0205V12.0186V12.0167V12.0148V12.0129V12.011V12.0091V12.0072V12.0053V12.0051C12.4798 11.8133 12.5843 11.5859 12.6677 11.3555C12.7532 11.1193 12.8245 10.8574 12.8819 10.5845C12.9938 10.5125 13.1006 10.4157 13.1976 10.2797C13.3501 10.0659 13.4591 9.78057 13.5631 9.41746L13.5632 9.41723C13.6954 8.95477 13.6461 8.53585 13.3435 8.26915ZM12.3337 12.5826C12.3338 12.5826 12.3344 12.5837 12.3352 12.5858C12.3341 12.5836 12.3337 12.5826 12.3337 12.5826ZM8.62286 12.5768C8.62292 12.5768 8.62246 12.5779 8.62125 12.5802C8.62218 12.5779 8.62279 12.5768 8.62286 12.5768Z" stroke="#00095F"/>
    </g>
    <defs>
        <clipPath id="clip0_496_37464">
            <rect width="24" height="24" fill="white"/>
        </clipPath>
    </defs>
</svg>
